<svg height="640" preserveAspectRatio="xMidYMid meet" viewBox="0 0 640 640" width="640" xmlns="http://www.w3.org/2000/svg" xmlns:xlink="http://www.w3.org/1999/xlink"><defs><path id="a" d="m317.2 37.74c-155.89 0-282.26 126.37-282.26 282.26s126.37 282.26 282.26 282.26c155.88 0 282.25-126.37 282.25-282.26s-126.37-282.26-282.25-282.26z"/><path id="b" d="m326.31 183.36.19.01.19.01.19.02.18.03.19.03.19.03.18.04.18.04.19.05.18.06.18.05.18.06.17.07.18.07.17.08.18.07.17.09.16.09.17.09.17.1.16.1.16.1.16.11.15.12.16.12.69.47.69.48.69.47.7.47.69.47.7.47.69.47.7.47.69.47.7.46.7.47.69.47.7.46.7.47.7.46.69.47.7.46.7.46.7.47.7.46.7.46.7.47.7.46.7.46.7.46.7.47.7.46.7.46.7.46.7.47.7.46.69.46.7.46.7.47.7.46.7.47.7.46.7.46.69.47.7.47.9.6.89.59.88.59.87.58.85.58.85.56.83.56.82.56.81.54.8.53.78.53.76.52.76.51.73.49.73.49.7.48.69.47.68.45.65.45.64.43.62.42.6.41.59.39.56.38.54.37.53.36.5.34.48.33.46.31.44.3.42.28.39.26.37.26.34.23.32.22.3.2.27.18.25.17.22.15.19.13.12.06.12.07.11.06.12.06.11.07.12.07.11.06.12.07.11.07.12.07.11.07.11.07.11.07.12.07.11.07.11.07.11.07.11.08.11.07.11.08.11.07.11.08.11.07.11.08.1.08.11.08.11.08.1.08.11.08.11.08.1.08.11.08.1.08.1.09.11.08.1.08.1.09.1.08.1.09.11.09-.17.21-.17.21-.17.22-.17.21-.17.2-.17.21-.18.21-.18.2-.18.21-.18.2-.18.2-.18.19-.19.2-.19.2-.19.19-.19.19-.19.19-.19.19-.2.19-.19.18-.2.19-.2.18-.2.18-.2.18-.21.18-.2.17-.21.18-.21.17-.21.17-.21.17-.21.17-.22.16-.21.17-.22.16-.22.16-.22.16-.22.16-.22.15-.22.15-.23.16-.04-.03-.04-.02-.04-.02-.04-.03-.05-.02-.04-.02-.04-.03-.04-.02-.05-.02-.04-.03-.04-.02-.13-.07-.04-.02-.04-.02-.05-.03-.04-.02-.04-.02-.04-.02-.05-.03-.04-.02-.04-.02-.04-.03-.04-.02-.05-.03-.04-.02-.04-.02-.04-.03-.04-.02-.04-.03-.05-.02-.04-.03-.04-.02-.04-.03-.04-.02-.04-.03-.04-.03-.04-.02-.04-.03-1.54-1.05-1.53-1.05-1.51-1.03-1.49-1.03-1.48-1.01-1.45-.99-1.44-.98-1.41-.97-1.39-.96-1.37-.93-1.35-.93-1.32-.9-1.3-.89-1.27-.87-1.24-.86-1.22-.83-1.19-.82-1.16-.79-1.13-.78-1.11-.76-1.07-.73-1.04-.71-1-.69-.97-.67-.94-.65-.91-.62-.86-.59-.84-.57-.79-.55-.76-.52-.71-.49-.68-.46-.64-.44-.6-.41-.55-.38-.51-.35-.47-.33-.43-.29-.37-.26-.34-.22-.19-.14-.2-.13-.2-.14-.19-.13-.2-.14-.2-.13-.19-.13-.2-.14-.2-.13-.2-.14-.19-.13-.2-.14-.2-.13-.2-.13-.2-.14-.2-.14-.2-.13-.21-.14-.2-.13-.2-.14-.21-.14-.2-.14-.2-.13-.21-.14-.21-.14-.2-.14-.21-.14-.21-.14-.21-.14-.21-.14-.21-.15-.21-.14-.22-.15-.21-.14-.22-.15-.21-.14-.22-.15-.22-.15-.22-.15-.22-.15v.24.23.23.23.22.23l.01.22v.22.22.22l.01.22v.21.22.21.22l.01.21v.21.21.2.21.21l.01.2v.21.2.2.21l-.01.2v.2.2.2l-.01.2v.2.2l-.01.2v.19l-.01.2-.01.2-.01.2-.01.19-.01.2-.02.13-.02.12-.01.13-.01.13-.01.12v.13.12l.01.13.01.12.02.12.02.13.02.12.03.11.03.12.04.12.04.11.04.12.05.11.05.11.06.11.06.11.06.1.07.1.07.1.07.1.08.09.08.1.08.09.09.08.09.09.09.08.1.08.1.07.1.07.11.07.1.07.11.06.12.06.11.05.12.05.11.06.12.06.11.06.11.06.11.07.11.06.11.06.11.06.11.07.1.06.11.06.11.07.11.06.11.07.11.06.1.07.11.07.11.06.11.07.1.07.11.06.11.07.1.07.11.07.1.07.11.07.1.07.11.07.1.07.11.07.1.07.11.08.1.07.1.07.11.07.1.08.1.07.1.07.11.08.1.07.75.48.75.49.75.48.75.48.76.48.75.48.75.48.75.48.75.48.75.49.76.48.75.48.75.48.75.48.75.48.75.48.76.48.75.48.75.48.75.48.75.49.75.48.75.48.75.48.76.48.75.49.75.48.75.48.75.48.75.49.75.48.75.49.74.48.75.49.75.48.75.49.75.48.75.49.74.49.75.49.41.27.42.26.41.27.41.27.42.26.42.26.41.27.42.26.42.26.41.26.42.27.42.26.42.26.41.26.42.26.42.26.42.27.41.26.42.26.41.27.42.26.41.27.42.27.41.26.41.27.42.27.41.27.41.28.41.27.4.28.41.28.4.28.41.28.4.29.4.28.4.29.4.29.39.3.39.3.4.3-.15.15-.13.16-.13.17-.12.17-.12.17-.11.17-.1.18-.09.18-.09.19-.08.18-.07.19-.07.19-.05.2-.06.19-.04.2-.04.19-.03.2-.02.2-.02.2-.01.2v.2l.01.2.01.2.02.19.02.2.04.2.04.2.05.19.05.2.06.19.07.19.08.19.09.18.09.19.09.18.11.18.11.17.12.17.13.17.13.16.14.15.13.15.14.15.14.14.15.14.14.14.15.14.15.13.15.14.15.14.15.13.15.13.15.14.15.13.15.14.15.13.15.14.15.13.15.14.15.14.14.14.14.14.14.14.14.15.14.15.13.15.13.15.13.15.12.16.12.16.12.16.11.17.11.17.1.18.1.17.1.19.08.18.09.2.07.19.07.21-.57-.36-.56-.35-.56-.35-.55-.35-.54-.34-.54-.34-.53-.33-.52-.32-.51-.33-.51-.31-.5-.31-.48-.31-.48-.3-.47-.29-.46-.29-.45-.28-.44-.28-.43-.27-.42-.26-.4-.25-.4-.25-.38-.24-.37-.23-.71-.45-.33-.2-.63-.4-1.32-.83-.43-.26-.36-.23-.29-.19-.13-.07-1.37-.86-1.36-.85-1.35-.84-1.33-.83-1.31-.82-1.3-.8-1.27-.8-1.26-.79-1.24-.77-1.22-.76-1.2-.75-1.18-.73-1.15-.72-1.13-.71-1.11-.69-1.09-.68-1.06-.66-1.03-.64-1.01-.63-.98-.61-.96-.6-.92-.57-.9-.56-.86-.54-.84-.52-.81-.5-.77-.49-.74-.46-.71-.44-.67-.42-1.24-.77-.57-.36-.53-.33-.5-.31-.45-.28-.42-.26-.38-.23-.34-.22-.29-.18-.14-.08-.13-.09-.14-.08-.13-.08-.14-.09-.14-.08-.13-.08-.14-.08-.13-.09-.14-.08-.14-.08-.14-.08-.14-.09-.13-.08-.14-.08-.14-.08-.14-.09-.14-.08-.15-.08-.14-.08-.14-.09-.14-.08-.15-.08-.14-.09-.14-.08-.15-.09-.29-.17-.15-.08-.15-.09-.15-.09-.14-.08-.15-.09-.16-.09-.15-.09-.15-.09-.15-.09-.16-.09-.15-.09-.16-.09v9.36.06.05l-.01.05.01.06v.05.06l.01.05.01.05.01.05.01.06.01.05.01.05.02.05.02.05.01.05.02.05.03.04.02.05.02.05.03.04.02.05.03.04.03.05.03.04.04.04.03.04.03.04.04.04.04.04.04.03.04.04.04.03.04.03.04.04.05.03.04.02.05.03.05.03.04.02.05.03.38.22.38.22.39.22.38.22.38.22.38.23.38.22.38.22.38.22.38.23.38.22.38.22.37.22.38.23.38.22.38.22.38.23.38.22.38.22.38.23.38.22.38.22.38.23.38.22.37.23.38.22.38.22.38.23.38.22.76.45.38.22.38.23.38.22.37.23.38.22.38.22.38.23.38.22.38.23 1.22.72 1.2.71 1.19.7 1.18.69 1.16.69 1.15.68 1.13.67 1.11.65 1.1.65 1.08.64 1.06.63 1.04.61 1.03.61 1 .59.98.58.96.56.94.56.91.54.89.53.87.51.85.5.82.48.79.47.77.45.74.44.71.42.68.4.66.39 1.79 1.06 1.03.61.47.28.44.26.77.45.34.2.3.18.26.15.45.26.44.27.45.26.45.26.44.27.45.26.45.26.44.26.45.27.45.26.45.26.44.26.45.26.45.27.45.26.44.26.45.26.45.26.44.27.45.26.45.26.45.26.44.26.45.27.45.26.45.26.44.26.45.27.45.26.44.26.45.27.45.26.44.26.45.27.45.26.44.26.45.27.45.26.44.27.45.26.09.05.09.05.08.05.09.04.07.04.08.03.07.03.07.02.06.02.06.02.06.01.05.01h.06.04.05l.04-.01.04-.01.04-.02.04-.02.03-.02.03-.03.03-.03.03-.03.02-.04.02-.04.02-.04.02-.05.02-.06.01-.05.01-.06.02-.06.01-.07v-.07l.01-.07.01-.08v-.08-.08-.08l.01-.09v-.09-.14-.14-.14-.14-.14-.13-.14l.01-.14v-.14-.14-.14l.01-.13v-.14l.01-.14v-.14-.14l.01-.14v-.13l.01-.14v-.14l.01-.14v-.14l.01-.13v-.14l.01-.14v-.14l.01-.14.01-.27v-.14l.01-.14v-.14l.01-.14v-.14l.01-.13v-.14l.01-.14v-.14l.01-.14v-.14h.12.11l.11-.01.12-.01.11-.01.11-.01.11-.02.12-.02.11-.02.11-.03.1-.02.11-.03.11-.04.11-.03.1-.04.11-.04.1-.04.11-.04.1-.05.1-.04.1-.05.1-.06.1-.05.09-.06.1-.06.09-.06.09-.06.1-.07.09-.06.08-.07.09-.07.09-.08.08-.07.08-.08.08-.08.08-.08.08-.09.08-.08.07-.09.07-.09.25-.23.25-.24.25-.23.24-.23.24-.22.24-.23.24-.22.23-.21.22-.22.23-.21.22-.2.21-.21.21-.2.21-.19.2-.19.2-.19.2-.18.19-.18.18-.17.18-.17.17-.17.17-.16.17-.15.16-.15.15-.14.15-.14.14-.14.13-.12.26-.24.33-.31.09-.09.09-.09.09-.08.07-.07.07-.07.07-.05.05-.06.01.03.02.03.02.03.02.02.01.03.02.02.02.03.02.02.02.02.03.02.02.03.02.02.02.02.03.01.02.02.03.02.02.02.03.01.02.02.03.01.03.02.02.01.03.01.03.01.03.02h.03l.03.01.03.01.03.01.03.01h.03l.03.01h.03.03.03.03.03.03.04.03v.06.07l.01.06v.07.06l.01.07v.07.06l.01.07v.06l.01.07v.06.07l.01.07v.06.07l.01.07v.06l.01.07v.07.06l.01.07v.07.06l.01.07v.07.06l.01.07v.07.06.07l.01.07v.06.07.06.07.07.06.07.07 122.44.05.06.05.06l.01.05v.06.05.05.06.05.06.05.06l.01.05v.05.06.05.06.05l.01.05v.06.05.06.05l.01.05v.06l.01.21v.06.05.05.06l.01.05v.05.06.05.05.06 1.08l-.22.9-.16.04-.15.06-.14.06-.14.06-.14.06-.13.08-.13.07-.13.08-.12.08-.12.09-.12.08-.12.09-.11.1-.11.1-.11.09-.11.11-.1.1-.11.1-.1.11-.1.11-.1.11-.1.11-.1.11-.1.11-.09.11-.1.12-.1.11-.1.11-.09.12-.1.11-.1.11-.1.11-.09.11-.1.11-.11.11-.1.11-.1.1-.11.1-.1.11-.11.1-.03.02-.03.03-.03.02-.03.03-.02.03-.02.03-.03.03-.02.03-.02.04-.02.03-.01.03-.02.04-.01.03-.02.03-.01.04-.01.04-.01.03-.01.04v.03l-.01.04v.04.03.04.04.04.03l.01.04.01.04v.03l.01.04.01.03.02.04.01.04.02.03.01.03.02.04.02.03.02.03.02.04.03.03.01.01.01.01.01.02.01.01.01.01.01.01h.01v.01h.01v.01l.01.01h.01l.01.01.01.01.01.01.01.01.01.01.11.1.1.1.11.1.11.1.1.11.1.1.1.11.1.11.1.11.1.11.1.11.1.12.1.11.1.11.1.11.09.11.1.11.1.11.1.11.11.11.1.11.1.11.11.1.1.1.11.11.11.1.11.09.12.1.11.09.12.09.12.09.13.08.12.08.13.08.13.08.14.07.14.07.14.06.14.06.15.05.34 1.43-.25 1.48-.11-.02-.12-.02-.11-.02-.11-.02-.1-.03-.11-.03-.11-.04-.1-.03-.1-.04-.11-.05-.1-.04-.1-.05-.09-.05-.1-.06-.09-.05-.1-.06-.09-.06-.09-.06-.09-.07-.08-.07-.08-.07-.09-.07-.08-.08-.07-.08-.08-.08-.07-.08-.07-.08-.07-.09-.07-.09-.06-.09-.06-.09-.06-.09-.06-.1-.05-.09-.06-.1-.04-.1-.05-.11-.04-.1-.04-.11-.04-.1-.06-.14-.06-.13-.07-.13-.07-.12-.08-.12-.08-.11-.09-.12-.09-.1-.09-.11-.1-.1-.1-.09-.1-.09-.11-.09-.11-.08-.11-.08-.12-.08-.11-.06-.12-.07-.13-.06-.12-.05-.13-.05-.13-.05-.13-.04-.13-.04-.13-.03-.14-.02-.14-.02-.13-.02-.14-.01h-.14-.14l-.14.01-.14.01-.14.02-.13.02-.14.03-.14.04-.14.04-.14.05-.14.05-.03.01-.03.02-.04.01-.03.02-.03.01-.04.02-.03.01-.03.02-.03.02-.04.02-.03.01-.03.02-.03.02-.03.02-.04.02-.03.01-.03.02-.03.02-.03.02-.03.02-.03.02-.03.03-.03.02-.03.02-.03.02-.03.02-.03.03-.02.02-.03.02-.03.02-.03.03-.03.02-.02.03-.03.02-.03.03-.02.02-.03.03-.03.02-.02.03-.03.02-.07.06-.07.05-.07.06-.07.06-.07.06-.07.06-.06.07-.07.06-.06.07-.06.06-.07.07-.06.06-.06.07-.06.07-.07.06-.06.07-.06.07-.06.06-.06.07-.07.07-.06.06-.06.06-.07.07-.06.06-.07.06-.07.06-.07.05-.07.06-.07.05-.07.06-.08.05-.07.04-.08.05-.08.04-.08.04-.09.04-.09.03-.08.04-.1.02-.09.03v-.08-.08l-.01-.08v-.07-.08-.08l-.01-.08v-.08-.08l-.01-.07v-.08-.08l-.01-.16v-.15l-.01-.08v-.08-.08-.08l-.01-.08v-.07-.08-.08l-.01-.08v-.08-.08-.08l-.01-.07v-.08-.08-.08-.08-.08l-.01-.07v-.08-.08-.08-.08-.08-.28-.28-.26-.25l-.01-.23v-.22l-.01-.21-.01-.2-.02-.18-.01-.18-.02-.16-.03-.15-.03-.15-.03-.13-.04-.13-.05-.11-.05-.11-.06-.1-.06-.09-.07-.09-.08-.08-.09-.07-.09-.07-.11-.06-.11-.06-.12-.06-.14-.05-.14-.04-.15-.05-.17-.04-.17-.04-.19-.03-.2-.04-.21-.03-.22-.04-.24-.03-.25-.04-.27-.03-.28-.04-.29-.04-1.11-.14-1.11-.15-1.1-.14-1.11-.14-1.11-.15-1.11-.14-1.11-.15-1.1-.14-1.11-.15-1.11-.14-1.11-.15-1.11-.14-1.1-.15-1.11-.14-1.11-.15-1.11-.14-1.11-.15-1.1-.14-1.11-.15-1.11-.14-1.11-.15-1.11-.14-1.11-.14-1.1-.15-1.11-.14-1.11-.15-1.11-.14-1.11-.14-1.11-.14-1.1-.15-1.11-.14-1.11-.14-1.11-.14-1.11-.14-1.11-.15-1.11-.14-1.11-.14-1.1-.14-1.11-.14-1.11-.13-.12-.02-.12-.02-.11-.02-.11-.02-.1-.02-.1-.03-.09-.02-.09-.03-.08-.03-.08-.03-.08-.03-.07-.04-.06-.04-.07-.03-.06-.05-.05-.04-.05-.04-.05-.05-.05-.05-.04-.05-.04-.06-.03-.05-.03-.06-.03-.06-.03-.07-.02-.06-.02-.07-.02-.07-.02-.07-.01-.08-.02-.08v-.08l-.01-.09-.01-.08v-.09-.1-.09-.1-.1-.11l.01-.17.01-.18v-.17l.01-.18v-.17l.01-.18v-.18l.01-.17v-.18l.01-.17v-.18-.17l.01-.18v-.17-.18-.17-.18l.01-.18v-.17-.18-.17-.18-.17l-.01-.18v-.17-.18-.17-.18l-.01-.17v-.18-.17l-.01-.18v-.18l-.01-.17v-.18l-.01-.17-.01-.18v-.17l-.01-.18-.01-.17v-.11l-.01-.1v-.11-.09l.01-.1v-.09l.01-.08.01-.09.01-.08.01-.07.01-.07.02-.07.02-.07.02-.06.03-.06.03-.05.03-.05.03-.05.04-.04.04-.04.04-.04.04-.04.05-.03.06-.03.05-.02.06-.02.06-.02.07-.02.07-.01.08-.01.08-.01h.08.08.1.09l.1.01.1.01.11.01.12.02.11.02.68.11.67.1.67.11.68.11.67.11.68.1.67.11.68.11.67.1.67.11.68.1.67.11.68.1.67.11.68.1.67.11.68.1.67.1.68.11.67.1.68.1.67.11.68.1.67.1.67.1.68.11.67.1.68.1.67.11.68.1.67.1.68.1.67.11.68.1.67.1.68.11.67.1.68.1.67.11.68.1.49.08.49.07.49.08.49.07.48.08.49.08.49.07.49.08.49.07.49.08.49.07.49.08.49.08.49.07.49.08.49.08.49.07.48.08.49.07.49.08.49.08.49.07.49.08.49.08.49.08.49.07.49.08.49.08.48.08.49.08.49.07.49.08.49.08.49.08.49.08.49.08.49.08.48.08.49.08.49.08.1.01.1.01.09.02.09.01h.09l.08.01h.09.07.08l.07-.01h.07l.06-.01.07-.02.06-.01.06-.02.05-.02.05-.02.05-.03.05-.03.04-.03.04-.04.04-.04.04-.04.03-.05.04-.05.03-.05.02-.06.03-.06.02-.06.03-.07.02-.07.01-.07.02-.08.01-.09.01-.08.01-.09.01-.1.01-.1.01-.1v-.11l.01-.43.01-.41.01-.39.01-.37v-.35l.01-.33-.01-.32v-.29l-.01-.28-.02-.26-.02-.25-.03-.23-.03-.22-.05-.21-.05-.19-.05-.18-.07-.17-.08-.15-.09-.15-.09-.14-.11-.13-.12-.12-.13-.12-.15-.1-.16-.1-.17-.1-.18-.09-.21-.09-.21-.09-.23-.08-.25-.08-.27-.08-.28-.08-.3-.08-.32-.08-.34-.08-.36-.08-.37-.09-.4-.09-.42-.09-.98-.22-.96-.22-.96-.22-.94-.21-.93-.21-.92-.21-.9-.2-.9-.21-.87-.2-.87-.19-.85-.2-.83-.19-.82-.19-.8-.18-.79-.18-.77-.18-.75-.17-.73-.17-.72-.16-.69-.16-.68-.16-.65-.15-.64-.14-.61-.14-.59-.14-.57-.13-.55-.13-.53-.12-.5-.12-.47-.11-.46-.1-.42-.1-.41-.09-.37-.09-.35-.08-.33-.07-.29-.07-.27-.06-.24-.06-.21-.05-.07-.02-.08-.01-.07-.02-.08-.02-.07-.02-.08-.02-.07-.02-.08-.02-.07-.03-.08-.02-.07-.02-.08-.02-.07-.03-.07-.02-.08-.02-.07-.03-.08-.02-.07-.03-.07-.02-.08-.03-.07-.02-.08-.03-.07-.02-.07-.03-.08-.02-.07-.03-.07-.02-.08-.03-.07-.02-.08-.03-.07-.03-.07-.02-.08-.03-.07-.02-.08-.03-.07-.02-.07-.03-.08-.02-.07-.02-.08-.03-.09-.09-.09-.1-.1-.1-.08-.1-.09-.11-.09-.1-.08-.11-.08-.11-.08-.11-.08-.11-.08-.11-.07-.11-.08-.12-.07-.11-.08-.12-.07-.11-.07-.12-.08-.11-.07-.12-.08-.11-.07-.12-.08-.11-.07-.12-.08-.11-.08-.11-.07-.11-.08-.12-.09-.1-.08-.11-.08-.11-.09-.11-.09-.1-.09-.1-.09-.1-.1-.1-.1-.09-.1-.1-.11-.09-.1-.09-.12-.08-.09.09-.08.1-.06.09-.05.1-.04.09-.03.09-.02.09-.01.09v.09.09l.02.09.02.09.02.09.04.09.03.09.04.09.05.09.04.09.05.08.05.09.05.09.05.08.04.09.05.09.04.09.04.08.03.09.03.09.02.08.02.09.01.09v.08l-.01.09-.01.09-.03.08-.04.09-.04.09-.06.09-.08.08-.09.09-.18-.01-.19-.02-.18-.01-.19-.02-.18-.02-.19-.02-.18-.03-.19-.02-.18-.02-.19-.03-.18-.03-.19-.03-.18-.03-.18-.03-.19-.03-.18-.04-.18-.03-.19-.04-.18-.04-.18-.03-.18-.05-.18-.04-.18-.04-.18-.04-.18-.05-.18-.05-.18-.05-.18-.05-.18-.05-.18-.05-.18-.05-.18-.06-.18-.05-.17-.06-.18-.06-.18-.06-.17-.06-.18-.06-.17-.07-.18-.06-.04-.11-.05-.1-.05-.09-.05-.08-.06-.08-.05-.07-.06-.06-.06-.06-.06-.04-.07-.05-.06-.03-.07-.04-.06-.02-.07-.02-.07-.02-.07-.01-.08-.01-.07-.01h-.07-.08l-.07.01h-.08l-.07.01-.08.01-.08.01-.08.01-.07.02-.08.01-.08.01-.08.02-.07.01-.08.01-.08.01-.08.01-.07.01-.08.01h-.07-.08-.07l-.08-.01-.1.03-.04-.07-.03-.07-.03-.07-.03-.07-.03-.07-.03-.07-.06-.14-.02-.07-.03-.07-.03-.07-.04-.07-.03-.07-.03-.06-.03-.07-.04-.07-.03-.06-.04-.07-.04-.06-.04-.06-.04-.06-.04-.06-.04-.05-.05-.05-.05-.06-.05-.05-.06-.04-.05-.05-.06-.04-.07-.04-.06-.04-.07-.03-.07-.03-.08-.03-.07-.02-.09-.02-.08-.02-.09-.01-.1-.01-.09-.01v-.31-.3-.3-.3-.29l-.01-.29v-.29-.28-.28-.27-.27-.26-.26-.25-.25-.24-.24-.23-.22-.22-.21l-.01-.21v-.2-.2-.18-.18-.17-.17-.16-.55-.12-.11-.1-.1-.08l-.01-.08v-.06l.11.01.1.03.1.02.09.03.1.03.09.03.1.04.09.04.09.04.08.04.09.05.09.04.08.05.08.06.09.05.08.05.08.06.08.06.08.05.08.06.08.06.08.06.08.06.08.06.08.06.07.06.08.06.08.06.08.06.08.06.08.05.08.06.08.05.09.06.08.05.08.05.09.05.09.05.08.04.09.04.01.08v.06l.01.07.02.06.01.05.02.06.01.05.02.05.03.04.02.04.03.04.03.04.02.03.04.04.03.03.03.02.04.03.04.02.03.02.04.02.04.02.05.01.04.02.04.01.05.01.04.01.05.01.05.01h.05l.05.01h.05l.05.01h.05.05.05.05.05l.05.01h.06.05l.01.04v.05l.01.05v.05.05.06.05.05.05.06.05l-.01.05v.06.05.05l-.01.05v.06.05l.01.05v.05.05l.01.05.01.05.01.04.01.05.02.05.02.04.02.04.02.05.03.04.03.03.04.04.04.04.04.03.05.03.05.03.05.03.06.03.07.02.07.02.04.01.03.01h.03.03l.03.01h.03l.03-.01h.03l.03-.01h.03l.02-.01.03-.01.02-.01.03-.01.02-.02.02-.01.02-.02.03-.02.02-.01.01-.02.02-.02.02-.03.02-.02.01-.02.02-.03.01-.02.02-.03.01-.02.01-.03.01-.03.01-.03.01-.03.01-.03.01-.03.01-.03v-.03l.01-.03v-.03l.01-.04v-.03-.08l.01-.07v-.07l-.01-.06v-.07l-.01-.06-.01-.05-.02-.06-.01-.05-.02-.05-.03-.04-.02-.04-.02-.04-.03-.04-.03-.03-.03-.03-.04-.03-.03-.03-.04-.03-.04-.02-.04-.02-.04-.02-.05-.02-.04-.01-.05-.02-.05-.01-.04-.01-.05-.01-.05-.01-.06-.01h-.05l-.05-.01-.06-.01h-.05-.05l-.06-.01h-.06-.05-.06-.06v-.07l-.01-.07-.01-.06-.01-.06-.02-.06-.01-.05-.02-.05-.02-.05-.03-.05-.02-.04-.03-.04-.02-.03-.03-.04-.03-.03-.04-.03-.03-.03-.04-.02-.03-.03-.04-.02-.04-.02-.04-.01-.05-.02-.04-.01-.04-.01-.05-.02h-.04l-.05-.01-.05-.01-.05-.01h-.05l-.05-.01h-.05-.05-.05-.05-.05-.05-.06-.05-.05v-.08-.07-.07l.01-.07.01-.06.02-.05.02-.05.03-.05.03-.05.03-.04.03-.04.04-.04.04-.03.04-.03.04-.03.05-.03.04-.03.05-.03.05-.02.05-.02.05-.03.05-.02.06-.02.05-.02.05-.03.05-.02.05-.02.05-.03.05-.02.05-.03.05-.02.04-.03.05-.03.04-.04.04-.03.03-.04.04-.04.03-.04.02-.05.03-.04.52.08.52.09.51.09.52.1.52.1.51.1.52.11.51.1.51.12.52.11.51.12.51.12.51.12.51.12.51.13.51.13.51.13.5.13.51.13.51.13.51.14.5.14.51.13.51.14.5.14.51.13.51.14.5.14.51.14.51.14.5.13.51.14.51.13.5.14.51.13.51.14.51.13.51.13.51.13.51.12.58.15.59.14.58.15.59.14.58.15.59.15.59.14.58.15.59.15.58.15.59.15.58.15.59.15.58.15.59.15.58.15.58.15.59.15.58.16.59.15.58.15.59.15.58.16.58.15.59.15.58.16.59.15.58.15.58.16.59.15.58.15.59.16.58.15.59.16.58.15.58.15.59.16.58.15.59.15.58.16.08.02.08.01.07.02.07.01.07.01.07.01.07.01h.06l.06.01h.06l.06-.01h.05l.06-.01.05-.01.04-.01.05-.01.04-.02.04-.02.04-.02.04-.03.03-.03.03-.03.03-.03.03-.03.03-.04.02-.04.02-.05.02-.04.02-.05.01-.05.01-.06.01-.06.01-.06.01-.06v-.07-.07-.07-.08-.08l-.01-.08v-.01-.02-.02l-.01-.03v-.01-.02-.02-.01-.02l.01-.02v-.02-.02-.02l.02-.45.02-.42.02-.41.02-.38.01-.37.01-.34v-.33-.31-.29l-.01-.28-.02-.26-.03-.25-.03-.23-.04-.22-.05-.21-.06-.2-.07-.19-.08-.17-.09-.17-.1-.16-.11-.15-.12-.14-.14-.14-.15-.13-.17-.12-.18-.13-.2-.11-.21-.12-.22-.11-.25-.12-.26-.11-.28-.11-.3-.12-.32-.11-.33-.12-.36-.12-.38-.13-.4-.13-.42-.13-.44-.14-1.52-.49-1.52-.49-1.49-.47-1.48-.47-1.46-.47-1.44-.46-1.42-.45-1.4-.44-1.37-.44-1.36-.43-1.33-.42-1.31-.42-1.29-.4-1.25-.4-1.24-.39-1.2-.38-1.18-.37-1.15-.36-1.13-.36-1.09-.34-1.06-.33-1.03-.33-.99-.31-.97-.3-.93-.3-.89-.28-.86-.27-.83-.26-.79-.24-.75-.24-.71-.22-.67-.21-.63-.2-.59-.18-.55-.18-.51-.16-.46-.14-.42-.13-.38-.12-.33-.11-.25-.08-.24-.07-.23-.08-.22-.07-.2-.06-.2-.07-.18-.06-.17-.06-.16-.07-.15-.06-.14-.06-.14-.06-.12-.06-.12-.07-.1-.07-.1-.07-.09-.07-.08-.08-.08-.08-.07-.08-.06-.09-.06-.09-.05-.1-.05-.11-.04-.11-.03-.12-.03-.13-.03-.13-.02-.15-.02-.15-.02-.16-.01-.17-.01-.19-.01-.19v-.2-.22l-.01-.22v-.24-.26-.26-.14-.14-.14-.14-.14l.01-.14v-.14-.14-.14-.14-.14l.01-.13v-.14-.14-.14-.14l.01-.14v-.14-.14-.14-.14-.14-.14-.14-.13-.14-.14-.14-.14l-.01-.14v-.14-.14l-.01-.14v-.14l-.01-.13v-.14l-.01-.14-.01-.14v-.14l-.01-.14-.01-.12v-.12l-.01-.11v-.11l.01-.1v-.1l.01-.09.01-.09.02-.08.01-.07.02-.08.02-.06.03-.06.02-.06.03-.05.04-.05.03-.04.04-.04.04-.03.05-.03.05-.03.05-.02.05-.02.06-.01.06-.01.06-.01h.07.07.07l.08.01.08.01.08.02.08.02.09.02.1.02.09.03.1.03.11.03.1.03.11.04.78.27.78.27.77.27.78.26.78.27.78.27.77.26.78.27.78.27.77.26.78.27.78.26.78.27.77.27.78.26.78.27.77.26.78.27.78.26.78.26.77.27.78.26.78.27.77.26.78.27.78.26.78.26.77.27.78.26.78.27.77.26.78.26.78.27.78.26.77.27.78.26.78.26.77.27.78.26.78.27.39.13.39.13.39.13.38.13.39.13.39.13.39.14.39.13.39.13.39.13.39.13.39.13.39.13.39.13.38.13.39.13.39.13.39.13.39.13.39.13.39.13.39.14.39.13.39.13.38.13.39.13.39.13.39.14.39.13.39.13.39.14.38.13.39.13.39.14.39.13.38.14.39.13.39.14.39.14.38.13.1.04.09.03.09.03.09.02.08.03.08.02.08.02.08.02.07.01.07.01.07.01h.06l.07.01h.06l.05-.01.06-.01.05-.01.04-.01.05-.02.04-.02.04-.02.04-.03.04-.03.03-.04.03-.03.02-.05.03-.05.02-.05.02-.05.02-.06.01-.07.01-.07.01-.07v-.08l.01-.08v-.09-.09l-.01-.1v-.1l-.01-.11-.01-.02v-.02-.03-.02-.03-.02-.02l-.01-.03v-.02-.03-.02-.02-.03-.02-.03-.02-.03-.02-.02-.03l.01-.02v-.03-.02-.05-.07-.05-.02-.03-.02-.03-.02l.01-.03v-.02-.02-.03-.02-.42-.39l-.01-.37v-.36l-.01-.33v-.32l-.02-.3-.01-.28-.02-.27-.02-.25-.03-.24-.03-.23-.04-.21-.05-.2-.05-.19-.06-.17-.07-.17-.08-.16-.09-.15-.09-.15-.11-.13-.11-.13-.13-.13-.13-.12-.15-.12-.17-.11-.17-.11-.19-.11-.2-.11-.21-.11-.23-.11-.25-.11-.26-.12-.28-.11-.29-.12-.31-.13-.33-.13-.34-.13-.75-.3-.66-.26-.66-.26-.65-.26-.66-.26-.66-.26-.65-.26-.66-.26-.66-.27-.65-.26-.66-.26-.65-.27-.66-.26-.65-.27-.66-.26-.65-.27-.66-.26-.65-.27-.66-.26-.65-.27-.65-.27-.66-.26-.65-.27-.66-.27-.65-.26-.66-.27-.65-.27-.65-.26-.66-.27-.65-.27-.65-.26-.66-.27-.65-.27-.66-.26-.65-.27-.66-.27-.65-.26-.65-.27-.66-.27-.65-.26-.66-.27-.43-.17-.43-.18-.43-.17-.43-.18-.43-.17-.43-.18-.43-.17-.43-.17-.43-.18-.44-.17-.43-.18-.43-.17-.43-.18-.43-.17-.43-.18-.43-.17-.43-.17-.43-.18-.43-.17-.43-.18-.44-.17-.43-.17-.43-.18-.43-.17-.43-.18-.43-.17-.43-.17-.43-.18-.44-.17-.43-.17-.43-.17-.43-.18-.43-.17-.43-.17-.44-.17-.43-.17-.43-.18-.43-.17-.43-.17-.44-.17-.06-.02-.05-.03-.06-.02-.06-.02-.06-.02-.05-.02-.06-.02-.06-.03-.05-.02-.05-.02-.06-.02-.05-.03-.05-.02-.05-.02-.05-.03-.04-.03-.05-.02-.05-.03-.04-.03-.04-.03-.04-.04-.04-.03-.04-.04-.03-.03-.04-.04-.03-.04-.03-.05-.03-.04-.02-.05-.03-.05-.02-.05-.02-.06-.02-.06-.01-.06-.01-.06-.01-.07-.01-.07-.01-.07v-.08-.08-.24-.25l.01-.25v-.24-.25-.25-.24-.25-.25-.25-.25l.01-.24v-.25-.25-.25l-.01-.25v-.25-.25-.26-.25-.25-.25-.26-.25-.26-.25-.26-.26l-.01-.26v-.25-.26-.27-.26-.26-.26-.27-.26-.27-.27-.27l50.19 21.56v-7.29l-.01-.1v-.1l-.01-.09-.02-.09-.02-.09-.02-.08-.03-.07-.03-.08-.04-.07-.04-.07-.04-.06-.04-.06-.05-.06-.05-.06-.05-.05-.06-.05-.05-.05-.06-.05-.07-.04-.06-.04-.06-.04-.07-.04-.07-.04-.07-.04-.06-.03-.07-.03-.08-.04-.07-.03-.07-.03-.07-.03-.07-.03-.08-.03-.07-.03-.07-.03-.07-.03-.07-.02-.07-.03-.07-.03-.06-.03-.07-.04-.51-.25-.51-.24-.51-.25-.51-.25-.51-.25-.51-.25-.51-.24-.51-.25-.51-.25-.51-.24-.51-.25-.51-.25-.52-.24-.51-.25-.51-.24-.51-.25-.51-.25-.51-.24-.51-.25-.52-.24-.51-.25-.51-.24-.51-.25-.51-.24-.51-.25-.52-.24-.51-.25-.51-.25-.51-.24-.51-.25-.51-.24-.51-.25-.52-.25-.51-.24-.51-.25-.51-.25-.51-.24-.51-.25-.51-.25-.51-.25-.65-.31-.65-.32-.65-.32-.65-.32-.66-.32-.65-.31-.65-.32-.65-.32-.65-.32-.65-.32-.65-.32-.65-.32-.65-.32-.65-.32-.65-.31-.65-.32-.65-.32-.65-.32-.65-.32-.65-.32-.65-.32-.65-.32-.65-.32-.65-.32-.65-.32-.65-.31-.65-.32-.65-.32-.65-.32-.65-.32-.65-.32-.66-.31-.65-.32-.65-.32-.65-.31-.65-.32-.65-.32-.65-.31-.66-.32-.65-.31-.08-.03-.08-.03-.08-.03-.07-.04-.08-.03-.07-.04-.07-.05-.07-.04-.07-.05-.06-.05-.06-.05-.06-.05-.06-.06-.06-.05-.06-.06-.05-.06-.05-.07-.05-.06-.05-.07-.04-.06-.04-.07-.04-.07-.04-.07-.03-.08-.03-.07-.03-.08-.03-.07-.03-.08-.02-.08-.02-.08-.01-.08-.02-.08-.01-.08v-.08l-.01-.08v-.09-.08-.08l.01-.09.01-.08.01-.2.01-.19.01-.2v-.19l.01-.19v-.2l.01-.19v-.19l.01-.2v-.19-.19l.01-.2v-.19-.19-.2-.19-.19-.2-.19-.19-.2-.19-.19-.19-.2l-.01-.19v-.19-.2l-.01-.19v-.19-.19l-.01-.2v-.19l-.01-.19v-.2l-.01-.19v-.19l-.01-.2v-.19l-.01-.19v-.09-.09-.09-.08l.01-.08v-.07l.01-.07.01-.07.01-.07.01-.06.01-.06.02-.05.01-.05.02-.05.02-.04.03-.05.02-.03.03-.04.03-.03.03-.02.03-.03.04-.02.04-.01.04-.02.04-.01h.05.05.05.06l.06.01.06.01.06.02.07.02.07.02.07.03.08.03.08.04.08.03.09.05.09.04 1.08.56 1.07.55 1.06.54 1.05.54 1.03.53 1.02.52 1.01.51.99.51.97.5.96.49.95.48.93.48.91.46.89.46.87.44.85.44.84.43.81.41.8.41.77.39.75.38.73.38.71.36.68.34.66.34.63.32.61.31.59.3.55.28.54.27.5.26.47.24.45.23.42.21.39.2.36.18.33.17.3.15.26.14.24.12.45.23.46.23.46.24.46.23.45.23.46.23.46.24.46.23.45.23.46.23.46.23.46.24.45.23.92.46.46.24.45.23.46.23.46.23.46.23.45.24.46.23.46.23.46.23.45.24.46.23.46.23.45.23.46.24.46.23.46.23.45.24.46.23.46.23.45.24.46.23.46.23.45.24.46.23.46.24.07.03.07.04.07.03.07.03.06.03.07.03.06.03.06.02.06.02.06.01.05.02.05.01.06.01.04.01h.05.05.04l.04-.01.04-.01.04-.01.03-.02.04-.02.03-.02.03-.02.03-.03.02-.04.03-.04.02-.04.02-.04.01-.05.02-.06.01-.05.01-.07.01-.06.01-.07v-.08-.08-.08-.09-.1-.01-.02-.01l-.01-.02v-.02-.02-.03-.01-.01-.02l.01-.02v-.02-.02-.01l.07-.29.06-.28.05-.29.04-.29.03-.29.01-.29.01-.28-.01-.29-.02-.28-.03-.28-.04-.28-.05-.27-.06-.28-.07-.27-.08-.27-.09-.26-.1-.26-.11-.25-.12-.26-.12-.24-.14-.24-.15-.24-.15-.23-.17-.22-.17-.22-.18-.22-.19-.2-.2-.2-.2-.19-.21-.19-.22-.17-.23-.17-.24-.16-.24-.15-.25-.15-.25-.13-.27-.12-.27-.12-.27-.1-.28-.1-1.15-.52-1.14-.52-1.14-.52-1.14-.53-1.14-.53-1.13-.53-1.14-.53-1.14-.53-1.13-.54-1.13-.53-1.14-.54-1.13-.54-1.13-.54-1.14-.54-1.13-.55-1.13-.54-1.13-.55-1.13-.54-1.13-.55-1.12-.55-1.13-.55-1.13-.55-1.13-.55-1.13-.55-1.12-.55-1.13-.55-1.13-.56-1.13-.55-1.12-.55-1.13-.55-1.13-.56-1.12-.55-1.13-.55-1.13-.55-1.13-.55-1.12-.56-1.13-.55-1.13-.55-1.13-.55-1.13-.55-.65-.31-.65-.32-.65-.32-.66-.31-.65-.32-.65-.32-.65-.32-.65-.32-.65-.32-.65-.31-.65-.32-.65-.32-.65-.32-.65-.32-.66-.32-.65-.32-.65-.31-.65-.32-.65-.32-.65-.32-.65-.32-.65-.32-.65-.32-.65-.31-.65-.32-.66-.32-.65-.32-.65-.31-.65-.32-.65-.32-.65-.31-.66-.32-.65-.31-.65-.32-.65-.31-.66-.32-.65-.31-.65-.32-.66-.31-.65-.31-.11-.04-.1-.05-.1-.05-.1-.05-.1-.06-.1-.05-.09-.07-.09-.06-.09-.07-.08-.07-.08-.07-.08-.08-.08-.07-.07-.08-.08-.09-.06-.08-.07-.09-.06-.09-.06-.09-.06-.09-.05-.1-.05-.09-.05-.1-.04-.1-.04-.1-.04-.11-.03-.1-.03-.11-.03-.1-.02-.11-.02-.11-.01-.11-.02-.11v-.11l-.01-.11v-.11l.01-.12v-.11l.01-.11.02-.12.01-.42.01-.42v-.43l.01-.42v-.42l.01-.43v-.42-.43-.42-.42-.43-.42-.42-.43-.42-.42-.43-.42-.42-.43-.42-.43l-.01-.42v-.42-.43-.42-.42-.43-.42-.42-.43l.01-.42v-.42-.43l.01-.42v-.42l.01-.43v-.42l.01-.43.01-.42v-.14-.13-.13-.12l-.01-.12v-.11l-.01-.11-.01-.1-.02-.09-.01-.1-.02-.08-.02-.09-.03-.07-.02-.08-.03-.07-.04-.06-.03-.06-.04-.05-.04-.05-.05-.05-.05-.04-.05-.03-.06-.03-.07-.03-.06-.02-.07-.02-.08-.02-.08-.01h-.08-.09-.09l-.1.01-.11.01-.1.01-.12.02-.12.02-.12.03-.13.03-.14.03-.14.04-.79.22-.78.21-.79.21-.79.22-.78.21-.79.21-.79.22-.78.21-.79.21-.79.21-.79.21-.78.21-.79.21-.79.21-.79.21-.78.21-.79.21-.79.21-.79.21-.79.21-.78.21-.79.21-.79.21-.79.2-.79.21-.79.21-.78.21-.79.2-.79.21-.79.21-.79.21-.79.21-.79.2-.79.21-.79.21-.78.21-.79.2-.79.21-.79.21-.79.21-.06.01-.06.02-.05.01-.06.02-.06.01-.06.01-.05.02-.06.01-.06.02-.06.01-.06.01-.06.02-.06.01-.06.01-.06.02-.06.01-.06.01-.06.02-.06.01-.06.01-.06.02-.06.01-.07.01-.06.02-.06.01-.07.02-.19.04-.07.01-.07.02-.07.01-.06.01-.07.02-.07.01-.07.02-.07.01-.07.02-.08.02-.07.01v-45.4l-.03-.22-.03-.23-.01-.22-.01-.23.01-.22.01-.22.02-.22.03-.22.04-.21.05-.21.05-.21.06-.21.07-.2.08-.2.09-.2.09-.19.1-.19.1-.18.12-.18.12-.18.13-.17.13-.17.14-.16.15-.15.15-.15.16-.15.16-.14.17-.13.17-.12.18-.12.19-.12.19-.1.19-.1.2-.09.21-.08.21-.08.21-.07.22-.06.22-.05.22-.04h.01l.03-.01h.03.02l.02-.01h.03l.03-.01h.03.02.03l.03-.01h.02l.93-.28.93-.28.93-.28.93-.28.93-.28.93-.28.93-.28.93-.28.93-.28.93-.28.93-.28.93-.28.93-.29.93-.28.93-.28.93-.28.93-.28.93-.28.93-.28.93-.28.93-.28.93-.28.93-.28.93-.29.93-.28.93-.28.93-.28.93-.29.92-.28.93-.28.93-.29.93-.28.93-.28.93-.29.93-.28.93-.29.92-.29.93-.28.93-.29.93-.29.18-.06.19-.05.18-.06.19-.04.19-.04.18-.04.19-.03.19-.03.19-.02.19-.02.19-.01.19-.01h.19.19zm22.53 173.68-.1.06-.09.05.08.06.09.07.08.05.09.03.1-.02.09-.05.1-.06.11-.06-.1-.05-.09-.06-.09-.06-.09-.02-.09.02zm7.08-3.6-.22.04-.21.03-.6.24-.38.39-.22.51-.1.59.02.22.11.19.16.13.21.07h.02.03.02.02l.5-.17.19-.38.08-.46.15-.4.2-.16.26-.14.21-.28.05-.52-.26.05zm-2.59.2-.41-.23.19.13zm-25.01-112.91-.06.02-.05.02-.06.03-.05.03-.04.04-.04.05-.04.05-.03.06-.03.07-.02.08-.02.08-.02.09-.02.09-.01.11-.01.11v.11l-.01.13v.13l.01.13v.15l.02.16.01.17.01.16.01.16.01.17.01.16.01.16.01.17.01.16v.16l.01.17v.16.16l.01.17v.16.16.17.16.16l-.01.17v.16l-.01.16v.17l-.01.16-.01.16v.17l-.01.16-.01.16-.01.17-.02.16-.01.16-.01.17-.02.16-.01.16-.03.21-.01.19-.01.19v.19.17l.01.18.02.16.03.16.03.16.04.15.04.15.05.14.06.14.06.13.07.13.07.13.09.12.08.12.1.11.09.12.11.11.11.1.11.11.12.1.12.1.13.1.14.09.14.1.14.09.15.09.15.09.16.09.16.09.17.09.94.5.94.49.95.5.94.5.94.49.94.5.94.5.94.5.94.5.94.5.94.49.94.5.94.5.93.5.94.5.94.5.94.51.94.5.94.5.94.5.94.5.94.5.93.5.94.5.94.5.94.5.94.5.94.51.94.5.94.5.94.5.94.5.94.5.94.5 1.33.7 1.31.7 1.29.69 1.27.67 1.25.67 1.24.65 1.21.65 1.19.63 1.17.62 1.14.61 1.12.59 1.1.58 1.06.56 1.04.55 1.01.54.98.52.95.5.92.49.89.47.85.45.82.43.79.42.74.39.71.38.68.36.63.33.6.32.55.29.51.27.47.25.43.22.38.21.34.17.29.16.28.14.26.14.24.12.23.12.22.1.2.1.19.08.17.07.16.05.15.05.14.03.13.02.11.01.11-.01.09-.03.09-.04.07-.05.07-.07.06-.09.05-.1.05-.12.04-.13.03-.16.03-.17.02-.19.02-.21.01-.23.01-.25v-.27l.01-.28v-.31-.33-.36l-.01-.37.08-.23.06-.23.04-.22.04-.21.02-.2v-.21-.19l-.02-.19-.03-.18-.04-.18-.05-.17-.06-.17-.08-.17-.08-.16-.09-.15-.1-.16-.11-.14-.12-.15-.13-.14-.13-.14-.14-.13-.15-.13-.16-.13-.16-.13-.17-.13-.17-.12-.18-.12-.18-.12-.19-.12-.19-.12-.2-.11-.2-.12-.2-.11-.2-.12-.5-.27-.49-.28-.5-.28-.49-.28-.49-.28-.5-.28-.49-.28-.49-.28-.5-.28-.49-.28-.49-.28-.49-.29-.49-.28-.5-.28-.49-.29-.49-.28-.49-.29-.49-.28-.49-.29-.49-.28-.49-.29-.49-.28-.5-.29-.49-.28-.49-.29-.49-.28-.49-.29-.49-.28-.49-.29-.49-.28-.5-.28-.49-.29-.49-.28-.49-.28-1.27-.73-1.25-.71-1.23-.71-1.22-.7-1.19-.68-1.18-.68-1.16-.66-1.14-.65-1.11-.64-1.09-.62-1.07-.61-1.05-.6-1.01-.58-1-.57-.96-.55-.94-.54-.9-.51-.88-.5-.85-.49-.81-.46-.78-.45-.75-.43-.72-.4-.67-.39-.65-.37-.6-.34-.57-.33-.53-.3-.49-.28-.45-.26-.4-.23-.37-.21-.32-.18-.28-.16-.51-.29-.51-.29-.51-.29-.51-.3-.51-.29-.52-.29-.51-.29-.51-.29-.51-.29-.51-.29-1.02-.59-.52-.29-.51-.29-.51-.29-.51-.29-.51-.29-.51-.29-.51-.3-.51-.29-.52-.29-.51-.29-.51-.29-.51-.3-.51-.29-.51-.29-.51-.29-.51-.3-.51-.29-.51-.29-.51-.3-.51-.29-.51-.29-.51-.3-.13-.07-.12-.07-.12-.06-.11-.05-.11-.05-.1-.05-.1-.03-.09-.03-.09-.03-.08-.01-.08-.01-.07-.01h-.07zm-12.22-23.07-.37.1-1.55.46-1.55.44-1.56.45-1.55.44-1.55.43-1.56.43-1.55.43-1.56.43-1.55.43-1.56.43-1.55.44-1.56.43-1.55.43-.82.23-.7.21-.58.2-.47.21-.38.22-.3.26-.22.3-.15.36-.11.44-.06.53-.04.64-.01.75v.89l.01.17.01.16.01.17v.17.17.17.16.17.17l-.01.16v.17l-.01.17-.01.16-.06.47-.01.4.02.35.06.29.11.24.14.18.18.13.23.08.27.04.31-.01.36-.05.41-.09.45-.13 1.33-.4 1.34-.39 1.33-.39 1.34-.38 1.34-.38 1.34-.37 1.34-.37 1.34-.38 1.34-.37 1.34-.38 1.34-.38 1.33-.39 1.34-.39.48-.13.51-.1.52-.08.53-.07.53-.08.52-.08.51-.09.48-.13.46-.15.41-.2.37-.24.32-.31.25-.37.18-.41.13-.43.09-.46.05-.47.01-.5v-.5l-.03-.52-.04-.52-.03-.53-.04-.53-.03-.52v-.52l.01-.5.02-.37-.01-.31-.03-.28-.05-.23-.08-.2-.11-.15-.13-.11-.18-.08-.21-.04h-.24l-.29.04zm.08-20.44-.38.08-.42.13-1.25.4-1.25.39-1.25.39-1.25.38-1.25.37-1.26.38-1.25.37-1.26.37-1.25.37-1.26.37-1.25.38-1.26.38-1.25.38-1.25.39-.45.12-.47.1-.48.08-.5.07-.49.07-.5.08-.48.08-.46.1-.44.13-.41.16-.38.2-.33.24-.28.3-.23.36-.17.4-.12.42-.09.44-.06.46-.02.47-.01.48.02.5.03.5.03.5.04.5.03.51.03.5.01.49-.01.49-.01.28.01.25.02.22.03.2.05.17.07.14.09.11.12.09.14.05.18.03h.2l.24-.02.28-.06.31-.08 1.44-.42 1.44-.41 1.44-.42 1.44-.41 1.44-.4 1.44-.41 1.45-.4 1.44-.4 1.44-.4 1.45-.4 1.44-.4 1.45-.4 1.44-.4 1.45-.4.82-.23.7-.21.6-.2.5-.2.41-.21.32-.24.26-.27.19-.32.14-.38.09-.46.05-.54.03-.64.01-.75v-.87l-.01-.17v-.18l-.01-.17v-.17l-.01-.17v-.18-.17-.17-.17l.01-.18v-.17l.01-.17v-.18l.01-.17.04-.39.02-.35-.02-.32-.03-.27-.07-.23-.1-.19-.13-.15-.17-.11-.2-.07-.25-.03-.28.01z"/><path id="c" d="m287.99 249.97h.11l.11.01.11.02.11.01.11.02.11.02.11.02.11.03.11.03.11.03.1.04.11.03.11.04.1.05.1.04.11.05.1.05.1.06.1.05.1.06 1.53.83 1.51.82 1.5.8 1.48.8 1.46.79 1.44.77 1.43.77 1.4.75 1.38.75 1.36.73 1.33.71 1.32.71 1.28.69 1.27.67 1.23.67 1.21.64 1.18.64 1.16.61 1.12.6 1.09.59 1.07.57 1.03.55 1 .53.96.52.94.5.9.48.86.46.82.44.79.42.75.4.72.38.67.36.64.34.59.32.55.29.51.27.46.25.42.23.38.2.33.17.14.07.13.08.13.07.14.07.13.06.13.07.14.07.13.07.14.07.13.07.14.06.13.07.14.07.13.07.14.06.13.07.14.07.14.06.13.07.14.07.13.06.14.07.13.07.14.06.13.07.14.07.13.07.14.07.13.06.14.07.13.07.13.07.14.07.13.07.13.07.14.07.13.08.13.07.14.07.13.07.19.09.19.1.19.1.18.1.17.12.17.12.16.12.15.13.15.14.15.14.14.15.13.15.12.16.12.16.11.16.11.17.1.18.09.17.09.18.07.19.08.18.06.19.06.19.05.19.04.2.03.19.03.2.02.2.01.2.01.2-.01.21-.01.2-.02.2-.03.21-.03.2-.05.2-.05.2-.06.2-.07.2-.08.2-.01.01-.01.03v.01l-.01.03-.02.03v.01l-.01.03-.02.02v.02l-.01.02-.01.01-.01.03-.01.01-.01.03-.02.03v.01l-.02.02v.02l-.02.02v.02l-.02.02v.01l-.02.03v.01l-.02.03v.01l-.09.17-.1.17-.1.16-.1.16-.11.15-.12.15-.12.14-.13.13-.13.13-.13.13-.14.12-.15.11-.15.11-.15.1-.15.09-.16.09-.16.08-.17.08-.16.06-.17.07-.17.05-.18.05-.17.05-.18.03-.18.03-.18.02-.18.02-.18.01h-.18l-.19-.01-.18-.01-.18-.02-.19-.03-.18-.03-.18-.04-.18-.05-.18-.06-.18-.06-.18-.08-.18-.08-.02-.01-.02-.01-.02-.01-.02-.01-.02-.01-.02-.01-.02-.01-.02-.01-.02-.01-.02-.01-.02-.01-.02-.01-.02-.01-.02-.01-.02-.02-.02-.01-.01-.01-.02-.01-.02-.01-.02-.01-.02-.01-.02-.02-.02-.01-.02-.01-.02-.01-.02-.01-.02-.02-.01-.01-.02-.01-.02-.01-.02-.02-.02-.01-.02-.01-.02-.01-.01-.02-.02-.01-.02-.01-.02-.02-.02-.01-.01-.01-.48-.25-.48-.25-.48-.24-.47-.25-.48-.25-.47-.25-.48-.24-.47-.25-.48-.25-.48-.25-.47-.25-.47-.25-.48-.25-.47-.26-.48-.25-.47-.25-.48-.25-.47-.25-.47-.26-.48-.25-.47-.25-.47-.25-.48-.26-.47-.25-.47-.25-.48-.26-.47-.25-.48-.25-.47-.26-.47-.25-.48-.25-.47-.26-.47-.25-.48-.25-.47-.25-.47-.26-.48-.25-.47-.25-.48-.25-.47-.25-.6-.32-.6-.32-.59-.32-.6-.31-.6-.32-.6-.31-.59-.32-.6-.32-.6-.31-.6-.32-.6-.32-.59-.31-.6-.32-.6-.31-.6-.32-.59-.32-.6-.31-.6-.32-.6-.32-.59-.31-.6-.32-.6-.32-.6-.31-.59-.32-.6-.32-.6-.31-.6-.32-.59-.32-.6-.32-.6-.31-.59-.32-.6-.32-.6-.32-.59-.32-.6-.32-.59-.32-.6-.32-.59-.32-.6-.32-.6-.32-.11-.05-.11-.05-.11-.04-.11-.05-.11-.04-.11-.03-.12-.04-.11-.03-.12-.03-.11-.02-.12-.03-.12-.01-.11-.02-.12-.01-.12-.02h-.12l-.11-.01h-.12-.12l-.12.01h-.11l-.12.01-.12.01-.11.02-.12.02-.12.02-.11.02-.12.03-.11.03-.11.03-.12.04-.11.04-.11.04-.11.04-.11.05-.11.05-.11.05-.1.06-.11.06-.1.06-.55.24-.54.25-.55.24-.54.25-.55.24-.54.24-.55.25-.54.24-.55.25-.54.24-.55.25-.54.24-.55.25-.54.24-.55.25-.54.24-.55.25-.54.24-.55.25-.54.24-.55.25-.54.24-.55.25-.54.24-.55.25-.54.24-.55.25-.54.24-.55.25-.54.24-.55.25-.54.24-.55.24-.54.25-.55.24-.55.24-.54.25-.55.24-.54.24-.55.24-1.14.51-1.12.49-1.11.5-1.1.48-1.08.48-1.07.47-1.06.47-1.04.46-1.02.45-1.01.44-.99.44-.98.43-.95.42-.94.41-.92.4-.89.4-.88.38-.86.38-.83.36-.81.36-.79.35-.77.33-.74.33-.72.31-.69.3-.66.3-.64.28-.62.26-.58.26-.56.24-.53.24-.5.21-.47.21-.44.19-.41.18-.38.17-.34.15-.31.14-.28.12-.25.11-.27.11-.26.12-.25.1-.23.11-.22.09-.21.1-.19.09-.19.09-.17.09-.17.08-.15.09-.14.08-.13.08-.13.09-.11.08-.11.09-.1.09-.09.09-.08.1-.07.1-.07.11-.06.1-.06.12-.04.12-.05.13-.04.13-.03.15-.03.15-.02.16-.02.17-.02.17-.01.19-.01.2-.01.22-.01.22v.23.25.27.27.3.15.15.15.15.15.15.16.15l.01.15v.15.15l.01.3v.16.15.15l.01.15v.15.15.15.16.15.15.15.15.15.15.15.15.16l-.01.15v.15.15l-.01.15-.01.15v.15l-.01.15-.01.15-.01.15v.15l-.01.13-.01.13v.12.11l.01.1v.1l.01.1.01.08.02.08.02.08.02.07.02.06.03.06.03.05.03.05.03.05.04.03.04.04.05.03.04.02.05.02.06.02.05.01.06.01h.06.06.07l.07-.01.07-.01.08-.01.08-.02.08-.02.08-.02.09-.02.09-.03.09-.03.09-.03.1-.03.1-.04.11-.04 1.79-.65 1.78-.64 1.75-.64 1.74-.63 1.71-.62 1.69-.62 1.67-.6 1.64-.6 1.62-.59 1.59-.57 1.57-.57 1.53-.56 1.51-.54 1.48-.54 1.45-.52 1.42-.51 1.38-.5 1.35-.49 1.32-.48 1.28-.46 1.24-.45 1.21-.43 1.17-.43 1.13-.4 1.1-.4 1.05-.38 1.01-.36.96-.35.93-.33.88-.32.83-.3.79-.29.74-.26.7-.25.64-.23.6-.22.54-.2.5-.17.44-.16.39-.14.01-.01h.01.01.01l.01-.01h.02.01l.02-.01h.01.02.01.01l.02-.01h.01.02.01.01l.02-.01h.02.01.01.01.01.02.01.01.01.01.02l.01-.01h.01.02.02.02.01l.02.07.01.06.01.06.02.06.01.07.01.06.02.07.01.06.01.07.02.06.01.06.02.07.02.06.01.06.02.06.02.06.02.06.02.06.03.05.02.06.03.05.03.05.03.05.04.04.03.05.04.04.04.04.05.04.04.03.05.04.06.02.05.03.06.02.06.02.07.02.07.01.07.01h.08.08.09l.07-.01h.06l.07-.02.06-.01.05-.02.06-.02.05-.03.05-.02.05-.03.05-.03.04-.04.05-.03.04-.04.04-.04.03-.04.04-.05.03-.04.03-.05.04-.05.03-.05.02-.05.03-.05.03-.05.02-.06.03-.05.02-.06.02-.05.03-.06.02-.06.02-.05.02-.06.02-.06.02-.05.02-.06.02-.06.02-.06.02-.05.02-.06.02-.05.02-.06.01-.03v-.02l.01-.03.01-.03v-.03l.01-.03v-.03l.01-.03v-.02l.01-.03v-.03-.03l.01-.03v-.03-.03l.01-.03v-.02-.03l.01-.03v-.03-.03-.03-.03l.01-.03v-.03-.03-.03-.02-.03-.03-.03-.03-.03-.03-.03-.03l-.01-.03v-.03-.02-.03l4.36-1.44.07.12.08.11.07.1.07.1.07.08.07.08.07.07.07.06.07.05.07.05.07.04.06.03.07.02.07.02.06.01.07.01.06-.01h.06l.07-.01.06-.02.06-.02.06-.03.06-.03.06-.04.07-.04.06-.05.06-.04.06-.06.05-.05.06-.06.06-.06.06-.07.06-.06.06-.07.06-.07.06-.07.05-.08.06-.07.06-.08.06-.07 1.35.8.01.05.01.05.01.05.01.04.01.05v.04l.01.04.02.05.01.04.01.04.01.03.01.04.02.04.01.03.02.03.01.03.02.02.02.03.02.02.02.02.02.02.02.01.03.01.02.01.03.01h.03.03.03l.03-.01.03-.01.04-.02.04-.02.04-.02.04-.03.04-.03.05-.04.04-.04.05-.04.05-.05.06-.05.21.08.21.07.22.09.21.08.21.08.21.08.21.09.21.08.21.09.21.09.21.09.21.09.21.09.21.09.21.09.2.09.21.1.21.09.2.1.21.09.2.1.21.1.2.1.2.1.21.1.2.1.2.11.21.1.2.11.2.1.2.11.2.11.2.11.2.11.2.11.19.11.2.11.2.11.19.12.2.11.01.08.02.08.01.07.02.07.02.06.02.06.02.05.03.05.03.05.03.05.03.04.03.04.03.03.04.03.03.03.04.03.04.02.04.02.05.01.04.02.04.01.05.01.05.01h.04l.05.01h.05.05l.05-.01h.06l.05-.01h.05l.06-.01.05-.01.05-.01.06-.02.06-.01.05-.01.06-.02.05-.02.04-.01.02-.01v.01h-.02l-.12.1.14-.1-.01.04-.01.05-.01.06-.01.05-.01.06-.01.05-.01.06-.01.05-.01.06-.01.06-.02.05-.01.06-.01.06v.05l-.01.06-.01.05v.06l-.01.05v.06.05.05.05.06l.01.05.01.04.01.05.01.05.02.05.02.04.02.05.03.04.03.04.03.04.03.03.04.04.05.04.04.03.06.03.05.03.06.02.06.03.07.02.06.03.07.02.06.02.07.02.06.02.07.02.07.02.07.02.07.01.07.01.07.01.06.01.07.01h.07.07.07.07l.07-.01.06-.01.07-.01.07-.01.06-.02.07-.02.06-.03.07-.03.06-.03.06-.03.06-.04.06-.05.06-.05.05-.05.06-.06.05-.06.05-.06.05-.07.05-.08.05-.08.04-.08.13.04.12.05.13.04.12.05.12.05.13.05.12.05.12.05.13.05.12.05.12.05.12.05.12.06.12.05.13.05.12.06.12.06.12.05.11.06.12.06.12.06.12.06.12.06.12.06.11.06.12.06.12.06.11.07.12.06.12.07.11.06.12.07.11.07.12.06.11.07.11.07.12.07.11.07.11.07.11.07v.12l.01.12.01.11.02.12.02.11.03.11.03.11.03.11.04.1.04.11.05.1.05.1.05.09.06.1.06.09.06.09.07.09.07.08.07.08.08.08.08.08.08.07.08.07.09.07.09.06.09.06.1.06.1.05.1.05.1.04.1.05.11.03.1.04.11.03.12.02.11.02.11.02.12.01h.11l.12.01h.05.04l.05-.01h.05.04l.05-.01h.04l.05-.01h.04l.05-.01.04-.01.05-.01.04-.01.05-.01.04-.01.04-.01.05-.01.04-.01.05-.02.04-.01.04-.01.04-.02.05-.02.04-.01.04-.02.04-.02.04-.02.05-.02.04-.02.04-.02.04-.02.04-.02.04-.02.04-.03.04-.02.03-.02.04-.03.04-.03.04-.02.03-.03.07.02.06.03.07.02.07.02.06.02.07.02.07.02.06.02.07.02.13.04.07.02.07.02.06.02.07.02.06.02.07.02.06.03.07.02.06.02.06.03.06.03.06.02.06.03.06.03.06.04.06.03.05.04.06.04.05.04.05.04.06.04.04.05.05.05.05.06.04.05.05.06.04.06.04.07.04.07-.01.01-.01.01-.01.01-.01.01-.01.01h-.01l-.01.01-.01.01h-.02l-.01.01h-.01l-.02.01h-.01l-.01.01-.02.01h-.01l-.01.01h-.02l-.01.01-.01.01h-.01l-.01.01-.01.01v.01l-.01.01v.01l-.01.01v.01.01.01.02l.01.01.01.02.01.01.01.02.01.02.02.02.02.02.02.02.26-.32.19.01.2.02.19.02.19.03.19.03.19.04.18.05.18.05.18.05.18.06.18.06.17.07.17.07.17.08.18.07.16.08.17.09.17.08.16.09.17.09.16.09.17.09.16.09.16.1.17.09.16.1.16.09.16.1.17.09.16.1.16.09.17.1.16.09.16.09.17.08.17.09.16.08.17.08.17.08.17.07.21.09.2.09.2.09.2.09.21.09.2.09.2.09.2.1.2.09.2.09.2.1.2.1.2.09.19.1.2.1.2.1.2.09.2.1.2.1.19.1.2.1.2.1.2.1.19.1.2.1.2.11.19.1.2.1.2.1.2.1.19.1.2.1.2.1.2.1.19.1.2.1.2.1.2.1.2.09.19.1.04.19.04.19.04.19.03.19.02.18.02.18.02.18.01.17.01.18v.16.17l-.01.16-.02.16-.02.15-.02.16-.04.14-.03.15-.05.14-.05.13-.06.13-.07.13-.07.12-.08.12-.09.12-.09.1-.11.11-.11.1-.12.09-.13.09-.14.09-.14.08-.16.07-.16.07-.18.06-.18.06-.2.05-.2.04-.21.04-.23.04-.23.03h-.06l-.06.01-.05.01-.06.01-.06.02-.06.01-.06.02-.06.02-.05.02-.06.02-.06.02-.05.02-.06.03-.05.03-.05.02-.05.03-.05.04-.05.03-.05.03-.04.04-.04.03-.04.04-.03.04-.04.04-.03.04-.02.04-.03.04-.02.04-.01.05-.02.05-.01.04v.05.05.05l.01.05.01.05.02.05.02.05.03.05.03.06.08.14.07.13.07.12.06.12.04.11.04.11.03.1.03.09.01.09.01.09v.07.08l-.01.07-.02.06-.02.06-.03.05-.04.06-.04.05-.04.04-.05.04-.05.04-.06.04-.06.03-.07.03-.07.03-.07.03-.07.02-.08.02-.07.03-.09.02-.08.02-.08.02-.09.01-.08.02-.09.02-.08.02-.09.02-.09.02-.08.02-.09.02-.22-.09-.22-.09-.21-.08-.22-.09-.22-.09-.22-.09-.21-.09-.22-.09-.22-.1-.21-.09-.22-.09-.21-.1-.22-.09-.21-.1-.22-.1-.21-.09-.22-.1-.21-.1-.21-.1-.22-.1-.21-.1-.21-.1-.21-.1-.21-.11-.21-.1-.21-.11-.22-.1-.21-.11-.2-.1-.21-.11-.21-.11-.21-.11-.21-.11-.21-.11-.2-.11-.21-.11-.21-.11-.2-.11-.21-.12-.21-.11-.08-.04-.09-.05-.07-.06-.08-.07-.07-.07-.07-.07-.07-.09-.06-.08-.07-.09-.06-.09-.06-.1-.06-.1-.06-.09-.06-.1-.05-.1-.06-.1-.06-.1-.06-.09-.07-.09-.06-.09-.07-.09-.06-.07-.08-.08-.07-.07-.08-.06-.08-.05-.08-.05-.09-.04-.09-.03-.1-.02h-.11-.11l-.11.01-.12.03-.13.04-.14.05-.14.07-.15.09-.15.1-.17.11-.17-.06-.16-.05-.16-.06-.17-.06-.16-.06-.16-.06-.16-.06-.17-.06-.16-.07-.16-.06-.16-.07-.16-.07-.16-.06-.16-.07-.16-.07-.16-.07-.15-.08-.16-.07-.16-.07-.15-.08-.16-.08-.15-.07-.16-.08-.15-.08-.16-.08-.15-.08-.15-.08-.16-.09-.15-.08-.15-.09-.15-.08-.15-.09-.15-.09-.15-.09-.15-.09-.14-.09-.15-.09-.15-.09-.15-.1-.14-.09v-.11-.05-.05-.06-.05-.05l-.01-.05v-.05-.05l-.01-.05v-.05l-.01-.05v-.05l-.01-.05-.01-.04-.02-.05-.01-.04-.01-.05-.02-.04-.02-.04-.02-.04-.02-.04-.03-.03-.02-.04-.03-.03-.03-.03-.04-.03-.04-.03-.04-.03-.04-.02-.04-.03-.05-.02-.05-.02-.06-.01-.06-.02-.06-.01-.07-.01-.06-.01h-.08l-.11-.2-.09.09.2.11-.14.98-1.3-.57-.01-.04-.01-.05v-.04l-.01-.05-.01-.04-.01-.04-.01-.04-.01-.04-.01-.04-.01-.04-.02-.04-.01-.03-.01-.03-.02-.04-.01-.03-.02-.02-.01-.03-.02-.02-.02-.03-.02-.01-.02-.02-.02-.02-.03-.01-.02-.01h-.03l-.03-.01h-.02l-.03.01h-.04l-.03.01-.03.02-.04.02-.04.02-.04.02-.04.03-.05.03-.04.04-.05.04-.05.05-.05.05-.35-.15-.35-.15-.34-.16-.35-.15-.35-.15-.34-.16-.35-.15-.34-.16-.35-.15-.34-.16-.34-.16-.35-.16-.34-.16-.34-.16-.35-.16-.34-.16-.34-.16-.34-.16-.34-.16-.35-.17-.34-.16-.34-.17-.34-.16-.34-.17-.34-.16-.34-.17-.33-.17-.34-.17-.34-.17-.34-.17-.34-.17-.33-.17-.34-.18-.34-.17-.33-.17-.34-.18-.33-.17-.34-.18-.33-.18-.33-.18v-.1l-.01-.11-.01-.11-.02-.1-.03-.11-.04-.1-.04-.1-.04-.11-.05-.1-.05-.11-.06-.1-.06-.1-.05-.1-.06-.11-.06-.1-.06-.1-.05-.11-.06-.1-.04-.11-.05-.1-.04-.1-.04-.11-.02-.11-.03-.1-.01-.11v-.11-.1l.01-.11.03-.11.03-.11.05-.11.06-.12.08-.11.09-.11.1-.12.12-.12.14-.11.15-.12.17-.12.2-.12h-.1-.1l-.09.01-.09.01-.09.02-.09.01-.08.02-.09.03-.08.02-.08.02-.08.03-.08.02-.08.03-.08.03-.07.02-.08.03-.07.02-.07.03-.07.02-.07.02-.07.02-.07.02-.06.01-.07.02-.06.01h-.07-.06-.06-.06l-.06-.01-.06-.02-.06-.02-.06-.02-.06-.03-.05-.04-.06-.04-.06-.05-.05-.06-.06-.06-.05-.07-.07-.09-.06-.08-.06-.07-.07-.06-.06-.05-.06-.05-.06-.04-.06-.03-.06-.03-.06-.02-.05-.01-.06-.01h-.05-.06l-.05.01-.05.01-.06.01-.05.02-.05.02-.05.03-.05.03-.06.03-.05.03-.05.03-.05.04-.05.04-.05.03-.05.04-.05.04-.04.04-.05.04-.05.03-.05.04-.05.04-.05.03-.05.03-.05.03-.06.03-.05.02-.05.02v-.13-.06-.07-.06-.07-.06-.07-.06-.07-.06-.07-.06-.07-.06-.06-.07-.06-.07l-.01-.06v-.07-.06-.07-.06-.07-.06l-.01-.07v-.06-.07-.06-.07l-.01-.06v-.07-.06l-.01-.07v-.06-.06l-.01-.07v-.06-.07l-.01-.05-.01-.05-.01-.05-.01-.05-.01-.04-.01-.04-.02-.04-.02-.04-.02-.04-.02-.03-.03-.03-.02-.03-.03-.03-.02-.02-.03-.03-.03-.02-.04-.02-.03-.02-.03-.02-.04-.02-.03-.02-.04-.01-.03-.02-.04-.01-.04-.02-.04-.01-.04-.01-.04-.01-.04-.01-.04-.01-.04-.01-.04-.01-.04-.01-.04-.01-.04-.01-.04-.01-.04-.01-.04-.01-.04-.01-.04-.01-.05-.01-.05-.01-.05-.01h-.05-.04-.05l-.04.01h-.04l-.04.01-.04.01-.04.01-.04.02-.04.01-.03.02-.04.02-.03.02-.04.02-.03.03-.03.02-.03.03-.03.03-.03.03-.03.03-.03.03-.02.03-.03.03-.03.03-.02.03-.03.03-.02.04-.02.03-.03.03-.02.04-.02.03-.03.03-.02.03-.02.04-.02.03-.02.03-.02.03-.03.04-.03.05-.02.04-.02.04-.01.03-.01.04-.01.03v.04.03.03.03l.01.03.01.03.02.02.01.03.02.02.02.02.02.03.03.02.02.02.03.02.02.02.03.02.03.02.03.02.03.01.04.02.03.02.03.02.03.02.04.01.03.02.03.02.03.02.03.02.03.02.03.01.03.02.02.02.03.02.05.05.04.04.1.08.19.17.05.04.05.04.05.05.05.04.04.04.05.04.05.04.05.05.05.04.05.04.04.04.05.05.05.04.05.04.05.04.04.04.05.05.05.04.05.04.05.04.04.05.05.04.05.04.05.04.04.05.05.04.05.04.04.04.05.05.05.04.04.04.05.04.08.11.06.11.06.1.05.11.04.1.03.1.02.1.02.1.01.1v.1.1l-.01.1-.01.09-.02.1-.02.1-.03.09-.03.1-.03.09-.04.09-.04.1-.04.09-.04.1-.04.09-.04.09-.05.1-.04.09-.04.09-.05.1-.04.09-.04.09-.03.1-.04.09-.03.1-.03.09-.02.1-.02.1-.02.09-.01.1v.1.1l-.3.11-.3.11-.29.12-.3.11-.3.11-.3.12-.29.11-.3.11-.3.12-.3.11-.3.11-.29.12-.6.22-.3.12-.29.11-.3.11-.3.12-.3.11-.29.11-.3.12-.3.11-.3.11-.3.11-.29.12-.3.11-.3.11-.3.12-.3.11-.29.11-.3.12-.3.11-.3.11-.3.11-.29.12-.3.11-.3.11-.3.11-.3.12-.3.11-1.38.51-1.37.51-1.36.5-1.34.5-1.32.49-1.3.48-1.29.48-1.27.47-1.25.46-1.22.45-1.21.45-1.19.44-1.16.43-1.14.42-1.12.41-1.09.41-1.07.39-1.04.38-1.01.38-.99.36-.96.36-.93.34-.9.34-.87.32-.85.31-.81.3-.77.29-.75.27-.71.26-.68.26-1.25.46-.57.21-.54.2-.49.18-.46.17-.42.15-.38.14-.34.13-.3.11-.16.06-.17.06-.17.05-.17.05-.17.05-.18.05-.17.05-.18.04-.18.05-.17.04-.18.04-.18.05-.18.04-.18.04-.18.04-.18.05-.18.04-.17.05-.18.05-.17.05-.18.05-.17.05-.17.05-.16.06-.17.06-.16.07-.16.06-.15.07-.15.08-.15.08-.14.08-.14.08-.14.1-.13.09-.12.1-.13.11-.11.11-.11.12-.11.13-.09.13-.1.14-.09.14-.08.15-.07.15-.06.16-.06.16-.05.16-.05.16-.04.17-.03.16-.03.17-.02.18-.01.17-.02.18-.01.17v.18.19.18l.01.18.01.19.01.18.01.19.02.18.01.19.02.19.02.19.02.19.02.19.02.19.02.18.01.19.02.19.02.19.01.18.01.19.01.19.01.18v.18l.01.18-.01.18v.33l-.01.31v.29.28.26.24l.01.24.01.21.01.21.02.18.02.18.02.16.03.15.04.13.04.13.05.11.05.1.06.09.07.07.07.07.09.05.09.05.1.03.11.03.12.01.13.01h.14l.15-.01.16-.02.17-.03.18-.03.2-.05.2-.04.22-.06.24-.06.24-.07.26-.07.28-.08.29-.09.3-.09 39.79-11.75.34-.1.35-.1.34-.1.34-.1.34-.1.34-.1.34-.1.35-.1.34-.1.34-.1.34-.09.34-.1.34-.1.35-.1.34-.1.34-.1.34-.09.34-.1.35-.1.34-.1.34-.1.34-.09.34-.1.34-.1.35-.1.34-.1.34-.09.34-.1.34-.1.35-.1.34-.1.34-.1.34-.1.34-.09.34-.1.34-.1.35-.1.34-.1.34-.1.34-.1.06-.03.06-.02.06-.02.07-.03.06-.02.06-.02.06-.01.07-.02.06-.02.07-.01.06-.01.06-.02.07-.01.06-.01h.07l.06-.01.07-.01h.06l.07-.01h.06.07.06.07.07l.06.01h.07l.06.01.07.01h.06l.07.01.06.02.06.01.07.01.06.02.07.01.06.02.06.02.07.02.06.02.06.02.91.38.89.39.88.37.87.38.86.36.85.37.84.36.83.35.81.34.8.34.79.34.77.33.76.32.74.32.73.3.71.31.7.29.67.29.67.28.64.27.62.27.61.25.59.25.57.24.55.23.52.23.51.21.49.21.46.19.44.19.42.18.4.16.37.16.35.15.32.14.3.12.28.12.25.1.22.1.19.08.04.14.04.13.04.14.04.14.04.15.03.14.03.14.04.14.02.14.03.15.02.14.02.14.02.14.01.14.01.14.01.14.01.14-.01.14v.13l-.01.13-.01.14-.02.12-.03.13-.03.13-.03.12-.04.12-.05.11-.05.12-.06.1-.06.11-.07.1-.08.1-.08.1-.09.09-.1.08-.11.08-.11.08-.12.07-.13.07-.14.06-.13.08-.14.08-.13.08-.13.08-.13.08-.13.08-.13.09-.13.08-.13.09-.13.08-.12.09-.13.09-.13.09-.12.09-.13.09-.12.09-.12.09-.12.1-.13.09-.12.1-.12.09-.12.1-.11.1-.12.1-.12.1-.12.1-.11.1-.12.1-.11.11-.11.1-.12.11-.11.1-.11.11-.11.11-.11.11-.11.11-.11.11-.1.11-.11.11-.1.11-.46-.18-.45-.19-.45-.18-.46-.18-.45-.19-.45-.18-.46-.19-.45-.18-.45-.18-.45-.19-.46-.18-.45-.19-.45-.18-.45-.18-.45-.19-.46-.18-.45-.18-.45-.19-.45-.18-.45-.19-.46-.18-.45-.19-.45-.18-.45-.19-.45-.18-.45-.19-.45-.18-.45-.19-.45-.18-.45-.19-.45-.19-.46-.18-.45-.19-.45-.19-.45-.19-.45-.18-.45-.19-.45-.19-.45-.19-.44-.19-.1-.05-.1-.04-.1-.04-.1-.04-.1-.03-.1-.04-.11-.03-.1-.03-.1-.03-.1-.03-.11-.02-.1-.02-.1-.02-.11-.02-.1-.02-.11-.01-.1-.02-.11-.01-.11-.01h-.1l-.11-.01h-.1-.11-.11-.1l-.11.01h-.1l-.11.01-.1.01-.11.02-.11.01-.1.02-.11.02-.1.02-.11.02-.1.03-.1.02-.11.03-.1.03-.1.04-1.07.32-1.05.33-1.05.32-1.03.32-1.02.31-1 .31-1 .3-.97.3-.97.29-.94.29-.93.28-.92.28-.9.27-.87.27-.87.26-.84.26-.82.25-.81.24-.78.24-.76.23-.74.22-.72.22-.7.21-.67.2-.65.2-.62.18-.61.19-.57.17-.55.16-.52.16-.5.15-.47.14-.44.14-.41.12-.39.11-.35.11-.33.1-.29.09-.26.08-.23.07-.65.19-.64.19-.64.19-.64.2-.64.19-.64.19-.64.19-.64.19-.64.2-.65.19-.64.19-.64.19-.64.19-.64.19-.64.19-.64.2-.64.19-.65.19-.64.19-.64.19-.64.19-.64.19-.64.19-.65.19-.64.18-.64.19-.64.19-.64.19-.65.19-.64.18-.64.19-.64.19-.65.19-.64.18-.64.19-.64.18-.65.19-.64.18-.64.19-.65.18-.09.01-.1.02-.09.02-.1.02-.09.02-.09.03-.09.04-.08.03-.09.04-.08.05-.08.04-.08.05-.08.05-.07.06-.07.05-.07.06-.07.07-.06.06-.07.07-.06.07-.05.07-.06.07-.05.08-.05.08-.04.08-.04.08-.04.08-.04.09-.03.08-.03.09-.03.09-.02.09-.02.09-.01.1-.02.09v.1l-.01.09v.1.1l.01.09v.01l.01.02v.01.03.01.02l.01.01v.03.01.02l.01.01v.01.02.02l.01.01.01.23.01.24.01.23v.24l.01.23.01.24.01.24v.23l.01.24v.23l.01.24v.23l.01.24v.24.23.24.23l.01.24v.24.23l-.01.24v.23.24.24.23l-.01.24v.23.24l-.01.23v.24l-.01.24v.23l-.01.24-.01.23v.24l-.01.23-.01.24-.01.24v.23l-.01.24-.01.11v.11l.01.11v.1l.01.09.01.09.01.08.02.09.01.07.02.07.03.07.02.06.03.06.03.05.03.05.04.05.04.04.04.04.04.03.04.04.05.02.05.03.05.02.06.01.06.02.06.01.06.01h.06.07.07.07l.08-.01.07-.01.08-.01.09-.01.08-.02.09-.02.09-.02.09-.02.09-.03.7-.18.7-.18.7-.18.7-.18.71-.18.7-.18.7-.18.7-.18.7-.18.7-.18.7-.18.71-.18.7-.18.7-.18.7-.18.7-.18.7-.18.7-.18.71-.18.7-.18 1.4-.36.7-.17.7-.18.71-.18.7-.18.7-.18.7-.18.7-.18.71-.18.7-.18.7-.18.7-.18.7-.18.7-.18.71-.18.7-.18.7-.18.7-.18.7-.18 1.02-.27 1.01-.26 1-.25.99-.26.97-.25.96-.25.95-.24.93-.24.92-.24.91-.23.88-.23.88-.23.85-.22.84-.22.83-.21.8-.21.79-.2.76-.2.75-.19.73-.19.7-.19.69-.17.66-.18.65-.16.62-.16.59-.16.58-.15.55-.14.52-.14.5-.13.92-.23.42-.11.4-.11.36-.09.34-.09.31-.08.28-.07.25-.07.22-.05.08-.03.07-.02.08-.02.08-.02.07-.02.08-.02.08-.01.07-.02.08-.01.08-.01.08-.01.07-.01.08-.01.08-.01.08-.01h.08l.08-.01h.07.08.08.08.08.08l.07.01h.08l.08.01.08.01.08.01.08.01.07.01.08.01.08.01.08.02.07.01.08.02.08.02.07.02.08.02.08.02.07.03.22.08.21.07.21.08.22.08.21.08.22.08.21.08.22.08.21.08.22.08.21.08.22.08.21.08.21.08.22.08.21.08.22.08.21.08.22.08.21.08.21.08.22.08.21.08.22.08.21.08.21.08.22.08.21.08.22.08.21.08.21.08.22.08.21.08.22.08.21.08.22.09.21.08.21.08.22.08.21.08-.02.01-.03.02-.03.01-.02.01-.03.02-.02.01-.03.01-.03.02-.03.01-.02.01-.03.02-.03.01-.03.01-.02.02-.03.01-.03.01-.03.01-.02.02-.03.01-.03.01-.02.02-.03.01-.03.02-.02.01-.03.01-.02.02-.03.01-.02.02-.02.02-.02.01-.03.02-.02.02-.02.01-.02.02-.02.02-.02.02-.01.02-.02.02-.02.02-.01.02-.06.11-.06.11-.06.11-.06.11-.07.11-.07.1-.07.1-.07.1-.08.1-.08.1-.07.09-.09.09-.08.09-.09.09-.08.09-.09.08-.09.09-.1.08-.09.07-.1.08-.1.07-.1.08-.1.06-.1.07-.11.07-.1.06-.11.06-.11.05-.11.06-.11.05-.12.05-.11.05-.12.04-.11.05-.12.03-.12.04-.12.04-.12.03-.13.03-.12.02-.15.04-.14.04-.15.05-.14.05-.13.06-.14.06-.13.07-.12.07-.13.08-.12.08-.11.08-.11.09-.11.1-.11.09-.1.11-.09.1-.1.11-.08.11-.09.12-.08.12-.07.12-.07.12-.07.13-.06.13-.05.13-.05.13-.05.14-.04.14-.03.14-.03.14-.02.14-.02.15-.01.14-.01.15v.15l.01.14.01.15.01.15.03.15.03.15v.03l.01.03.01.03v.02l.01.02.01.03v.02l.01.03h-.07-.07-.07-.06l-.07-.01h-.07-.07l-.06-.01h-.07l-.07-.01-.07-.01-.06-.01-.07-.01-.07-.01-.06-.01-.07-.01-.06-.02-.07-.01-.07-.01-.06-.02-.07-.02-.06-.02-.07-.01-.06-.02-.07-.02-.06-.03-.06-.02-.07-.02-.06-.02-.06-.03-.07-.03-.06-.02-.06-.03-.06-.03-.06-.03-.06-.03-.06-.03-.06-.03-.06-.03-.06-.04-.01-.02v-.02l-.01-.02v-.02l-.01-.03v-.02l-.01-.02-.01-.02v-.02l-.01-.02-.01-.02-.01-.03-.01-.02v-.02l-.01-.02-.01-.01-.01-.02-.01-.02-.01-.02-.01-.02-.02-.01-.01-.02-.01-.01-.01-.02-.02-.01-.01-.01-.02-.01-.01-.01-.02-.01-.02-.01-.01-.01h-.02l-.02-.01h-.02-.02-.02-.03-.02l-.02.01h-.03l-.01.01h-.02l-.01.01-.01.01-.02.01h-.01l-.01.01-.02.02-.01.01-.01.01-.01.01-.02.02-.01.01-.01.02-.01.01-.01.02-.01.01-.01.02-.02.02-.01.01-.01.02-.01.02-.01.02-.01.02-.01.01-.01.02-.01.02-.02.04-.01.02-.01.02-.02.01-.01.02-.01.02-.01.02-.01.02-.01.01-.01.02-.01.02-.01.01-41.37 10.71-.37.09-.37.1-.37.09-.37.1-.37.1-.36.09-.37.1-.37.09-.37.1-.37.1-.36.09-.37.1-.37.09-.37.1-.37.1-.36.09-.37.1-.37.09-.37.1-.37.1-.36.09-.37.1-.37.09-.37.1-.37.09-.37.09-.36.1-.37.09-.37.1-.37.09-.37.09-.37.09-.37.1-.37.09-.36.09-.37.09-.37.09-.37.09-.37.09-.37.09-.09.02-.09.02-.09.03-.08.02-.08.03-.08.03-.07.03-.07.03-.07.03-.07.03-.06.03-.06.04-.06.04-.06.03-.05.04-.05.04-.05.05-.04.04-.05.05-.04.04-.04.05-.03.06-.04.05-.03.05-.03.06-.03.06-.02.06-.02.07-.02.06-.02.07-.02.07-.01.08-.01.07-.01.08-.01.08-.01.09v.08.09.1.09.23l.01.23v.23l.01.23.01.23v.23.23l.01.23v.23l.01.23v.23.23l.01.23v.23.23.23.23.23.23.23.23.23.23.23.23.23.23.23l-.01.23v.23.23l-.01.23v.23l-.01.23v.23l-.01.23v.23l-.01.23-.01.23v.23l-.01.11v.11.11.11l.01.1v.09l.01.09.01.09.01.08.01.08.01.08.02.07.02.06.02.07.03.06.03.05.03.06.03.04.04.05.04.04.04.04.05.03.05.03.05.03.06.02.07.02.06.02.07.01.08.01h.08l.08.01h.09l.09-.01h.1l.1-.01.11-.02.12-.01.11-.02.13-.03.13-.02 1.11-.23 1.11-.23 1.11-.23 1.11-.23 1.11-.23 1.11-.23 1.12-.23 1.11-.22 1.11-.23 1.11-.23 1.11-.22 1.11-.23 1.12-.22 1.11-.23 1.11-.22 1.11-.23 1.11-.22 1.12-.23 1.11-.22 1.11-.23 1.11-.22 1.11-.22 1.12-.23 1.11-.22 1.11-.22 1.11-.23 1.11-.22 1.12-.22 1.11-.23 1.11-.22 1.11-.22 1.11-.23 1.12-.22 1.11-.22 1.11-.23 1.11-.22 1.11-.22 1.12-.23 1.11-.22 1.11-.22.27-.06.27-.05.28-.06.27-.05.27-.05.27-.06.28-.05.27-.06.27-.05.27-.06.28-.05.27-.05.27-.06.27-.05.28-.06.27-.05.27-.05.27-.06.28-.05.27-.06.27-.05.27-.05.28-.06.27-.05.27-.05.27-.06.28-.05.27-.06.27-.05.27-.05.55-.11.27-.05.27-.06.28-.05.27-.06.27-.05.27-.05.28-.06.27-.05.08-.02.07-.01.08-.01.08-.02.08-.01.07-.01.08-.01.08-.01h.08l.08-.01.07-.01h.08.08l.08-.01h.08.07.08.08.08.08.08l.07.01h.08l.08.01.08.01h.08l.07.01.08.01.08.01.08.01.08.01.07.02.08.01.08.02.07.01.08.02.08.02.07.01.08.02.08.02.99.26.98.26.98.25.96.25.94.24.94.25.92.24.91.23.9.23.88.23.87.23.85.22.84.21.81.22.81.2.78.21.77.2.74.19.73.19.71.18.69.18.67.18.65.16.63.17.6.15.58.15.56.15.54.14 1.46.38.85.22.38.1.36.09.33.08.57.15.25.07.21.05.48.12.48.13.48.12.48.12.48.12.48.12.48.12.48.13.48.12.48.12.48.12.48.12.48.12.48.12.48.12.48.12.48.12.48.12.48.12.48.12.48.12.48.12.48.12.48.12.48.12.48.11.48.12.48.12.48.12.48.12.48.12.48.12.48.12.48.12.49.12.48.13.48.12.48.12.48.12.48.12.22.03.21.03.22.04.21.06.2.06.21.06.2.08.19.08.19.09.19.1.18.1.18.11.17.12.17.12.16.13.16.14.15.14.14.14.14.16.14.15.13.17.12.16.11.17.11.18.1.18.1.18.09.19.08.2.07.19.07.2.06.2.05.21.04.2.04.21.02.22.02.21.01.22v.22l-.01.22-.02.22v.02.03.02l-.01.03v.02.02l-.01.03v.02.03l-.01.02v.03.02l-.01.03v.02.03l-.01.02v.02l-.01.03v.02l-.01.03v.02l-.01.03v.02l-.01.03v.02l-.01.02v.03l-.01.02v.03l-.01.02-.01.02v.03l-.01.02v.03l-.01.02-.01.02v.03l-.01.02-.01.03v.02l-.08.22-.08.22-.09.21-.1.2-.1.2-.11.2-.12.19-.13.18-.13.18-.14.17-.14.16-.15.16-.16.15-.16.15-.17.14-.17.13-.18.13-.18.12-.19.11-.18.1-.2.1-.2.09-.2.08-.2.08-.21.06-.21.06-.21.05-.21.04-.22.04-.22.02-.22.02-.22.01h-.22l-.22-.01-.23-.02-.22-.02-.22-.04-.23-.04-.22-.06-.23-.06-.02-.01h-.01l-.02-.01-.04-.01-.03-.01-.02-.01-.02-.01h-.02l-.03-.01-.01-.01-.03-.01h-.02v-.01l-1.06-.27-1.06-.27-1.06-.28-1.06-.27-1.05-.27-1.06-.28-1.06-.27-1.06-.27-1.06-.28-1.05-.27-1.06-.27-1.06-.27-1.06-.28-1.06-.27-1.05-.27-1.06-.28-1.06-.27-1.06-.28-1.05-.27-1.06-.28-1.06-.27-1.06-.28-1.05-.27-1.06-.28-1.06-.27-1.06-.28-1.05-.28-1.06-.28-1.06-.28-1.05-.28-1.06-.27-1.05-.29-1.06-.28-1.06-.28-1.05-.28-1.06-.28-1.05-.29-1.06-.28-1.05-.29-1.06-.28-.2-.04-.2-.04-.2-.03-.2-.03-.2-.03-.2-.02-.21-.02-.2-.02-.2-.02-.2-.02-.21-.01-.2-.01-.2-.01h-.21-.2-.2-.2-.21l-.2.01-.2.01-.2.01-.21.02-.2.01-.2.02-.2.03-.2.02-.2.03-.21.03-.2.03-.2.03-.2.04-.2.04-.19.04-.2.04-.2.05-.2.05-.2.05-.19.05-.2.06-.2.06-.94.19-.94.19-.94.19-.94.19-.94.19-.94.19-.94.19-.94.19-.94.19-.94.2-.94.19-.94.19-.94.2-.94.19-.94.19-.94.2-.94.19-.95.19-.94.2-.94.19-.94.2-.94.19-.94.19-.94.2-.94.19-.94.2-.94.19-.94.2-.94.19-.94.2-.94.19-.94.2-.94.19-.94.2-.94.19-.94.2-.94.19-.94.2-.94.19-.94.2-.05-.01-.05-.01-.05-.01-.05-.01-.05-.01h-.05l-.05-.01h-.05-.05-.05-.05-.05-.05-.05-.05l-.05.01h-.05l-.05.01-.05.01h-.05l-.05.01-.05.01-.05.01-.05.02-.05.01-.05.01-.05.02-.04.01-.05.02-.05.02-.05.01-.04.02-.05.02-.05.02-.04.03-.05.02-.04.02-.05.03-.04.02-.05.03h-.12-.13l-.12.01-.13.01h-.12l-.12.01-.13.01-.12.01-.13.02-.12.01-.12.02-.13.01-.12.02-.12.02-.12.02-.12.03-.13.02-.12.02-.12.03-.12.03-.12.03-.12.03-.12.03-.12.03-.12.03-.12.04-.12.04-.12.03-.11.04-.12.04-.12.05-.12.04-.11.04-.12.05-.11.04-.12.05-.11.05-.12.05-.11.05-.11.06-.1-.01h-.11-.1-.1-.1-.1-.11l-.1.01h-.1l-.1.01h-.1l-.1.01-.11.01-.1.01-.1.01-.1.02-.1.01-.1.01-.1.02-.1.02-.1.01-.1.02-.1.02-.1.02-.1.02-.1.03-.1.02-.09.03-.1.02-.1.03-.1.03-.1.03-.09.03-.1.03-.1.03-.09.03-.1.04-.09.03-.1.04-.09.04-.89.16-.12.03-.11.02-.12.01-.12.02-.12.01-.12.01-.12.01-.12.01-.12.01-.13.01h-.12l-.12.01-.12.01-.12.01-.12.01-.12.01-.12.02-.12.01-.12.02-.11.03-.11.02-.12.03-.11.03-.11.04-.1.04-.11.05-.1.05-.1.06-.09.07-.1.07-.09.08-.09.08-.08.09-.08.1-.08.11-.07.12-.07.13-.07.13-.06.14-.05.16-.07.06-.06.06-.07.06-.06.06-.07.06-.06.07-.06.06-.07.06-.06.06-.07.06-.06.07-.06.06-.13.12-.07.06-.06.07-.06.06-.07.06-.06.06-.07.06-.06.06-.06.07-.07.06-.06.06-.07.06-.06.06-.07.06-.06.06-.07.06-.06.06-.07.06-.06.06-.07.06-.06.06-.07.06-.07.05-.06.06-.07.06-.07.06-.06.05-.21.22-.2.22-.2.21-.21.22-.2.21-.21.22-.2.21-.21.22-.21.21-.2.21-.21.21-.21.21-.21.21-.21.21-.21.21-.21.21-.22.21-.21.21-.21.2-.21.21-.22.2-.21.21-.22.2-.22.21-.21.2-.22.2-.22.2-.21.21-.22.2-.22.2-.22.2-.22.2-.22.19-.23.2-.22.2-.22.19-.22.2-.23.2-.22.19-.23.19-.13-.03-.12.07v-.07l.01-.07v-.07-.08l.01-.07v-.07-.07l.01-.08v-.07l.01-.07v-.07l.01-.22.01-.07v-.08-.07l.01-.07v-.07l.01-.08v-.07-.07l.01-.07v-.07-.08l.01-.07v-.07-.07-.08l.01-.07v-.07-.07-.07-.08l.01-.07v-.07-.07-.08-.07-.07-3.84-3.79-3.76-3.71-3.66-3.62-3.56-3.52-3.46l-.01-3.4v-3.35-3.28-3.23-3.16-3.09-3.03-2.96-2.88l-.01-2.82v-2.73-2.66-2.59-2.5-2.41-2.34-2.24-2.16l-.01-2.07v-1.97-1.88-1.79-1.68-1.59-1.48-1.38-1.27-1.16-1.06-.94-.83l-.02-.33-.01-.33.01-.32.01-.33.03-.32.04-.32.04-.32.06-.31.07-.31.07-.31.09-.3.1-.3.1-.3.12-.29.13-.29.13-.29.14-.28.15-.27.16-.27.17-.27.18-.25.19-.26.19-.24.2-.25.21-.23.22-.23.22-.22.23-.21.24-.21.25-.2.25-.19.26-.18.27-.18.27-.17.28-.15.29-.15.29-.14.3-.14.31-.12.3-.11 1.81-.77 1.78-.77 1.77-.76 1.74-.75 1.73-.73 1.7-.73 1.67-.72 1.65-.71 1.63-.7 1.6-.69 1.57-.67 1.55-.67 1.51-.65 1.49-.64 1.46-.62 1.42-.61 1.39-.6 1.36-.58 1.32-.57 1.29-.56 1.25-.53 1.21-.53 1.18-.5 1.13-.49 1.1-.47 1.06-.46 1.01-.43.97-.42.93-.4.89-.38.84-.36.79-.34.74-.32.7-.3.65-.28.6-.26.54-.24.5-.21.44-.19.39-.17.35-.15.34-.14.34-.15.35-.15.34-.14.34-.15.35-.15.34-.14.35-.15.34-.15.35-.14.34-.15.34-.15.35-.14.34-.15.35-.15.34-.14.34-.15.35-.15.34-.14.35-.15.34-.15.34-.15.35-.14.34-.15.34-.15.35-.15.34-.15.34-.15.35-.15.34-.14.34-.15.35-.15.34-.15.34-.16.34-.15.35-.15.34-.15.34-.15.34-.16.1-.05.11-.04.11-.05.1-.04.11-.03.11-.04.11-.03.1-.03.11-.03.11-.02.12-.02.11-.02.11-.02.11-.01.11-.01h.11l.11-.01h.11.12zm26.97 42.86-.02.18-.01.17v.16l.04.15.1.07.2-.14.06-.12.02-.17-.01-.19-.02-.18-.03-.07-.07-.07-.1-.07-.1-.09-.04.19zm-15.87-1-.13.09-.12.1-.06.15.04.13.14.1.2.08.08-.04.16-.08.18-.09.1-.05-.07-.14-.07-.15-.07-.12-.08-.05-.15.02zm-17.81-4.04-.24.02-.2.1-.14.17-.08.23v.06.06l.01.07.02.06.08.23.15.15.2.07.25.02.23-.06.17-.13.12-.19.03-.23v-.01l-.01-.01v-.01-.01l-.03-.22-.11-.19-.18-.12-.21-.06h-.02-.01-.02zm-1.92.86-.07.05-.06.06.22.07h.13l.07-.06.02-.09-.02-.04-.05-.05-.05-.03-.04-.01-.08.05zm16.42-5.75-.01.1v.1l.03.04.06.03.06.03h.04l.05-.08.06-.07.04-.08.05-.09-.05-.02-.12-.06-.12-.06-.07-.03-.02.09zm-12.69-2.49-.01.06-.01.05.02.02.04.01.06.02.05.02.02-.05.02-.05.01-.05.01-.06-.02-.03-.05-.03-.05-.02-.05-.01-.02.06z"/><path id="d" d="m347.08 391.43.11.01.11.01 1.17.1 1.17.1 1.18.1 1.17.1 1.17.1 1.17.1 1.18.1 1.17.09 1.17.1 1.18.1 1.17.1 1.17.09 1.18.1 1.17.1 1.17.1 1.17.09 1.18.1 1.17.09 1.17.1 1.18.1 1.17.09 1.17.1 1.18.09 1.17.1 1.17.09 1.18.1 1.17.09 1.17.1 1.18.09 1.17.1 1.17.09 1.18.1 1.17.09 1.17.1 1.18.09 1.17.1 1.17.09 1.18.09 1.17.1 1.17.09.07.15.07.13.06.13.07.12.07.12.07.11.07.1.07.1.07.09.07.08.08.08.07.07.08.07.07.06.08.05.08.04.08.04.08.03.08.03.08.02.08.01.09.01.08-.01.09-.01.09-.01.09-.02.09-.03.09-.04.1-.04.09-.05.1-.06.09-.06.1-.08.1-.07.1-.09.1-.09.11-.1.1-.11.11-.12.11-.12.05-.06.05-.06.05-.06.05-.05.06-.06.05-.06.05-.06.06-.05.05-.06.06-.06.05-.05.06-.06.05-.05.06-.06.05-.05.06-.06.05-.05.06-.06.06-.05.05-.06.06-.05.06-.06.05-.05.06-.05.06-.06.06-.05.05-.06.06-.05.06-.05.06-.06.05-.05.06-.05.06-.06.06-.05.05-.06.06-.05.06-.05.05-.06.06-.05.06-.06.03-.03.03-.04.03-.04.04-.03.03-.03.04-.03.03-.03.04-.03.04-.03.04-.02.04-.02.04-.02.04-.02.05-.02.04-.02.04-.01.05-.01.04-.01.04-.01.05-.01.04-.01h.05.05.04.05.04l.05.01h.04l.05.01.04.01.05.01.04.02.05.01.04.02.04.02.05.02.04.02.04.03.04.02.04.03.01.01.02.01.01.01.01.01.01.01h.01l.03.03.04.03.04.04.03.03.03.03.04.04.02.03.03.04.03.04.02.03.03.04.02.04.02.04.02.05.01.04.02.04.01.04.01.05.01.04.01.04.01.05v.04l.01.05v.04.05.04l-.01.05v.04l-.01.05-.01.04-.01.05-.01.04-.02.04-.01.05-.02.04-.02.04-.02.05-.03.04-.02.04-.03.04-.01.01-.01.01-.01.02-.01.01-.02.02-.01.02h-.01l-.03.06-.04.05-.04.05-.04.05-.04.06-.04.05-.04.05-.04.05-.04.05-.04.06-.05.05-.04.05-.04.05-.04.05-.04.05-.04.05-.05.05-.04.06-.04.05-.04.05-.05.05-.04.05-.04.05-.04.05-.09.1-.04.05-.04.05-.05.05-.04.05-.04.05-.04.05-.05.06-.04.05-.04.05-.04.05-.04.05-.04.05-.05.05-.04.05-.03.04-.04.04-.03.04-.04.04-.04.04-.03.03-.04.04-.08.08-.04.04-.04.04-.04.04-.03.03-.04.04-.03.04-.04.04-.03.04-.03.04-.03.05-.03.04-.02.04-.02.04-.02.05-.02.04-.01.04-.01.05-.01.05v.04.05l.01.05.01.05.01.05.02.05.02.06.03.05.04.05.04.06.04.06.05.06.06.06.04.04.04.04.04.04.05.03.04.04.05.03.04.03.05.03.05.02.05.03.05.02.05.02.05.02.05.02.06.01.05.01.05.01.06.01.05.01h.05.06.05.06l.05-.01h.05l.06-.01.05-.01.05-.02.06-.01.05-.02.05-.02.05-.02.05-.02.05-.03.05-.02.05-.03.04-.03.05-.04.04-.03.05-.04.01-.01.02-.02.01-.01.01-.01.02-.02.01-.01.01-.01.01-.02.01-.01.01-.01.01-.01.01-.01.01-.01.01-.01.01-.02.03-.02.03-.03.04-.03.03-.03.03-.03.03-.03.03-.03.03-.03.03-.02.03-.03.03-.03.03-.03.03-.03.04-.03.03-.03.03-.03.03-.03.02-.03.03-.03.03-.03.03-.03.03-.03.03-.03.03-.03.03-.03.03-.03.03-.03.03-.03.06-.06.03-.03.03-.03.03-.03.03-.03.03-.03.03-.03.02-.03.03-.03.03-.03.03-.03.05-.06.04-.06.05-.05.05-.06.05-.05.06-.05.05-.04.06-.05.06-.04.06-.04.06-.04.06-.03.06-.03.07-.03.06-.03.07-.02.06-.02.07-.02.07-.02.07-.01.07-.01.07-.01.07-.01h.07.07.07l.07.01.07.01.07.01.07.01.07.02.06.01.07.03.07.02.07.03.06.03.07.03.06.04.07.04.06.04.01.01h.01l.01.01.02.01.01.01.01.01.01.01h.01l.01.01.01.01.01.01.01.01.01.01.01.01.01.01h.01l.01.01.01.01.01.01.01.01.01.01.01.01.01.01.01.01.01.01.01.01.01.01.01.01.01.01.01.01.01.01.01.01.01.01.01.01.01.01.01.01v.01l.01.02.01.01.01.01.07.07.06.07.05.07.05.08.05.07.04.06.03.07.03.07.03.07.02.07.01.06.02.07v.06l.01.07v.06l-.01.06-.01.07-.01.06-.01.06-.02.06-.02.06-.03.06-.02.06-.03.06-.04.06-.03.06-.04.06-.04.05-.04.06-.04.06-.05.06-.05.05-.04.06-.05.05-.05.06-.06.06-.05.05-.05.06-.06.05-.05.06-2.21 2.22-.05.05-.04.05-.05.04-.04.05-.04.05-.05.05-.04.04-.04.05-.03.05-.04.05-.03.05-.04.05-.03.05-.03.04-.02.05-.03.05-.02.05-.02.05-.02.06-.01.05-.02.05-.01.05v.05l-.01.05v.05l.01.06v.05l.01.05.02.06.01.05.03.05.02.06.03.05.03.05.04.06.04.05.05.06.05.05.06.06.06.06.06.04.05.05.05.03.05.04.06.03.05.03.05.02.05.02.05.02.05.01.05.01.05.01.05.01h.04.05l.05-.01h.05l.04-.01.05-.01.04-.01.05-.02.05-.02.04-.02.05-.02.04-.02.05-.02.04-.03.05-.03.04-.03.04-.03.05-.03.04-.03.05-.04.04-.03.04-.04.05-.03.04-.04.05-.04.04-.04.04-.03.07-.08.07-.08.06-.08.07-.07.07-.08.07-.08.07-.07.07-.08.07-.07.07-.07.07-.08.07-.07.07-.07.08-.08.07-.07.07-.07.08-.07.07-.07.08-.07.07-.07.08-.06.08-.07.07-.07.08-.07.08-.06.08-.07.07-.06.08-.07.08-.06.08-.07.08-.06.08-.06.09-.07.08-.06.08-.06.08-.06.08-.06.09-.06.08-.06.09-.06v1.31 1.29 1.28l.01 1.26v1.24 1.23l.01 1.21v1.2 1.17l.01 1.16v1.14 1.12l.01 1.09v1.08 1.05l.01 1.03v1 .99l.01.95v.93.91.88l.01.85v.82.79l.01.77v.73.7.68.63l.01.61v.57.54.51.47l.01.43v.4.35.32.29.05.06l-.01.05v.06l-.01.06v.06l-.01.05-.01.06-.01.06-.01.06v.06l-.01.05-.01.06-.01.06-.01.06v.06l-.01.06v.06l-.01.05v.06.06.06.06l.01.05v.06l.01.06.01.05.02.06.01.05.02.06.02.05.03.06.03.05.03.05.03.06.04.05.05.05.04.05.05.05.06.05.48.11.06.02.06.02.06.01.06.01.06.02.06.01.06.01.06.01.06.01.06.01.06.01h.06l.06.01.06.01h.06.06l.06.01h.06.07.06.06.06.06l.06-.01h.06.06l.06-.01.06-.01h.06l.06-.01.06-.01.07-.01.06-.01.06-.01.06-.01.06-.02.06-.01.05-.01.06-.02.06-.02.51.01h.51l.5.01h.51.51l.51.01h.5.51l.51.01h.51.5.51l.51.01h.5.51l.51.01h.51.5l.51.01h.51.51l.5.01h.51.51l.51.01h.5l.51.01h.51l.5.01h.51l.51.01h.51l.5.01.51.01h.51l.51.01.5.01.51.01.51.01h.51.23l.22.01.23.01.22.03.22.03.22.04.21.05.21.06.21.07.2.07.2.08.2.09.19.1.19.1.18.11.18.12.17.12.17.13.17.14.15.14.16.15.14.15.15.16.13.17.13.17.12.17.12.18.11.19.1.19.09.19.09.2.08.2.07.21.06.21.06.21.05.22.04.22.03.22.02.23.01.23v.05.06.05.05.06.05.05.06.05l-.01.05v.05.06l-.01.05v.05l-.01.06-.01.05v.05l-.01.05-.01.06-.01.05v.05l-.01.05-.01.06-.01.05-.01.05-.01.05-.02.05-.01.06-.01.05-.01.05-.02.05-.01.05-.02.05-.01.05-.02.05-.01.06-.02.05-.02.05-.01.05-.02.05-.05.16-.06.17-.06.16-.06.16-.07.16-.08.15-.07.15-.09.15-.09.15-.09.14-.1.13-.1.14-.1.13-.11.13-.11.12-.12.12-.12.12-.12.11-.13.11-.13.1-.13.1-.14.09-.14.1-.14.08-.15.08-.15.08-.15.08-.15.06-.16.07-.16.06-.16.05-.16.05-.16.04-.17.04-.17.03-.16.03-.18.02-.17.02-.17.01h-.18l-.12.01h-.12-.12-.12l-.12.01h-.12-.12-.12-.12l-.13.01h-.12-.12-.12-.12-.12-.12-.12-.12-.12-.12-.13-.12-.12-.12-.12-.12-.12-.12-.12-.12-.12-.13-.12-.12-.12l-.12-.01h-.12-.12-.12-.12-140.51-.07-.06-.07-.06-.07-.07-.06-.07l-.06-.01h-.07-.06-.07l-.07-.01h-.06-.07l-.07-.01h-.06-.07l-.06-.01h-.07l-.07-.01h-.06-.07l-.07-.01h-.06l-.07-.01h-.07-.06l-.07-.01h-.07l-.06-.01h-.07l-.07-.01h-.06-.07l-.07-.01h-.06-.07l-.07-.01h-.06l-.02-.08-.03-.07-.02-.08-.02-.07-.03-.07-.02-.07-.03-.08-.03-.06-.02-.07-.03-.07-.04-.06-.03-.07-.03-.06-.04-.06-.03-.06-.04-.06-.04-.05-.04-.06-.04-.05-.05-.05-.05-.05-.04-.04-.06-.05-.05-.04-.05-.04-.06-.03-.06-.04-.06-.03-.06-.02-.07-.03-.07-.02-.07-.02-.07-.02-.08-.01-.08-.02h-.08l-.08-.01h-.09-.09l-.1.01-.05-.97h.03l.04-.01.03-.01h.04l.04-.01.03-.01.04-.01h.03l.04-.01.04-.01.03-.01.04-.01.03-.01.03-.01.03-.01.04-.01.03-.02.03-.01.02-.01.03-.02.03-.02.02-.02.02-.02.02-.02.02-.02.02-.02.01-.03.01-.02.01-.03.01-.03.01-.03v-.03-.04-.04l-.01-.04-.01-.04-.01-.04-.02-.04-.02-.05-.02-.05-.05-.1-.04-.1-.05-.1-.05-.09-.05-.1-.06-.09-.05-.09-.05-.09-.06-.09-.06-.08-.06-.09-.05-.08-.07-.07-.06-.08-.06-.07-.07-.07-.07-.06-.07-.06-.07-.06-.08-.05-.07-.05-.08-.05-.08-.04-.08-.03-.09-.03-.09-.03-.09-.02-.09-.01-.1-.01-.09-.01-.11.01h-.1l-.11.02-.11.02-.11.02-.12.04-.12.04-.12.04-.13.06-.13.06-.9-.49-.5-.51.03.03-1.47-1.48.02.02-.51-.5.03.02-.96-.96-.01-.03-.02-.02-.02-.03-.01-.03-.02-.02-.02-.02-.02-.03-.02-.02-.02-.02-.02-.02-.02-.02-.03-.02-.02-.02-.02-.02-.03-.02-.02-.01-.03-.02-.02-.01-.03-.02-.02-.01-.03-.01-.03-.02-.02-.01-.03-.01-.03-.01-.03-.01h-.03l-.03-.01-.02-.01h-.03l-.03-.01h-.03-.03l-.03-.01h-.03-.03-.03l-.03.01h-.03-.01-.02.02v-.02-.02-.02l-.01-.02v-.02-.02l-.01-.02v-.02l-.01-.02-.01-.02-.01-.01-.01-.02-.01-.02-.01-.02-.01-.01-.01-.02-.01-.01-.01-.02-.01-.01-.02-.02-.01-.01-.02-.01-.01-.02-.02-.01-.01-.01-.02-.01-.02-.01-.01-.01-.02-.01-.02-.01h-.02l-.02-.01-.02-.01h-.02l-.02-.01h-.02-.02-.02l-.02-.01h-.02v.03l-.13-.64.04-.06.04-.06.05-.05.04-.05.05-.04.05-.05.05-.03.05-.04.05-.03.05-.03.05-.02.05-.02.06-.02.05-.02.05-.01.06-.01.05-.01.06-.01h.06.05.06.06.05.06.06l.06.01h.05l.06.01.06.01h.06l.06.01h.05l.06.01.06.01h.06l.05.01h.06.06l.05.01h.06l3.09-.01h3.06 3.03 2.99 2.96 2.91 2.88l2.83-.01h2.79 2.75 2.7 2.65 2.6 2.55 2.49 2.44 2.39 2.33 2.27 2.2 2.15 2.08 2.02 1.95 1.88 1.81 1.74 1.67 1.59 1.52 1.44 1.36 1.27 1.2 1.11 1.03.94.85.76.67.85l.86-.01h.86.86.86.86.85.86.86.86.86.85.86.86.86.86.85.86.86.86.86.86.85.86.86.86.86.85l.86.01h.86.86.86l.85.01h.86l.86.01h.86l.86.01h.86l.85.01h.86.14.14l.13-.01h.12l.12-.01.12-.01.11-.02.11-.02.1-.02.1-.02.09-.02.09-.03.08-.03.08-.03.08-.04.07-.04.07-.04.06-.05.06-.05.06-.05.05-.06.05-.06.05-.06.04-.07.04-.07.03-.07.03-.08.03-.09.03-.08.02-.09.02-.1.01-.1.01-.11.01-.11.01-.11.01-.12v-.12-.13l-.01-.13-.01-.14-.01-.23-.01-.22-.01-.22-.01-.23-.01-.22v-.22l-.01-.23-.01-.22v-.22l-.01-.23v-.22l-.01-.22v-.23-.22l-.01-.23v-.22-.22-.23-.22-.22-.23l.01-.22v-.23-.22-.22l.01-.23v-.22l.01-.23v-.22l.01-.22v-.23l.01-.22v-.22l.01-.23.01-.22v-.23l.01-.22.01-.22.01-.23v-.22l.01-.1v-.1-.1-.1l-.01-.09v-.09l-.01-.09-.01-.08-.01-.08-.01-.08-.01-.08-.02-.07-.02-.07-.02-.07-.03-.06-.02-.07-.03-.06-.03-.05-.04-.06-.04-.05-.04-.05-.04-.04-.05-.04-.05-.04-.05-.04-.06-.04-.06-.03-.07-.03-.07-.02-.07-.02-.07-.02-.08-.02-.09-.02-.09-.01-.09-.01h-.1l-.1-.01h-.11l-.11.01h-.11l-.14.01-.14.01h-.14l-.14.01-.13.01h-.14-.14l-.14.01h-.14-.14-.14-.14-.13-.14-.14-.14-.14-.14l-.14-.01h-.14-.13-.14l-.14-.01h-.14-.14l-.14-.01h-.14l-.14-.01h-.14-.14l-.13-.01h-.14l-.14-.01h-.14-.14l-.14-.01h-.14-.14-.14l-.14-.01-.03-.02-.03-.02-.04-.02-.03-.02-.04-.01-.03-.02-.04-.01-.04-.02-.03-.01-.04-.01-.04-.01-.04-.01-.03-.01-.04-.01-.04-.01h-.04l-.03-.01h-.04l-.04-.01h-.04-.04-.04-.04-.03l-.04.01h-.04l-.04.01h-.04l-.04.01-.03.01-.04.01-.04.01-.04.01-.03.01-.04.01-.04.02-.03.01-.04.02-.04.01-.03.02-.06-.02-.06-.01-.06-.02-.06-.02-.06-.01-.06-.01-.06-.02-.06-.01-.06-.01-.06-.01-.06-.01-.06-.01-.06-.01-.07-.01-.06-.01h-.06l-.06-.01h-.06l-.06-.01h-.06-.06-.07l-.06-.01h-.06-.06l-.06.01h-.06-.07l-.06.01h-.06l-.06.01h-.06l-.06.01-.06.01-.07.01h-.06l-.06.01-.06.02-.06.01-.06.01.1-.12-.09-.13.05-.12.06-.11.06-.1.06-.11.07-.1.08-.1.07-.09.08-.09.09-.1.08-.08.09-.09.09-.09.09-.08.09-.09.1-.08.09-.08.1-.08.09-.08.1-.09.09-.08.09-.08.1-.09.09-.08.09-.09.08-.08.09-.09.08-.09.08-.1.08-.09.07-.1.07-.1.06-.11.06-.11.06-.11.05-.11.04-.12.04-.13.04-.13.02-.13.02-.14.07.01h.06.07.06l.06-.01.06-.01.07-.01.06-.01.06-.02.05-.02.06-.02.06-.02.06-.02.05-.03.05-.03.06-.03.05-.03.05-.03.05-.04.04-.04.05-.04.04-.04.05-.04.04-.05.04-.04.03-.05.04-.05.03-.05.03-.05.03-.06.03-.05.03-.06.02-.06.02-.05.02-.06.02-.06.01-.07.02-.06v-.06l.01-.07v-.02-.01l.01-.01v-.02-.02-.02-.02-.03-.01-.01-.02-.02-.01l-.01-.02v-.02-.02-.01-.02-.02l-.01-.02v-.02-.01l-.03-.11-.03-.11-.04-.12-.04-.11-.04-.11-.04-.1-.05-.11-.05-.1-.05-.11-.06-.1-.06-.1-.06-.09-.06-.1-.07-.09-.07-.09-.07-.09-.07-.09-.08-.09-.08-.08-.08-.08-.08-.08-.09-.07-.09-.08-.09-.07-.09-.07-.09-.06-.1-.07-.09-.06-.1-.06-.1-.05-.11-.06-.1-.05-.11-.04-.1-.05-.11-.04-.11-.04-.11-.03-.12-.03-.11-.03-.12-.03.01-.04.01-.05.01-.04v-.04-.04-.04-.04-.04l-.01-.04v-.04l-.01-.04-.01-.03-.01-.04-.01-.04-.01-.03-.02-.04-.01-.04-.02-.03-.01-.04-.02-.03-.02-.04-.02-.03-.02-.03-.01-.04-.02-.03-.02-.04-.02-.03-.03-.03-.04-.07-.02-.03-.02-.04-.02-.03-.02-.04-.02-.03-.01-.03-.02-.04-.02-.03-.02-.04-.01-.03.07-.07 4.26-.22.04.02.05.01.05.02.05.01.05.02.05.01.04.02.05.01.05.01.05.01.05.01.05.01.05.01.05.01h.05l.05.01.05.01h.05.05l.05.01h.05.05.05.05.05.05l.05-.01h.05.05l.06-.01.05-.01h.05l.05-.01.05-.01.05-.01.04-.01.05-.01.05-.01.05-.01.05-.02.07.03.07.02.07.02.07.02.07.01.07.02.08.02.07.01.07.02.07.01.07.01.07.01.08.01.07.01.07.01.07.01h.08.07l.07.01h.07.08.07.07.07l.08-.01h.07l.07-.01h.07l.08-.01.07-.01.07-.01.07-.01.07-.01.08-.02.07-.01.07-.01.07-.02.07-.02.07-.02.07-.02.13.04.13.04.12.02.11.02.1.02.1.01h.1.09.08l.08-.01.07-.02.07-.02.06-.02.06-.03.06-.04.05-.04.04-.04.05-.04.03-.05.04-.05.03-.06.03-.06.02-.06.02-.07.02-.07.02-.07.01-.07.01-.08.01-.07.01-.08v-.08l.01-.09v-.08-.09l-.01-.09v-.09-.09l-.01-.09v-.09l-.01-.09.12-.12.12-.12.11-.12.12-.12.12-.11.12-.12.12-.12.11-.12.12-.11.12-.12.12-.12.12-.12.12-.11.11-.12.12-.12.12-.12.12-.11.12-.12.11-.12.12-.12.12-.12.12-.11.12-.12.11-.12.12-.12.12-.12.12-.12.11-.12.12-.12.12-.11.11-.12.12-.12.11-.12.12-.13.12-.12.11-.12.12-.12.11-.12.12-.12.11-.12.05-.06.05-.05.05-.05.06-.05.06-.05.06-.05.06-.05.06-.05.06-.06.06-.05.06-.05.06-.05.06-.06.06-.05.06-.06.06-.05.05-.06.05-.06.05-.06.04-.05.05-.06.04-.07.03-.06.03-.06.03-.06.02-.07.01-.07.02-.06v-.07-.07l-.01-.08-.01-.07-.02-.08-.03-.07-.04-.08-.04-.08-.05-.08-.06-.09-.07-.08-.08-.09-.08-.08-.08-.08-.08-.06-.08-.06-.07-.05-.08-.04-.07-.03-.07-.02-.07-.02-.07-.01h-.06-.07l-.07.01-.06.02-.06.02-.07.02-.06.03-.06.03-.06.04-.06.04-.06.04-.05.05-.06.05-.06.05-.06.06-.05.05-.06.06-.05.05-.06.06-.06.06-.05.06-.06.05-.06.06-.05.06-.06.05-.06.05-.05.05-.06.05-.06.04-.06.04-.07.05-.08.06-.07.06-.07.06-.06.06-.07.07-.06.07-.07.07-.06.07-.06.07-.06.07-.06.07-.07.08-.06.07-.06.08-.06.07-.06.07-.06.07-.07.07-.06.07-.07.07-.06.06-.07.06-.07.06-.07.06-.08.05-.07.05-.08.05-.08.04-.09.04-.08.03-.09.03-.09.03-.1.02-.1.01-.1.01h-.11-.11l-.12-.02-.12-.01-.01-.03v-.01l-.01-.02-.01-.01-.01-.02-.01-.01-.01-.03-.01-.02v-.01l-.01-.02-.01-.01-.01-.02-.01-.01-.01-.03v-.01l-.01-.01-.01-.02-.01-.01-.01-.02-.01-.01-.01-.02-.01-.01v-.01l-.02-.02v-.01l-.01-.01-.01-.03.02-.04.02-.05.01-.04.02-.05.01-.04.02-.05.01-.05.01-.04.01-.05.01-.05.01-.04.01-.05v-.05l.01-.05v-.04-.05-.05-.05-.05-.04l-.01-.05v-.05l-.01-.05-.01-.04v-.05l-.01-.05-.02-.04-.01-.05-.01-.05-.01-.04-.02-.05-.02-.04-.01-.05-.02-.04-.02-.05-.03-.04-.02-.04-.02-.04-.03-.05-.02-.04.01-.04.01-.05.02-.05.01-.04.01-.05.02-.05.01-.04.02-.05.01-.04.02-.05.01-.04.02-.05.01-.04.02-.05.01-.04.02-.05.02-.05.01-.04.02-.05.02-.04.01-.04.02-.05.02-.04.02-.05.02-.04.01-.05.02-.04.02-.04.02-.05.02-.04.02-.05.02-.04.02-.04.02-.05.02-.04.02-.04.02-.05.02-.04.02-.04.02-.05.09-.11.08-.12.08-.12.07-.12.06-.13.06-.13.05-.12.05-.13.04-.13.04-.13.03-.14.03-.13.02-.13.02-.14.01-.13.01-.14v-.13l-.01-.14-.01-.13-.01-.14-.02-.13-.03-.13-.03-.13-.03-.13-.04-.13-.05-.13-.05-.13-.05-.12-.06-.12-.06-.12-.07-.12-.08-.11-.08-.12-.08-.11-.09-.11-.09-.1-.1-.1-.11-.1-.1-.09-.12-.09-.02-.02-.01-.01-.01-.01-.02-.02h-.02l-.01-.01-.02-.02-.01-.01-.01-.01h-.02l-.01-.01-.01-.01-.01-.01-.01-.01h-.02l-.02-.02-.01-.01-.03-.01-.01-.01-.01-.01h-.01l-.01-.01-.02-.01-.01-.01-.02-.01-.01-.01-.02-.01h-.01l-.02-.02h-.02l-.01-.01-.01-.01h-.01l-.12-.1-.12-.08-.12-.08-.12-.08-.12-.06-.13-.07-.13-.06-.12-.05-.14-.05-.13-.04-.13-.04-.13-.03-.14-.02-.13-.03-.14-.01-.14-.01-.13-.01h-.14l-.14.01-.13.01-.14.01-.13.02-.14.03-.13.03-.13.04-.13.04-.13.05-.13.05-.12.05-.13.06-.12.07-.12.07-.11.08-.12.08-.11.09-.11.09-.1.09-.11.1-.1.11-.09.11-.01.02-.02.01-.01.02-.01.02-.01.01-.01.01-.01.01-.01.01-.01.02-.01.01-.02.02-.01.03-.01.01h-.01l-.07.08-.08.08-.07.07-.07.08-.08.07-.07.07-.07.07-.07.07-.07.07-.06.07-.07.07-.07.06-.06.07-.06.06-.07.06-.06.06-.05.06-.06.06-.06.05-.05.06-.06.05-.05.05-.05.05-.05.05-.04.05-.05.04-.04.04-.08.08-.11.11-.06.06-.03.03-.05.05-.02.02-.02.02-.01.01-.05.05-.05.05-.1.09-.04.05-.05.05-.05.04-.04.05-.05.05-.04.04-.05.05-.04.05-.04.05-.04.04-.03.05-.04.05-.03.05-.03.05-.02.05-.02.05-.02.05-.02.06-.01.05-.01.05-.01.06v.05.06l.01.05.01.06.01.06.02.06.03.06.03.06.04.07.04.06.05.07.05.06.06.07.07.07.07.07.07.06.06.06.07.05.06.05.06.04.06.03.06.03.06.03.06.02.05.01.06.01.05.01h.06.05.05l.05-.01.05-.01.05-.01.05-.02.04-.02.05-.03.04-.02.05-.03.05-.03.04-.03.04-.03.05-.04.04-.04.04-.04.05-.04.04-.04.04-.04.04-.04.05-.05.04-.04.04-.04.04-.05.04-.04.05-.05.04-.04.06-.05.05-.06.06-.05.05-.06.06-.05.05-.06.06-.06.05-.05.06-.06.06-.05.05-.06.06-.05.05-.06.06-.05.05-.06.06-.05.05-.06.06-.05.06-.06.11-.11.27-.28.12-.11.05-.05.06-.06.05-.06.06-.05.05-.06.06-.05.05-.06.06-.05.06-.06.05-.05.06-.06.05-.05.04-.04.04-.03.03-.04.04-.03.04-.04.03-.03.04-.03.04-.03.04-.03.04-.03.04-.03.04-.02.04-.03.04-.02.04-.02.04-.03.04-.02.04-.01.04-.02.04-.02.05-.01.04-.01.04-.01.05-.01.04-.01h.05l.04-.01h.05l.04.01h.05.05l.05.01.04.01.05.02.05.01.05.02.05.02.06.02.05.03.05.02.05.03.05.04.05.03.04.03.04.03.04.04.04.03.03.04.03.03.03.04.03.04.03.04.02.04.02.04.02.04.02.04.02.04.01.04.02.05.01.04.01.04.01.05.01.04.01.05v.04l.01.05v.05l.01.04v.05.05.05l.01.04v.05.05.05l-.01.05v.05.05.1.09l-.01.1-.01.09-.02.09-.02.09-.02.09-.03.08-.02.09-.03.08-.04.09-.03.08-.04.08-.04.08-.04.08-.05.08-.04.07-.05.08-.05.08-.04.07-.05.08-.05.07-.05.08-.05.07-.05.08-.05.07-.05.08-.05.08-.04.07-.05.08-.05.08-.04.07-.04.08-.04.08-.04.08-.04.08-.03.09-.03.08-.03.08-.03.09-.02.09-4.8-.26-1.47-.04-.09-.02-.1-.03-.09-.03-.1-.03-.09-.02-.1-.03-.09-.02-.1-.02-.09-.02-.1-.03-.1-.02-.09-.01-.1-.02-.1-.02-.09-.02-.1-.01-.1-.02-.09-.01-.1-.01-.1-.02-.1-.01-.09-.01-.1-.01-.1-.01-.1-.01h-.1l-.09-.01h-.1l-.1-.01h-.1-.1l-.1-.01h-.09-.1l-.1.01h-.1-.1-.1l-.09.01h-.1l-.86-.07-.86-.07-.86-.07-.86-.08-.86-.07-.86-.07-.86-.08-.86-.07-.86-.07-.86-.08-.86-.07-.86-.07-.86-.07-.86-.08-.86-.07-.86-.07-.86-.08-.86-.07-.86-.07-.86-.08-.86-.07-.86-.07-.86-.07-.86-.07-.86-.07-.86-.08-.86-.07-.86-.07-.87-.07-.86-.07-.86-.07-.86-.07-.86-.07-.86-.06-.86-.07-.86-.07-.86-.07-.86-.06-.86-.07-.86-.07-.14-.01-.14-.01-.13-.01-.13-.02-.12-.02-.12-.01-.12-.02-.11-.03-.11-.02-.1-.03-.1-.03-.1-.03-.09-.03-.09-.04-.08-.04-.08-.04-.08-.05-.07-.05-.07-.05-.07-.05-.06-.06-.06-.07-.05-.06-.05-.07-.05-.08-.04-.08-.04-.08-.03-.09-.03-.09-.03-.1-.02-.1-.02-.11-.02-.11-.01-.12v-.12l-.01-.13v-.14l.01-.14v-.14l.02-.15.01-.17v-.17l.01-.17.01-.17.01-.17.01-.17v-.17l.01-.17v-.16l.01-.17.01-.17v-.17-.17l.01-.17v-.17-.17l.01-.17v-.17-.17-.16-.17-.17-.17-.17-.17-.17l-.01-.17v-.17-.17-.17l-.01-.16v-.17l-.01-.17v-.17l-.01-.17v-.17l-.01-.17-.01-.17-.01-.17v-.17-.08-.08-.08-.08-.07-.07l.01-.07v-.07l.01-.07.01-.06.01-.07.01-.06.01-.06.01-.05.02-.06.02-.05.02-.05.02-.04.03-.05.03-.04.03-.04.03-.04.04-.03.04-.03.05-.03.04-.03.05-.03.06-.02.06-.02.06-.02.07-.01.07-.01.07-.01.08-.01h.09.09.09zm4.69 55.25-.12.68-.55.55-.22.17-.13.24-.03.28.07.27.08.12.1.1.11.08.13.06.36.07.35-.06.29-.19.21-.3.02-.06.02-.06.02-.06.01-.06.18-.87-.02-.87-.2-.85-.4-.79-.26.79zm2.54-1.96-.48.74-.45.78 1.21.12.67-.53.45-.84.51-.84-1.19.07zm2.49-1.78-.04.12-.04.11.1.05.11.06.1.04h.08l.06-.05.05-.09.04-.11.04-.12-.11-.05-.1-.07-.1-.04h-.09l-.06.05zm2-2.39-.44.63-.22.85.81-.33.67-.53.48-.72.25-.84-.89.44z"/><path id="e" d="m232.59 427.03c-4.01.47-4.01.47-4.01 4.67.07 1.45.06 2.9-.04 4.35-.27 2.24.37 2.98 2.81 2.95 12.99-.14 25.98-.07 38.96-.05 1.11-.21 2.25-.03 3.24.51-.16.19-.14.48.05.64.04.04.09.07.15.09 0 0 0-.01 0-.02l.51.51c-.02 0-.02 0-.03 0 .17.39.6.61 1.01.5 0 0-.03-.03-.03-.03 0 .66.31 1.02.99 1 0-.01-.01-.01-.03-.03l.51.51c-.01-.01-.02-.02-.02-.02-.01.27.2.49.47.5h.03s-.01-.01-.02-.02l.5.51c-.01-.02-.02-.02-.02-.02 0 .28.23.5.51.5 0 0-.06-.06-.07-.06-.06.4.14.8.5.98.15.47.51.83.97.98l.5.5.5.5c.32.64.83 1.15 1.47 1.47.23.66 1.05 1.01.95 1.84-41.37.03-74.47.03-82.75.03-3.12.02-5.66-2.5-5.68-5.62-.02-3.13 2.5-5.67 5.63-5.69 7.62-.13 13.72 0 15.24 0 1.5.03 1.89-.43 1.88-1.9-.05-7.83 0-15.65 0-23.47h.18c.1-.04.16-.06.17-.06 1.83.28 2.11 2.51 3.78 2.99 1.96 2.68 4.29 5.08 6.91 7.12 1.09 1.25 2.66 1.97 4.32 1.98-.01.27-.03 1.09-.04 1.36z"/><path id="f" d="m232.59 425.66c0-.15.03-.31.06-.46 1.89.06 3.66-.94 4.6-2.59 1.92-2.38 4.95-3.8 6.04-6.9 6.1-.51 12.19-1.06 18.3-1.53 11.45-1.29 22.98-1.79 34.5-1.49 12.63.78 25.27 1.37 37.9 2.12 4.21.25 5.79 1.94 5.61 5.55-.34 3.23-3.23 5.57-6.46 5.23-.06-.01-.12-.01-.19-.02-7.72-.44-15.44-.87-23.17-1.3-6.19-.34-12.39-.63-18.59-.94-8.14-.02-16.27.39-24.37 1.23-11.42.65-22.82 1.62-34.23 2.48 0-.28 0-1.24 0-1.38z"/><path id="g" d="m284.83 385.63c4.67-.16 9.35.34 13.87 1.51 11.87 1.76 23.71 3.75 35.56 5.61 4 .63 5.9 2.93 5.29 6.56-.67 3.03-3.66 4.94-6.69 4.28-.11-.03-.21-.05-.32-.08-22.06-3.6-39.7-6.5-44.11-7.22-2.74-.12-5.48.16-8.13.84-6.64.83-13.25 1.79-19.87 2.7 1.5-3.08.43-6.79-2.47-8.61-.59-.45-1.42-.78-1.6-1.67 14.25-1.97 25.63-3.53 28.47-3.92z"/><path id="h" d="m292.47 338.22c.07-.02.14-.04.2-.05 1.66-.32 3.06-1.4 3.8-2.91.19-.29.65-.41.98-.61 6.45 2.22 12.91 4.41 19.35 6.64 9.33 3.23 16.78 5.88 18.64 6.54 2.9.61 4.76 3.45 4.15 6.36-.05.24-.11.47-.19.7-.99 2.76-4.02 4.19-6.78 3.2-.19-.06-.38-.15-.56-.24-20.69-7.23-37.21-13.12-41.34-14.57-.29-.14-.56-.3-.82-.49-.55-1.97.6-4.02 2.57-4.57z"/><path id="i" d="m311.97 319.61c1.89-.78 1.53-3.02.98-4.82 7.69 3.21 15.4 6.37 23.06 9.67 2.78.86 4.34 3.82 3.47 6.61-.06.2-.14.41-.23.6-1.25 2.88-3.84 3.75-7.28 2.31-8.28-3.48-16.54-7.02-24.81-10.54 1.4-1.51 3.02-2.8 4.81-3.83z"/><path id="j" d="m346.98 424.44c-1.17 0-1.29-.56-1.27-1.49.04-2.49.11-5-.02-7.49-.09-1.59.48-1.8 1.94-1.72 9.07.43 18.18.76 27.29.71-.01.02-.06.14-.06.15-.31 1.67-1.82 2.38-2.82 3.48-.69.77-1.33 1.56-.99 2.56.27 1.39.3 2.83.08 4.24-8.05-.16-16.1-.34-24.15-.44z"/><path id="k" d="m408.11 240.75c-.17.85-.27 1.33-.28 1.42-2.28.93-3.13 3.33-4.97 4.75-2.28 1.66-3.24 4.58-2.4 7.26.21 1.02-.1 2.08-.81 2.84-1.08 1.46-2.93 1.8-4.05 3.12-.17-.11-1.58-1.03-1.76-1.15-.3-1.53-1.52-2.32-2.55-3.29-3.02-2.86-6.01-5.75-8.81-8.84-1.38-1.19-1.53-3.28-.34-4.66.17-.19.36-.37.57-.52 1.16.73 10.39 6.64 11.55 7.38.43.29.89.92 1.44.49.27-.22.24-.87.25-1.34.04-1.53.04-3.05.05-4.58 7.17.19 9.4-1.25 10.94-7.05 1.08.82.9 2.06 1.1 3.18.01.13.03.46.07.99z"/><path id="l" d="m406.93 236.57c-1.54 5.79-3.77 7.23-10.93 7.04-.08.06-.19.06-.26 0 0-.1.06-.86.07-.95-.09-1.9-2-1.66-2.97-2.51-.43-.91-1.28-1.55-2.26-1.73-.03-.04-.21-.38-.23-.43-.58-3.6.83-7.24 3.68-9.52.2-.15.19-.59.27-.89.13.08 1.22.67 1.36.74 3.41 2.54 6.95 4.91 10.6 7.09.13.24.53.93.67 1.16z"/><path id="m" d="m242.72 402.03c.91-3.04.03-6.33-2.29-8.49-.51-.41-.73-1.09-.56-1.72.74-.12 4.49-.7 11.22-1.73l.87-.2c1.13.06 1.77.1 1.89.11 1.07 1.69 2.41 3.2 3.96 4.46 1.19 1 1.34 2.76.35 3.94-.1.12-.2.22-.31.32-.43.47-1 .83-1.11 1.53-2.97 1-6.18.37-9.14 1.4-.98.08-4.4.34-4.88.38z"/><path id="n" d="m326.18 303.99c-.43-.72.51-1.26 1.26-1.34 3.19-.33 3.55-2.32 2.97-4.91 1.99.87 4.01 1.66 5.94 2.63 2.77 1.12 4.1 4.27 2.98 7.04-.06.15-.12.29-.2.44-1.19 2.44-4.14 3.45-6.58 2.26-.3-.15-.59-.33-.86-.54-2.37-.95-4.66-2.1-6.86-3.42 1.13-.28 2.51-.26 1.35-2.16z"/><path id="o" d="m385.11 414.66.02.03.02.04.01.04.01.05v.04l-.01.04-.02.05-.07.06-.11-.05-.11-.04-.1-.02-.11-.01-.09.02-.09.03-.06.06-.05.09-.02.12.01.25.06.2.1.17.14.14.16.12.19.1.19.1.2.09.19.09.19.53.32.49.38.48.4.46.35.49.25.51.09.56-.13.63-.4.71-.91-.07-.9.07-.85.21-.81.33-.75.45-.68.56-.58.66-.48.76-.37.83-.92.24-1.01-.03-6.29-.37-.29-1.17-.1-1.17.06-1.17.24-1.13.39-1.09.55-1.02.7-.93.84-.83.97-.72.09-.07.08-.09.06-.1.07-.12.05-.12.06-.13.05-.13.06-.12.06-.12 8.63-.14.04.03zm-7.77 3.18-.92.65-.64.94-.27 1.13.32 1.29.77 1.03 1.1.66 1.31.2h.06l.05-.01h.06l.06-.01 1.06-.33.82-.69.5-.95.09-1.1v-.02l-.28-1.23-.7-.99-1.02-.66-1.24-.21z"/><path id="p" d="m395.6 260.13c1.12-1.32 2.96-1.66 4.04-3.12.72-.76 1.02-1.82.82-2.84-.84-2.69.12-5.61 2.39-7.26 1.84-1.41 2.7-3.81 4.97-4.75.06 2.88.11 5.76.17 8.63.07.68.11 1.06.12 1.13-.02.15-.1.28-.23.36-.56.09-.8.53-1.07.94-3.37 3.17-6.07 5.71-6.75 6.35-.94 1.2-2.39 1.9-3.92 1.91-.11-.27-.43-1.08-.54-1.35z"/><path id="q" d="m394.3 227.6c-.08.3-.07.74-.27.88-2.85 2.28-4.26 5.92-3.67 9.53-.93-.65-8.32-5.83-9.24-6.48 3-2 5.64-4.48 7.84-7.34 1.07.68 4.27 2.73 5.34 3.41z"/><path id="r" d="m408.2 400.96c-.2.3-.3.46-.32.49-1.13.78-2.14 1.7-3.03 2.74-.58.52-1.16.97-1.88.32-.86-.77-.36-1.43.25-2.05.22-.22 1.99-2 2.21-2.22.72-.73 1.35-1.5.43-2.48-.62-.8-1.76-.95-2.56-.33-.14.11-.27.25-.38.4-.4.4-.78.81-1.2 1.18-.48.62-1.36.73-1.97.26-.07-.06-.13-.11-.19-.17-.8-.82.08-1.27.49-1.79.55-.68 1.15-1.34 1.67-2.05.42-.48.38-1.22-.11-1.65-.03-.03-.06-.05-.09-.08-.5-.42-1.25-.37-1.68.13-.02.02-.03.04-.05.06-.76.73-1.55 1.42-2.23 2.21-1.45 1.68-2.52 1.4-3.37-.53 1.39.22 1.82-.56 1.81-1.78 1.27-.31 1.83-1.51 2.75-2.25 1.37-1.41 3.62-1.45 5.03-.08.36.34.63.75.82 1.2.48 1.44 1.74 2.48 3.25 2.68.01.29.09 2.62.1 2.91-.21.44-.21.96 0 1.4.03.2.12.69.25 1.48z"/><path id="s" d="m237.23 422.6c-.93 1.65-2.7 2.65-4.6 2.6-.74-.44-.48-1.17-.55-1.81 3.24-1.02 4.31-2.78 4.39-7.24-.09-.05-.12-.16-.08-.25.01-.02.02-.04.03-.05 2.31.45 4.58-.43 6.86-.15-1.1 3.1-4.13 4.52-6.05 6.9z"/><path id="t" d="m255.37 389.43.45-.08c.32.12.5.19.54.2.18.89 1.01 1.23 1.59 1.69 2.9 1.81 3.97 5.52 2.48 8.6-.06.1-.13.18-.22.24-.07 0-.41 0-1.02 0-1.48.09-2.3.13-2.46.14.11-.7.69-1.06 1.11-1.53 1.17-1.02 1.29-2.78.27-3.95-.09-.11-.2-.21-.31-.3-1.55-1.26-2.88-2.76-3.95-4.45 0 0 .5-.18 1.52-.56z"/><path id="u" d="m381.13 231.55c-.79-.23-1.5-.7-2.01-1.35 3.02-2 5.68-4.49 7.89-7.37.79.23 1.48.71 1.96 1.38-2.2 2.86-4.85 5.34-7.84 7.34z"/><path id="v" d="m287.04 285.03c.72.99 1.54-.05 2.84-.05-2.67 1.65-.13 2.9-.25 4.32-1.6-.98-3.6-1.05-5.26-.17-.06-1.32 1.56-2.43.48-3.89.73-.24 1.32-1.42 2.19-.21z"/><path id="w" d="m376.41 414.7c-.19.34-.29.82-.58 1.01-3.11 1.93-4.5 5.74-3.36 9.22.01.01.05.05.11.13l-.07.16h-1c-.22-.19-.35-.3-.37-.32.22-1.41.19-2.85-.08-4.26-.34-.98.29-1.78.99-2.55 1-1.11 2.5-1.82 2.81-3.49.31.02 1.4.09 1.55.1z"/><path id="x" d="m357.96 356.77c1.5 1.12 2.06 3.02 3.38 4.26-1.17-.01-2.31-.25-3.38-.71 1.29-1.18-1.3-2.29 0-3.55z"/><path id="y" d="m309.16 288.95c-.37-.49-.57-1.09-.57-1.7 1.64.5 3.19 1.27 4.57 2.29-1.27.94-3.06.68-4-.59z"/><path id="z" d="m281.85 280.52c-.28.7-.46 1.66-1.39 1.72-1.17.08-1.2-.98-1.39-1.79.86-.56 1.84-.93 2.86-1.09.03.39 0 .78-.08 1.16z"/><path id="A" d="m345.84 347.71c-.11-.62.07-.93.75-.74.42.12 3.72 1.07 4.13 1.19-.31.67-1.55.43-1.46 1.49-1.2-.54-2.03-1.72-3.42-1.94z"/><path id="B" d="m303.87 284.91c-.58 1.18-1.64.99-2.48.64-.85-.35-.43-1.24-.35-1.93.56.26 2.26 1.03 2.83 1.29z"/><path id="C" d="m316.34 302.15c-1.27-.29-2.46-.89-3.45-1.73 2.25-1.67 2.26 1.22 3.45 1.73z"/><path id="D" d="m286.29 277.92c.66-.73 1.77-.82 2.55-.21-.77 1.03-1.56 1.89-2.55.21z"/><path id="E" d="m347.83 358.02c-1.39 0-2.53-.24-1.96-2.07 1.33.04 1.52 1.17 1.96 2.07z"/><path id="F" d="m282.91 450.25c.1-.84-.71-1.19-.95-1.85 1.27-.09 1.73.75 1.99 1.76-.21.02-.83.07-1.04.09z"/><path id="G" d="m217.03 413.08.04-.98.37-.98c.39-.03.6-.05.65-.06.07.87-.1 1.73-.51 2.5-.01 0-.07.02-.17.06h-.18z"/><path id="H" d="m350.71 358.73c-.97-.02-1.92-.27-2.78-.73.96.09 2.19-.77 2.78.73z"/><path id="I" d="m305.55 296.9c.08-.59.13-.92.14-.98 1 .05.97.77.96 1.48-.14-.07-.51-.24-1.1-.5z"/><path id="J" d="m387.99 425.63c-.53.66-1.02.64-1.49-.06.47-.25 1.04-.23 1.49.06z"/><path id="K" d="m299.39 282.84c.63.02 1.22.31 1.63.79-.78.22-1.49.3-1.63-.79z"/><path id="L" d="m407.87 252.31c0 .15-.03 1.34-.04 1.49-.42.04-.83-.17-1.02-.55.27-.41.51-.86 1.06-.94z"/><path id="M" d="m291.17 278.95c-.72.75-.86.2-.97-.43 0 0 .97.43.97.43z"/><path id="N" d="m286.32 342.21c.15-.22.28-.55.47-.6.33-.09.43.25.5.54-.19.01-.77.04-.97.06z"/><path id="O" d="m304.23 296.31c-.37.06-.75-.11-.95-.43.71-.69.86-.15.95.43z"/><path id="P" d="m383.13 425.38.95-.18.1.13c-.06.08-.1.12-.11.12-.03.61-.48.66-.94.7 0-.11 0-.36 0-.77z"/><path id="Q" d="m258.71 401.33c-.16-.58.34-.24.51-.36 0 0-.46.33-.51.36z"/><path id="R" d="m273.46 439.61c.02-.05.05-.1.09-.15h.03c.06.23.11.48.17.73-.24-.08-.37-.34-.29-.58z"/><path id="S" d="m382.71 241.65c-1.48 1.06-1.82 3.12-.76 4.61.15.21.33.4.53.57 2.8 3.1 5.79 5.98 8.81 8.85 1.03.97 2.25 1.76 2.55 3.29-2.86-1.37-5.58-3-8.14-4.87-.93-2.72-3.46-4.07-5.22-6.07-1.84-2.17-1.75-5.37.2-7.43.79.07 1.52.45 2.03 1.05z"/><path id="T" d="m407.78 392.27c-2.01-.68-2.99-2.56-4.46-3.89-.42-.33-.48-.94-.15-1.35.04-.06.09-.11.15-.15 1.46-1.29 2.39-3.24 4.45-3.86.14 1.73.25 3.11.28 3.45-1.69.59-.79 1.24-.05 1.87-.05.79-.2 3.54-.22 3.93z"/><path id="U" d="m355.69 354.43c-.34.43.06 1.39-.92 1.41-.3.02-.57-.21-.58-.52-.01-.03-.01-.06 0-.09.08-.82.35-1.55 1.29-1.72.3-.06.58-.11.95-.17.06.93-.53.83-.74 1.09z"/><path id="V" d="m352.11 351.73c-.04.43-.3.82-.75.69-.99-.27-.53-1.16-.67-1.79.78-.02 1.51.05 1.42 1.1z"/><path id="W" d="m349.25 349.66c.7 0 1.39 0 1.45.96-.7.01-1.4.01-1.45-.96z"/><path id="X" d="m349 357.34c-.12 0-.23-.13-.34-.2.12-.06.25-.18.37-.17.12 0 .23.12.36.21-.14.06-.27.17-.39.16z"/><path id="Y" d="m353.33 353.63-.22-.1z"/><path id="Z" d="m352.92 353.41.22.1z"/><path id="aa" d="m228.52 385.53c-1.29.07-1.78 1.23-2.59 1.95-2.74 2.88-5.62 5.62-8.63 8.2-.01-.3-.05-2.72-.06-3.02 3-2.58 5.86-5.33 8.55-8.23.93-.75 1.76-1.61 2.62-2.42.26 1.15.3 2.35.11 3.52z"/><path id="ab" d="m282.95 283.58c-.32-.27-1.04-.39-.63-1 .27-.4.59-1 1.3-.82.51.13 1.16.17 1.21.9.06.86.04 1.72.06 2.59-.66-.54-1.3-1.11-1.94-1.67z"/><path id="ac" d="m280.64 288.56c-.1-.31.07-.64.37-.75.08-.02.17-.03.26-.02.31-.02.57.21.59.52v.06c.05.32-.17.61-.48.65-.01 0-.03.01-.05.01-.34 0-.62-.1-.69-.47z"/><path id="ad" d="m299.16 292.48c-.31-.09-.5-.23-.32-.46.13-.16.33-.26.54-.26.11 0 .19.3.29.46-.1.05-.41.21-.51.26z"/><path id="ae" d="m315.31 292.74c0 .22.07.53-.05.66-.34.36-.33-.08-.34-.24 0-.23.04-.47.09-.7.14.12.29.19.3.28z"/><path id="af" d="m279.22 288.73c.09-.08.18-.15.28-.21.03 0 .17.09.17.13-.03.12-.07.24-.13.35-.06-.05-.29-.24-.32-.27z"/><path id="ag" d="m295.95 283.17s-.18-.05-.18-.1c-.01-.13 0-.26.02-.39.31.3.24.4.16.49z"/><path id="ah" d="m283.29 280.35c-.01.07-.03.14-.06.21-.06 0-.17-.04-.17-.07.01-.07.03-.14.06-.2.06 0 .17.04.17.06z"/><path id="ai" d="m305.49 295.81.09-.09z"/><path id="aj" d="m315.33 291.24c-.3-.3.13-.26.18-.39.02.01-.15.36-.18.39z"/><path id="ak" d="m392.79 406.14c.29-1.17 1.43-1.96 1.46-3.25 0-.66 0-1.3-.66-1.7-.66-.39-1.23-.05-1.73.44-.74.73-1.48 1.48-2.22 2.21-.57.57-1.08 1.3-1.99.43-1.01-.96-.25-1.53.39-2.16.64-.62 1.37-1.36 2.04-2.05 1.14-1.59 3.36-1.97 4.95-.83.07.05.14.1.21.15 1.7.92 2.34 3.05 1.42 4.75-.09.17-.2.33-.32.48-.28.57-.51 1.17-.68 1.79-.06.01-.38.03-.94.08-1.03-.18-1.68-.3-1.93-.34z"/><path id="al" d="m395.7 412.1c.2-2.08.32-3.23.34-3.46 1.63.28 2.04-1.32 3.05-1.99.77-.53 1.37-2.04 2.52-.81s-.3 1.84-.94 2.52c-1.52 1.62-3.12 3.17-4.69 4.75-.04-.14-.13-.47-.28-1.01z"/><path id="am" d="m383.12 425.38c-1.45-.16-2.26-.26-2.43-.28.91-2.63 3.58-4.24 6.33-3.8-.23 1.87-2.29 2.35-2.95 3.91-.12.02-.44.08-.95.17z"/><path id="an" d="m385.55 416.45c1.55.32 2.78 1.51 3.15 3.05.13.86-.46 1.66-1.33 1.79-.12.02-.24.03-.37.02 1.68-2.27-1.12-3.2-1.45-4.86z"/><path id="ao" d="m279.48 445.05c1.76-.87 2.59.25 3.2 1.59.32.67-.31.73-.76.82-.1-.03-.57-.2-1.42-.5.01-.28-.21-.5-.48-.5-.01 0-.01 0-.02 0l-.5-.51c-.01-.48-.02-.78-.02-.9z"/><path id="ap" d="m352.49 448.51c-.07.51-.54.86-1.04.79-.08-.01-.16-.04-.24-.07-.37-.12-.58-.52-.46-.9.06-.18.18-.33.35-.42 1.16-.6.29-1.73.95-2.79.65 1.01.81 2.26.44 3.39z"/><path id="aq" d="m353.38 446.25c.7-.97.84-2.39 2.84-2.1-.86.97-.75 2.83-2.84 2.1z"/><path id="ar" d="m358.14 442.03c.17-1.31.87-1.82 2.21-2.42-.16 1.19-1.04 2.16-2.21 2.42z"/><path id="as" d="m384.33 415.21c.03-.41.43-.36.74-.2.21.47.64.87.5 1.46-.55-.29-1.3-.43-1.24-1.26z"/><path id="at" d="m281.92 447.46c0 .32.03.64.05.96-.64-.32-1.15-.83-1.47-1.47 0 0 1.27.46 1.42.51z"/><path id="au" d="m357.11 443.33c-.09.04-.26-.09-.39-.15.06-.14.08-.34.18-.38s.28.1.4.15c-.06.14-.09.34-.19.38z"/><path id="av" d="m279.48 445.04c.04.58.06.89.07.96-.46-.15-.83-.51-.97-.98 0-.16 0-.31 0-.47.12.06.42.23.9.49z"/><path id="aw" d="m276.17 442.13c-.68 0-.99-.34-.99-1 0 0 .99 1 .99 1z"/><path id="ax" d="m274.21 440.66c.41-.06.81.14 1 .5-.41.11-.84-.11-1-.5z"/><path id="ay" d="m278.57 444.55v.48c-.36-.19-.56-.59-.49-.99.1.1.39.41.49.51z"/><path id="az" d="m408.32 438.66c.23-.26.37-.15.48.11 0 0-.48-.11-.48-.11z"/><path id="aA" d="m273.72 440.17c.29 0 .51.23.51.51 0 0-.45-.46-.51-.51z"/><path id="aB" d="m276.65 442.61-.51-.51z"/><path id="aC" d="m277.14 443.09c-.27.01-.5-.2-.51-.47 0-.01 0-.02 0-.03.1.1.4.4.51.5z"/><path id="aD" d="m277.62 443.58-.51-.51z"/><path id="aE" d="m278.11 444.07c-.28 0-.51-.23-.51-.51 0 0 .51.51.51.51z"/><path id="aF" d="m221.35 416.56c.01-.01.09-.1.1-.11.48.05.9-.29.95-.77.01-.06.01-.12 0-.18.01-.01.09-.09.1-.1 2.86 2.11 5.42 4.59 7.62 7.37-.76-.18-1.53.2-1.86.91-2.62-2.04-4.95-4.44-6.91-7.12z"/><path id="aG" d="m218.09 411.06c1.86.99 3.4 2.49 4.43 4.32-.01.01-.09.09-.1.1-.48-.05-.9.29-.96.77v.19c-.01.01-.09.1-.1.11-1.66-.48-1.95-2.71-3.78-2.99.41-.77.59-1.63.51-2.5z"/><path id="aH" d="m230.13 422.76c.2.07 1.76.57 1.96.63.07.64-.19 1.38.56 1.81-.03.15-.05.3-.06.46-1.66-.01-3.24-.73-4.33-1.98.33-.72 1.11-1.1 1.87-.92z"/><path id="aI" d="m279.54 445.98.5.5z"/><path id="aJ" d="m280.02 446.47c.27-.01.5.21.5.48v.02c-.1-.1-.4-.4-.5-.5z"/><path id="aK" d="m230.13 422.76c-2.2-2.78-4.76-5.26-7.61-7.37-1.03-1.83-2.57-3.32-4.43-4.31-.06 0-.58.05-.65.05-.3-1.57-.31-3.17-.04-4.75 1.79-1.69 1.3-3.35-.09-4.99-.23-1.89-.23-3.8 0-5.68 3.02-2.59 5.9-5.33 8.64-8.21.8-.71 1.3-1.87 2.59-1.95.02.72.2 6.47.23 7.19-.09.14-.09.32 0 .46-.03.8-.66 1.25-1.06 1.84-2.07 2.89-1.77 6.85.71 9.4.06 2.8.14 5.61.17 8.42.03 3.75 0 3.76 3.85 3.55 1.36-.07 2.71-.16 4.07-.24-.11 4.45-1.17 6.2-4.42 7.22-.39-.12-1.76-.56-1.96-.63z"/><path id="aL" d="m227.68 395.02c.41-.59 1.03-1.03 1.06-1.84.79-.1 1.62.18 2.36-.32.88-.1 7.89-.94 8.77-1.04-.17.64.05 1.31.56 1.73 2.32 2.16 3.2 5.45 2.29 8.48-3.96 1-8.03 1.2-12.03 1.84-.8.01-1.58.2-2.3.54-2.48-2.55-2.78-6.5-.71-9.39z"/><path id="aM" d="m408.06 386.5c.44.54.41 1.33-.06 1.84-.74-.63-1.64-1.29.06-1.84z"/><path id="aN" d="m375.53 420.8c-.01-.07-.02-.15-.02-.22.09-1.61 1.35-2.9 2.96-3.03 1.75-.04 3.2 1.34 3.24 3.09.17 1.53-.93 2.91-2.45 3.08-.01 0-.01 0-.01 0-1.83.22-3.5-1.08-3.72-2.92z"/><path id="aO" d="m217.4 406.37c-.31-1.64-.34-3.33-.09-4.99 1.39 1.64 1.88 3.3.09 4.99z"/><path id="aP" d="m222.23 415.5h.18c.05.48-.29.9-.76.95-.06.01-.13.01-.19 0-.05-.47.3-.9.77-.95z"/></defs><use fill="#03a6a6" opacity=".22" xlink:href="#a"/><use fill="none" opacity=".22" xlink:href="#a"/><use fill="#03a6a6" xlink:href="#b"/><use fill="none" xlink:href="#b"/><use fill="#03a6a6" xlink:href="#c"/><use fill="none" xlink:href="#c"/><use fill="#03a6a6" xlink:href="#d"/><use fill="none" xlink:href="#d"/><use fill="#03a6a6" xlink:href="#e"/><use fill="none" xlink:href="#e"/><use fill="#03a6a6" xlink:href="#f"/><use fill="none" xlink:href="#f"/><use fill="#03a6a6" xlink:href="#g"/><use fill="none" xlink:href="#g"/><use fill="#03a6a6" xlink:href="#h"/><use fill="none" xlink:href="#h"/><use fill="#03a6a6" xlink:href="#i"/><use fill="none" xlink:href="#i"/><use fill="#03a6a6" xlink:href="#j"/><use fill="none" xlink:href="#j"/><use fill="#03a6a6" xlink:href="#k"/><use fill="none" xlink:href="#k"/><use fill="#03a6a6" xlink:href="#l"/><use fill="none" xlink:href="#l"/><use fill="#03a6a6" xlink:href="#m"/><use fill="none" xlink:href="#m"/><use fill="#03a6a6" xlink:href="#n"/><use fill="none" xlink:href="#n"/><use fill="#03a6a6" xlink:href="#o"/><use fill="none" xlink:href="#o"/><use fill="#03a6a6" xlink:href="#p"/><use fill="none" xlink:href="#p"/><use fill="#03a6a6" xlink:href="#q"/><use fill="none" xlink:href="#q"/><use fill="#03a6a6" xlink:href="#r"/><use fill="none" xlink:href="#r"/><use fill="#03a6a6" xlink:href="#s"/><use fill="none" xlink:href="#s"/><use fill="#03a6a6" xlink:href="#t"/><use fill="none" xlink:href="#t"/><use fill="#03a6a6" xlink:href="#u"/><use fill="none" xlink:href="#u"/><use fill="#03a6a6" xlink:href="#v"/><use fill="none" xlink:href="#v"/><use fill="#03a6a6" xlink:href="#w"/><use fill="none" xlink:href="#w"/><use fill="#03a6a6" xlink:href="#x"/><use fill="none" xlink:href="#x"/><use fill="#03a6a6" xlink:href="#y"/><use fill="none" xlink:href="#y"/><use fill="#03a6a6" xlink:href="#z"/><use fill="none" xlink:href="#z"/><use fill="#03a6a6" xlink:href="#A"/><use fill="none" xlink:href="#A"/><use fill="#03a6a6" xlink:href="#B"/><use fill="none" xlink:href="#B"/><use fill="#03a6a6" xlink:href="#C"/><use fill="none" xlink:href="#C"/><use fill="#03a6a6" xlink:href="#D"/><use fill="none" xlink:href="#D"/><use fill="#03a6a6" xlink:href="#E"/><use fill="none" xlink:href="#E"/><use fill="#03a6a6" xlink:href="#F"/><use fill="none" xlink:href="#F"/><use fill="#03a6a6" xlink:href="#G"/><use fill="none" xlink:href="#G"/><use fill="#03a6a6" xlink:href="#H"/><use fill="none" xlink:href="#H"/><use fill="#03a6a6" xlink:href="#I"/><use fill="none" xlink:href="#I"/><use fill="#03a6a6" xlink:href="#J"/><use fill="none" xlink:href="#J"/><use fill="#03a6a6" xlink:href="#K"/><use fill="none" xlink:href="#K"/><use fill="#03a6a6" xlink:href="#L"/><use fill="none" xlink:href="#L"/><use fill="#03a6a6" xlink:href="#M"/><use fill="none" xlink:href="#M"/><use fill="#03a6a6" xlink:href="#N"/><use fill="none" xlink:href="#N"/><use fill="#03a6a6" xlink:href="#O"/><use fill="none" xlink:href="#O"/><use fill="#03a6a6" xlink:href="#P"/><use fill="none" xlink:href="#P"/><use fill="#03a6a6" xlink:href="#Q"/><use fill="none" xlink:href="#Q"/><use fill="#03a6a6" xlink:href="#R"/><use fill="none" xlink:href="#R"/><use fill="#03a6a6" xlink:href="#S"/><use fill="none" xlink:href="#S"/><use fill="#03a6a6" xlink:href="#T"/><use fill="none" xlink:href="#T"/><use fill="#03a6a6" xlink:href="#U"/><use fill="none" xlink:href="#U"/><use fill="#03a6a6" xlink:href="#V"/><use fill="none" xlink:href="#V"/><use fill="#03a6a6" xlink:href="#W"/><use fill="none" xlink:href="#W"/><use fill="#03a6a6" xlink:href="#X"/><use fill="none" xlink:href="#X"/><use fill="#03a6a6" xlink:href="#Y"/><use fill="none" xlink:href="#Y"/><use fill="#03a6a6" xlink:href="#Z"/><use fill="none" xlink:href="#Z"/><use fill="#03a6a6" xlink:href="#aa"/><use fill="none" xlink:href="#aa"/><use fill="#03a6a6" xlink:href="#ab"/><use fill="none" xlink:href="#ab"/><use fill="#03a6a6" xlink:href="#ac"/><use fill="none" xlink:href="#ac"/><use fill="#03a6a6" xlink:href="#ad"/><use fill="none" xlink:href="#ad"/><use fill="#03a6a6" xlink:href="#ae"/><use fill="none" xlink:href="#ae"/><use fill="#03a6a6" xlink:href="#af"/><use fill="none" xlink:href="#af"/><use fill="#03a6a6" xlink:href="#ag"/><use fill="none" xlink:href="#ag"/><use fill="#03a6a6" xlink:href="#ah"/><use fill="none" xlink:href="#ah"/><use fill="#03a6a6" xlink:href="#ai"/><use fill="none" xlink:href="#ai"/><use fill="#03a6a6" xlink:href="#aj"/><use fill="none" xlink:href="#aj"/><use fill="#03a6a6" xlink:href="#ak"/><use fill="none" xlink:href="#ak"/><use fill="#03a6a6" xlink:href="#al"/><use fill="none" xlink:href="#al"/><use fill="#03a6a6" xlink:href="#am"/><use fill="none" xlink:href="#am"/><use fill="#03a6a6" xlink:href="#an"/><use fill="none" xlink:href="#an"/><use fill="#03a6a6" xlink:href="#ao"/><use fill="none" xlink:href="#ao"/><use fill="#03a6a6" xlink:href="#ap"/><use fill="none" xlink:href="#ap"/><use fill="#03a6a6" xlink:href="#aq"/><use fill="none" xlink:href="#aq"/><use fill="#03a6a6" xlink:href="#ar"/><use fill="none" xlink:href="#ar"/><use fill="#03a6a6" xlink:href="#as"/><use fill="none" xlink:href="#as"/><use fill="#03a6a6" xlink:href="#at"/><use fill="none" xlink:href="#at"/><use fill="#03a6a6" xlink:href="#au"/><use fill="none" xlink:href="#au"/><use fill="#03a6a6" xlink:href="#av"/><use fill="none" xlink:href="#av"/><use fill="#03a6a6" xlink:href="#aw"/><use fill="none" xlink:href="#aw"/><use fill="#03a6a6" xlink:href="#ax"/><use fill="none" xlink:href="#ax"/><use fill="#03a6a6" xlink:href="#ay"/><use fill="none" xlink:href="#ay"/><use fill="#03a6a6" xlink:href="#az"/><use fill="none" xlink:href="#az"/><use fill="#03a6a6" xlink:href="#aA"/><use fill="none" xlink:href="#aA"/><use fill="#03a6a6" xlink:href="#aB"/><use fill="none" xlink:href="#aB"/><use fill="#03a6a6" xlink:href="#aC"/><use fill="none" xlink:href="#aC"/><use fill="#03a6a6" xlink:href="#aD"/><use fill="none" xlink:href="#aD"/><use fill="#03a6a6" xlink:href="#aE"/><use fill="none" xlink:href="#aE"/><use fill="#03a6a6" xlink:href="#aF"/><use fill="none" xlink:href="#aF"/><use fill="#03a6a6" xlink:href="#aG"/><use fill="none" xlink:href="#aG"/><use fill="#03a6a6" xlink:href="#aH"/><use fill="none" xlink:href="#aH"/><use fill="#03a6a6" xlink:href="#aI"/><use fill="none" xlink:href="#aI"/><use fill="#03a6a6" xlink:href="#aJ"/><use fill="none" xlink:href="#aJ"/><use fill="#03a6a6" xlink:href="#aK"/><use fill="none" xlink:href="#aK"/><use fill="#03a6a6" xlink:href="#aL"/><use fill="none" xlink:href="#aL"/><use fill="#03a6a6" xlink:href="#aM"/><use fill="none" xlink:href="#aM"/><use fill="#03a6a6" xlink:href="#aN"/><use fill="none" xlink:href="#aN"/><use fill="#03a6a6" xlink:href="#aO"/><use fill="none" xlink:href="#aO"/><use fill="#03a6a6" xlink:href="#aP"/><use fill="none" xlink:href="#aP"/></svg>