<svg height="99.568" viewBox="0 0 90.571 99.568" width="90.571" xmlns="http://www.w3.org/2000/svg"><path d="m155.233 75.184c-.012-.39-.031-.779-.033-1.169-.007-1.477-.007-1.466-1.5-1.66-5.511-.716-11.02-1.456-16.536-2.141-.619-.077-.717-.3-.7-.829.036-.871.039-1.746 0-2.616-.025-.552.1-.717.694-.62 3.351.543 6.71 1.039 10.065 1.557 2.434.376 4.867.752 7.3 1.151.508.083.675-.03.69-.575.061-2.208.078-2.2-2.062-2.677q-4.875-1.1-9.742-2.229c-.376-.087-.738-.232-1.106-.35-.489-.47-.7-1.173-1.26-1.59-.494.473.47.886-.008 1.326a9.748 9.748 0 0 1 -2.705-.594c-.22-.562-.676-.239-1.035-.275l-.04.009c-.163-.335-.233-.756-.731-.774q0-1.536-.008-3.071c.517.078.826.521 1.27.726.019.361.28.361.54.363.051.237-.121.569.248.669.17.047.265-.095.279-.258.034-.391-.238-.414-.52-.418-.022-.359-.282-.36-.543-.359-.033-.4.431-.3.545-.556 2.586.411 5.074 1.229 7.608 1.852 2.916.717 5.817 1.492 8.721 2.255.4.105.573 0 .534-.415a.583.583 0 0 1 0-.09c.114-2.282.124-2.312-2.133-3.034q-7.634-2.443-15.286-4.829c-1.3-.407-1.3-.387-1.3-1.745 0-.692.032-1.386-.013-2.076-.041-.633.16-.689.718-.5 3.859 1.335 7.727 2.641 11.593 3.955 1.933.656 3.874 1.292 5.8 1.973.478.169.681.135.628-.411-.012-.119 0-.241 0-.361 0-2.114-.017-2.066-1.973-2.833-3.271-1.282-6.514-2.634-9.77-3.953-2.143-.868-4.284-1.739-6.433-2.59-.3-.117-.558-.172-.554-.577.014-1.226.005-2.453.005-3.794l18.72 8.049c0-.99 0-1.855 0-2.72 0-.518-.475-.591-.8-.748-2.535-1.24-5.088-2.443-7.625-3.678-3.239-1.576-6.464-3.181-9.708-4.747a.871.871 0 0 1 -.6-.951c.044-.959.027-1.921.006-2.882-.01-.465.091-.6.552-.364q5.407 2.777 10.825 5.53c2.273 1.158 4.552 2.3 6.821 3.472.368.189.56.195.535-.285a.5.5 0 0 1 0-.09 2.755 2.755 0 0 0 -1.833-3.364c-5.683-2.576-11.261-5.384-16.875-8.112-3.242-1.574-6.468-3.18-9.721-4.732a1.209 1.209 0 0 1 -.768-1.319c.042-2.106-.014-4.214.029-6.319.014-.7-.112-.873-.835-.675-3.909 1.07-7.831 2.092-11.75 3.127-.285.076-.575.13-.939.211v-.774q0-8.08 0-16.161a2.071 2.071 0 0 1 1.812-2.4c4.625-1.4 9.254-2.779 13.868-4.21a2.826 2.826 0 0 1 2.682.46c3.436 2.361 6.938 4.631 10.406 6.945q4.491 3 8.956 6.044a8.966 8.966 0 0 1 1.631 1.118 12.287 12.287 0 0 1 -2.942 2.749c-.208-.118-.426-.222-.623-.357q-7.719-5.29-15.435-10.584c-.975-.668-1.958-1.323-3.066-2.071 0 1.164.039 2.149-.013 3.129a1.326 1.326 0 0 0 .8 1.5 13.529 13.529 0 0 1 1.592 1.009c3.734 2.4 7.484 4.772 11.2 7.2 2.05 1.34 4.184 2.553 6.131 4.05a2.081 2.081 0 0 0 -.076 2.775c.657.748 1.6 1.249 1.947 2.264q-2.848-1.784-5.7-3.568-6.871-4.288-13.747-8.57c-.67-.417-1.357-.805-2.136-1.265 0 1.272.008 2.383-.005 3.493a.641.641 0 0 0 .374.639c1.894 1.1 3.776 2.218 5.661 3.331q6.083 3.593 12.167 7.186c2.221 1.31 4.452 2.6 6.669 3.92.469.279.555.124.551-.342 0-.687.037-1.375.059-2.062a1.871 1.871 0 0 0 1.462-.713q1.26-1.182 2.518-2.367a.389.389 0 0 0 .383.2c.015.329.043.659.043.988q0 22.835 0 45.67c0 .27.015.54.023.811l-.006.4-.085.335c-.769.23-1.113.953-1.66 1.44a.359.359 0 0 0 0 .56c.547.489.915 1.187 1.665 1.442l.128.532q-.048.276-.095.553a1.476 1.476 0 0 1 -1.213-1 1.327 1.327 0 0 0 -2.18-.418c-.345.286-.553.732-1.027.849zm-16-14.965-.082-.036.072.046.083.037zm15.967-26.466c.344-1-.363-1.494-1.231-1.977-2.1-1.166-4.159-2.394-6.24-3.586q-5.384-3.086-10.774-6.16c-2.161-1.235-4.327-2.46-6.478-3.71-.555-.323-.719-.211-.685.417a11.322 11.322 0 0 1 -.01 2.071c-.115.871.294 1.267 1.008 1.64 3.983 2.088 7.94 4.223 11.91 6.335q5.639 3 11.287 5.983c1.213.64 1.23.615 1.213-1.013zm-29.177-30.167a7.808 7.808 0 0 1 .006-.9c.083-.72-.087-.94-.867-.687-2.166.7-4.367 1.3-6.541 1.984-.759.238-1.859.1-2.2.779s-.075 1.645-.109 2.485c-.021.508.066.685.646.515 2.5-.734 5.021-1.416 7.533-2.115 1.532-.428 1.532-.426 1.532-2.061zm-9.7 10.069a5.889 5.889 0 0 1 -.006.811c-.113.806.151.945.924.708 2.149-.659 4.331-1.209 6.484-1.855.759-.228 1.842-.1 2.2-.757.341-.632.063-1.584.112-2.392.038-.624-.109-.772-.752-.583-2.5.737-5.022 1.41-7.534 2.115-1.436.398-1.433.409-1.432 1.952zm24.145 46.5c-.137.023-.243.04-.348.06-.356.069-.459.34-.488.647a.208.208 0 0 0 .219.227c.363-.009.214-.362.343-.526.073-.098.294-.063.27-.407zm-2.625 1.43c-.048-.03-.091-.076-.135-.077s-.092.04-.139.062c.043.027.084.074.128.077s.09-.037.142-.061z" fill="#fff" transform="translate(-80.042 3.246)"/><path d="m78.367 78.55a8.711 8.711 0 0 1 1.77.871 1.067 1.067 0 0 0 1.706.853c.315.125.693.135.878.491-.021.049-.181.035-.068.146l.1-.118c.994.033 1.708.732 2.563 1.093 1.012.428 1.978.962 2.964 1.451.214.963.082 1.709-1.109 1.83-.28.029-.637.231-.471.5.436.707-.079.7-.5.8a25.9 25.9 0 0 1 -3.169-1.5c-.443-.185-.444-1.26-1.287-.639a10.01 10.01 0 0 1 -2.325-1.129c0-.264.011-.532-.361-.552l-.041-.074-.033.034.074.041-.058.37-.489-.211c-.04-.224-.09-.425-.356-.168-1.726-.752-3.424-1.561-5.084-2.45.044-.534-.9-1 .093-1.614-.487 0-.792.388-1.062.02-.332-.453-.548-.012-.811.083-.006-.323 0-.647-.021-.969-.018-.272-.26-.285-.453-.335-.259-.067-.378.158-.479.307-.154.227.116.268.236.371.239.208.476.419.713.629.4.538-.2.953-.178 1.444-1.481.562-2.959 1.135-4.445 1.686q-6.918 2.565-13.84 5.119c-.812.3-1.89.312-2.366.98-.5.7-.142 1.744-.158 2.636-.029 1.658-.008 1.66 1.551 1.2q7.421-2.192 14.842-4.384c1.7-.5 3.4-.975 5.1-1.474a1.316 1.316 0 0 1 .956-.025q4.5 1.926 9.015 3.832c.207.676.339 1.5-.366 1.8a7.6 7.6 0 0 0 -1.798 1.425c-2.247-.918-4.5-1.82-6.736-2.766a2.114 2.114 0 0 0 -1.551-.087q-5.328 1.643-10.673 3.242c-3.188.957-6.376 1.912-9.577 2.825a.889.889 0 0 0 -.786 1.059c.052 1.17.046 2.346.007 3.517-.02.585.216.639.688.518 3.487-.9 6.977-1.786 10.464-2.684q5.1-1.312 10.193-2.637a1.909 1.909 0 0 1 1.156 0c1.068.391 2.132.794 3.2 1.193-.124.074-.292.118-.363.226a2.011 2.011 0 0 1 -1.422 1.089 1.384 1.384 0 0 0 -1.035 1.725 1.823 1.823 0 0 1 -.973-.242c-.024-.107-.065-.233-.188-.2-.073.019-.117.146-.174.224l-15.43 3.989c-1.831.473-3.659.961-5.5 1.407-.461.112-.633.3-.62.781.031 1.143.035 2.287 0 3.43-.018.587.081.752.74.616 5.524-1.146 11.058-2.245 16.59-3.357 1.354-.272 2.71-.539 4.065-.808a2.539 2.539 0 0 1 1.16.039q4.967 1.3 9.938 2.574c2.385.61 4.776 1.193 7.163 1.8a2.008 2.008 0 0 1 1.732 2.558 2.105 2.105 0 0 1 -2.744 1.351c-5.261-1.361-10.527-2.7-15.771-4.128a6.218 6.218 0 0 0 -3 .158c-4.681.94-9.353 1.92-14.029 2.885a.994.994 0 0 0 -.728.124 4.306 4.306 0 0 0 -1.793.418 3.575 3.575 0 0 0 -1.485.254l-.332.062c-.568.124-1.288-.094-1.558.7-.323.3-.631.624-.971.905-1.142.943-1.935 2.246-3.19 3.069l-.048-.012-.022.045c.016-.36.045-.72.045-1.08q0-19.181-.012-38.362a3.638 3.638 0 0 1 2.442-3.693q9.024-3.861 18.036-7.749c1.709-.735 3.425-1.454 5.124-2.212a1.663 1.663 0 0 1 1.615.082q7.648 4.13 15.32 8.215c.662.354 1.35.659 2 1.025a1.929 1.929 0 0 1 .935 2.724 1.755 1.755 0 0 1 -2.629.643c-2.374-1.22-4.719-2.5-7.077-3.749-2.97-1.576-5.948-3.139-8.908-4.734a1.763 1.763 0 0 0 -1.7.078c-2.712 1.213-5.418 2.441-8.134 3.646q-5.679 2.518-11.371 5c-1.388.6-1.4.573-1.4 2.063 0 .752.039 1.507-.011 2.256-.045.673.194.655.717.464q8.978-3.269 17.959-6.499a.733.733 0 0 1 .177-.02c.074.3.083.7.522.67.346-.021.412-.377.515-.642a1.449 1.449 0 0 0 .031-.432l1.626-.536c.371.626.664.3.951-.079l.506.3c.04.237.094.442.363.162a18.819 18.819 0 0 1 3.067 1.45c.051.407.315.376.6.293l-.053.039.053-.041c-.038.259-.177.594.13.721s.717.204.931-.235zm-8.4 1.534a.214.214 0 0 0 .2-.242.209.209 0 0 0 -.223-.22.219.219 0 0 0 -.234.287c.027.139.13.18.259.175zm6.651 1.288.188-.1c-.035-.06-.068-.169-.106-.171a.277.277 0 0 0 -.205.1c-.061.084.005.139.126.171zm5.914-.006a1.163 1.163 0 0 0 -.037.261c.005.057 0 .223.129.088.045-.047.026-.164.018-.247 0-.031-.057-.057-.108-.102zm-13.232-1.291a.617.617 0 0 0 .045-.131c0-.015-.05-.056-.061-.051a.6.6 0 0 0 -.105.08zm6.2-2.284-.138-.076a.753.753 0 0 0 -.009.147c0 .015.061.042.068.035a.63.63 0 0 0 .079-.106zm-4.862-.967a.227.227 0 0 0 -.023.076c0 .008.04.016.062.023a.227.227 0 0 0 .023-.075c0-.009-.04-.016-.062-.023z" fill="#fff" transform="translate(-37.558 -40.67)"/><path d="m104.349 229.575c.21-.318.532-.183.807-.183q15.47-.01 30.939-.009c4.268 0 8.535-.015 12.8.018.708.006.916-.192.878-.894-.061-1.109-.041-2.225-.005-3.336.017-.521-.09-.773-.677-.737-.688.042-1.38 0-2.071-.011a.552.552 0 0 0 -.553-.023 1.8 1.8 0 0 0 -.909-.042l.039-.045-.035-.048c.243-.579 1.014-.762 1.1-1.461l-.007.007a.588.588 0 0 0 .633-.674 1.526 1.526 0 0 0 -1.174-1.137l.006.007c.056-.221-.106-.367-.185-.542l.027-.025 1.588-.082a1.171 1.171 0 0 0 .741.035 1.812 1.812 0 0 0 1.071.023c.665.212.676-.205.64-.667.585-.587 1.182-1.163 1.749-1.768.239-.255.764-.5.352-.94-.428-.459-.65.1-.94.3-.376.253-.529.848-1.138.744a1.175 1.175 0 0 0 -.087-.156.725.725 0 0 0 -.049-.687 3.531 3.531 0 0 1 .256-.666 1.308 1.308 0 0 0 -.414-1.95 1.325 1.325 0 0 0 -1.921.253q-.378.385-.763.765c-.238.236-.522.45-.145.808.339.322.529.055.742-.155.277-.274.552-.551.829-.826.181-.179.379-.308.638-.16s.252.385.247.631c-.009.483-.438.775-.546 1.212l-1.79-.094-.547-.014a4.058 4.058 0 0 0 -1.443-.175c-4.278-.36-8.554-.737-12.834-1.062-.706-.053-1.016-.214-.949-.983a24.165 24.165 0 0 0 .012-2.522c-.008-.417.017-.636.578-.588 5.833.5 11.668.964 17.5 1.438.317.717.717.824 1.257.2.254-.294.55-.553.832-.823a.443.443 0 0 1 .643-.07.436.436 0 0 1 .074.642c-.191.266-.415.509-.62.765-.155.2-.482.364-.184.666a.525.525 0 0 0 .8-.031c.156-.141.3-.294.45-.442a.68.68 0 0 1 1.1-.027c.348.366.113.653-.157.924l-.825.831c-.228.23-.409.476-.091.762.27.242.485.076.7-.117a5.736 5.736 0 0 1 1.121-1.023q.015 6.52.038 13.04c0 .276-.155.6.127.836l.18.044a1.648 1.648 0 0 0 .9 0c2.523.021 5.046.022 7.568.068a2.071 2.071 0 0 1 2.015 2.779 1.961 1.961 0 0 1 -1.867 1.437c-.6.018-1.2.008-1.8.008q-26.2 0-52.395 0c-.329 0-.658-.03-.987-.047-.105-.38-.271-.693-.744-.658l.006.006-.021-.36c.17-.035.4-.056.286-.308-.234-.5-.537-.919-1.194-.592l-.338-.184-.184-.192.011.012-.191-.191.008.008-.189-.189.008.008-.189-.189.009.009-.19-.19.011.01-.372-.373.013.012a.368.368 0 0 0 -.375-.188l.01.008a.189.189 0 0 0 -.189-.189l.008.009zm29.271 2.119c-.246.394.077.815-.354 1.04a.268.268 0 0 0 .041.493.344.344 0 0 0 .475-.268 1.489 1.489 0 0 0 -.162-1.265zm1.554-.363c-.748-.108-.8.423-1.058.783.777.272.742-.423 1.059-.783zm1.539-1.693c-.5.223-.769.418-.824.9a1.067 1.067 0 0 0 .825-.9zm-1.139 1.247c-.05-.022-.111-.072-.147-.057s-.047.092-.069.142c.05.022.111.072.146.057s.049-.092.071-.142z" fill="#fff" transform="translate(-74.829 -134.057)"/><path d="m36.862 239.472c-1.5.173-1.5.173-1.5 1.74a13.588 13.588 0 0 1 -.012 1.623c-.1.838.138 1.11 1.048 1.1 4.844-.053 9.689-.026 14.533-.02a1.826 1.826 0 0 1 1.207.19.17.17 0 0 0 .074.274l-.008-.009.189.189-.01-.008a.325.325 0 0 0 .375.188l-.013-.012c0 .247.116.381.372.373l-.011-.01.19.19-.009-.009a.181.181 0 0 0 .189.189l-.008-.008.189.189-.008-.008a.19.19 0 0 0 .191.191l-.011-.012a.354.354 0 0 0 .185.369.558.558 0 0 0 .363.363l-.005-.007.187.187-.006-.006.187.186-.006-.005a1.213 1.213 0 0 0 .547.548l-.006-.006c.087.245.393.377.354.687q-15.432.009-30.865.011a2.11 2.11 0 1 1 -.021-4.219q2.842-.048 5.686 0c.559.01.706-.163.7-.711-.02-2.918 0-5.836 0-8.754l.066.008.062-.023c.683.1.789.937 1.411 1.118a13.361 13.361 0 0 0 2.571 2.654 2.155 2.155 0 0 0 1.615.74z" fill="#fff" transform="translate(-22.631 -148.582)"/><path d="m62.026 238.758v-.514c0-.057.011-.114.02-.171a1.909 1.909 0 0 0 1.714-.968c.718-.891 1.848-1.42 2.258-2.577 2.275-.19 4.548-.394 6.825-.568a93.019 93.019 0 0 1 12.869-.557c4.71.292 9.424.51 14.135.791 1.573.094 2.162.727 2.089 2.072a2.191 2.191 0 0 1 -2.478 1.943c-2.882-.155-5.762-.328-8.643-.484-2.312-.125-4.623-.237-6.935-.352a85.331 85.331 0 0 0 -9.088.461c-4.26.243-8.511.61-12.766.924z" fill="#fff" transform="translate(-47.795 -147.867)"/><path d="m86.572 206.961q5.309-.733 10.619-1.463c1.767-.24 3.46.307 5.173.562 4.427.657 8.841 1.4 13.262 2.1 1.494.236 2.2 1.093 1.973 2.448a2.093 2.093 0 0 1 -2.613 1.566q-8.227-1.341-16.452-2.693a10.452 10.452 0 0 0 -3.034.313c-2.473.309-4.941.669-7.411 1.008a2.5 2.5 0 0 0 -.923-3.21c-.218-.174-.529-.299-.594-.631z" fill="#fff" transform="translate(-63.474 -130.053)"/><path d="m121.062 156.011a1.384 1.384 0 0 1 1.035-1.725 2.011 2.011 0 0 0 1.418-1.086c.072-.108.24-.152.363-.226 2.406.824 4.815 1.643 7.218 2.475q3.482 1.207 6.955 2.438a2 2 0 0 1 1.476 2.634 1.975 1.975 0 0 1 -2.735 1.1q-7.716-2.7-15.418-5.436a1.885 1.885 0 0 1 -.312-.174z" fill="#fff" transform="translate(-85.453 -96.542)"/><path d="m139.023 135.689a7.6 7.6 0 0 1 1.793-1.429c.705-.294.573-1.122.366-1.8 2.869 1.2 5.746 2.378 8.6 3.605a1.97 1.97 0 0 1 1.209 2.691c-.469 1.072-1.434 1.4-2.715.86-3.088-1.295-6.168-2.616-9.253-3.927z" fill="#fff" transform="translate(-96.977 -83.439)"/><path d="m188.3 238.782c-3-.058-6-.124-9.007-.165-.436-.006-.478-.209-.473-.556.014-.931.039-1.865-.009-2.794-.031-.594.181-.672.726-.645 3.39.166 6.782.286 10.178.267l-.025.056c-.116.62-.678.886-1.05 1.3-.259.286-.5.584-.368.953a4.591 4.591 0 0 1 .028 1.584z" fill="#fff" transform="translate(-122.391 -148.692)"/><path d="m225.585 53.252-.107.532c-.848.345-1.168 1.243-1.853 1.766a2.442 2.442 0 0 0 -.892 2.706 1.2 1.2 0 0 1 -.3 1.06c-.4.546-1.091.672-1.509 1.164l-.657-.429c-.111-.57-.566-.864-.952-1.229-1.127-1.067-2.241-2.144-3.285-3.3a1.23 1.23 0 0 1 .086-1.936l4.307 2.756c.168.107.333.342.536.181.1-.081.09-.327.095-.5.015-.569.014-1.139.019-1.708 2.672.07 3.5-.465 4.077-2.627.4.3.337.768.411 1.184z" fill="#fff" transform="translate(-145.889 -31.846)"/><path d="m231.084 45.782c-.574 2.162-1.4 2.7-4.077 2.627a.074.074 0 0 1 -.1.005l.027-.354c-.034-.709-.743-.618-1.108-.936a1.165 1.165 0 0 0 -.844-.648l-.084-.155a3.777 3.777 0 0 1 1.372-3.552c.074-.055.069-.217.1-.33l.507.276a46.519 46.519 0 0 0 3.954 2.646z" fill="#fff" transform="translate(-151.826 -25.936)"/><path d="m72.388 214.388-1.821.139a3.1 3.1 0 0 0 -.853-3.165.624.624 0 0 1 -.209-.639l4.184-.648.321-.076.708.041a6.88 6.88 0 0 0 1.477 1.665 1.043 1.043 0 0 1 .014 1.587c-.158.175-.374.311-.414.572-1.105.375-2.304.136-3.407.524z" fill="#fff" transform="translate(-52.558 -132.967)"/><path d="m157.269 118c.422-.1.938-.1.5-.8-.167-.27.191-.473.471-.5 1.191-.121 1.323-.866 1.109-1.83.739.325 1.5.617 2.215.981a2.014 2.014 0 0 1 1.036 2.787c-.566 1.041-1.548 1.291-2.775.639a18.1 18.1 0 0 1 -2.556-1.277z" fill="#fff" transform="translate(-108.632 -72.199)"/><path d="m210.961 235.522a.1.1 0 0 1 .038.129l-.027.025c-.117-.063-.266-.079-.277.072-.022.3.256.362.463.47l-.006-.007c.124.621 1.166.967.541 1.812l.007-.007a2.141 2.141 0 0 0 -2.36 1.421l-.345.089-.375-.013-2.346-.137a2.965 2.965 0 0 1 1.252-3.442c.108-.069.147-.248.217-.376zm-2.16 3.4a1.038 1.038 0 0 0 .917-1.154 1.182 1.182 0 0 0 -1.211-1.153 1.2 1.2 0 0 0 -1.1 1.134 1.247 1.247 0 0 0 1.393 1.176z" fill="#fff" transform="translate(-139.867 -149.269)"/><path d="m230.337 64.18c.419-.492 1.106-.618 1.509-1.164a1.2 1.2 0 0 0 .3-1.06 2.442 2.442 0 0 1 .892-2.706c.685-.523 1.005-1.42 1.853-1.766q.032 1.613.064 3.226l.043.42a.171.171 0 0 1 -.086.133c-.206.035-.3.2-.4.352q-1.252 1.185-2.512 2.368a1.872 1.872 0 0 1 -1.462.713z" fill="#fff" transform="translate(-155.305 -35.546)"/><path d="m220.305 40.2c-.032.113-.026.275-.1.33a3.777 3.777 0 0 0 -1.372 3.552l-3.445-2.412a12.388 12.388 0 0 0 2.924-2.737z" fill="#fff" transform="translate(-145.756 -23.696)"/><path d="m234.12 214.437-.12.182a5.735 5.735 0 0 0 -1.121 1.023c-.217.193-.433.359-.7.117-.318-.286-.137-.531.091-.762l.825-.831c.269-.272.5-.559.157-.924a.68.68 0 0 0 -1.1.027c-.149.148-.294.3-.45.442a.525.525 0 0 1 -.8.031c-.3-.3.029-.471.184-.666.2-.257.428-.5.62-.765a.436.436 0 0 0 -.074-.642.443.443 0 0 0 -.643.07c-.282.269-.578.528-.832.823-.54.626-.941.52-1.257-.2.52.078.681-.209.677-.664.474-.117.682-.563 1.027-.839a1.327 1.327 0 0 1 2.18.418 1.477 1.477 0 0 0 1.213 1l.036 1.086a.616.616 0 0 0 0 .523z" fill="#fff" transform="translate(-154.388 -133.27)"/><path d="m65.689 236.614c-.409 1.157-1.54 1.686-2.258 2.577a1.909 1.909 0 0 1 -1.714.968c-.277-.161-.179-.437-.207-.674 1.211-.38 1.608-1.034 1.639-2.7a.069.069 0 0 1 -.017-.109c.856.164 1.701-.167 2.557-.062z" fill="#fff" transform="translate(-47.465 -149.953)"/><path d="m83.975 209.686.569-.21.17-.033.2.076c.065.332.376.457.594.629a2.5 2.5 0 0 1 .923 3.21.26.26 0 0 1 -.081.089l-.379.008-.918.054c.04-.262.256-.4.414-.572a1.043 1.043 0 0 0 -.014-1.587 6.88 6.88 0 0 1 -1.478-1.664z" fill="#fff" transform="translate(-61.815 -132.612)"/><path d="m216.989 38.023a12.388 12.388 0 0 1 -2.924 2.737 1.467 1.467 0 0 1 -.748-.5 12.287 12.287 0 0 0 2.942-2.749 1.37 1.37 0 0 1 .73.512z" fill="#fff" transform="translate(-144.433 -22.786)"/><path d="m115.691 101.467c.262-.1.479-.536.811-.083.27.368.575-.021 1.062-.02-1 .613-.049 1.08-.093 1.614a1.982 1.982 0 0 0 -1.963-.063c-.021-.491.581-.906.178-1.444z" fill="#fff" transform="translate(-81.957 -63.459)"/><path d="m206.362 235.524.577.036c-.071.128-.109.307-.217.376a2.965 2.965 0 0 0 -1.252 3.442l.04.049-.026.058-.375-.006-.137-.118a4.592 4.592 0 0 0 -.029-1.587c-.128-.369.109-.666.368-.953.373-.411.935-.677 1.051-1.297z" fill="#fff" transform="translate(-139.062 -149.27)"/><path d="m191.231 177.133c.477-.44-.486-.853.008-1.326.561.417.771 1.119 1.26 1.59a3.256 3.256 0 0 1 -1.268-.264z" fill="#fff" transform="translate(-130.237 -111.126)"/><path d="m142.206 104.878a1.067 1.067 0 0 1 -1.706-.853 5.691 5.691 0 0 1 1.706.853z" fill="#fff" transform="translate(-97.921 -65.274)"/><path d="m111.084 95.878a1.449 1.449 0 0 1 -.031.432c-.1.264-.169.62-.515.642-.438.027-.447-.366-.522-.67a2.751 2.751 0 0 1 1.068-.404z" fill="#fff" transform="translate(-78.448 -60.071)"/><path d="m180.212 166.655c-.444-.205-.754-.648-1.27-.726-.044-.231.024-.348.28-.275l1.539.441c-.114.251-.578.16-.545.556z" fill="#fff" transform="translate(-122.468 -104.627)"/><path d="m133.619 100.76c-.214.439-.609.37-.925.238s-.168-.462-.13-.721z" fill="#fff" transform="translate(-92.811 -62.88)"/><path d="m144.935 117.287c.843-.621.844.454 1.287.639a3.046 3.046 0 0 1 -1.287-.639z" fill="#fff" transform="translate(-100.754 -73.624)"/><path d="m118.425 93.91c-.287.384-.579.706-.951.079a.7.7 0 0 1 .951-.079z" fill="#fff" transform="translate(-83.213 -58.717)"/><path d="m178.889 174.956c.5.018.568.44.731.774-.52-.001-.942-.087-.731-.774z" fill="#fff" transform="translate(-122.407 -110.582)"/><path d="m113.353 271.107c.039-.31-.266-.443-.354-.687.473-.035.638.278.744.658z" fill="#fff" transform="translate(-80.354 -171.558)"/><path d="m45.961 232.619.015-.365.137-.366.244-.021a1.673 1.673 0 0 1 -.19.932l-.062.023-.066-.008z" fill="#fff" transform="translate(-37.533 -146.935)"/><path d="m181.119 176.967c.36.036.815-.287 1.035.275a2.321 2.321 0 0 1 -1.035-.275z" fill="#fff" transform="translate(-123.867 -111.828)"/><path d="m137.354 113.337.053-.365c.372.02.362.289.361.552z" fill="#fff" transform="translate(-95.911 -70.989)"/><path d="m220.946 246.733a.552.552 0 0 1 .553.023c-.199.244-.379.239-.553-.023z" fill="#fff" transform="translate(-149.306 -156.39)"/><path d="m131.608 99.764c-.289.083-.553.115-.6-.293a.844.844 0 0 1 .6.293z" fill="#fff" transform="translate(-91.855 -62.366)"/><path d="m241.912 68.3c.1-.153.192-.317.4-.352l-.014.555a.389.389 0 0 1 -.386-.203z" fill="#fff" transform="translate(-162.699 -42.23)"/><path d="m121.87 95.172c-.27.28-.324.075-.363-.162z" fill="#fff" transform="translate(-85.789 -59.516)"/><path d="m117.506 160.365c.057-.078.1-.205.174-.224.124-.031.164.1.188.2z" fill="#fff" transform="translate(-83.233 -101.116)"/><path d="m135.015 112.722c.266-.258.316-.056.356.168a.36.36 0 0 1 -.356-.168z" fill="#fff" transform="translate(-94.417 -70.752)"/><path d="m217.462 246.823v-.286l.354-.064.035.048-.039.045c-.012.226-.18.245-.35.257z" fill="#fff" transform="translate(-147.078 -156.264)"/><path d="m89.164 221.44-.188.137c-.059-.215.127-.089.189-.135z" fill="#fff" transform="translate(-65.002 -140.274)"/><path d="m104.318 261.45a.17.17 0 0 1 -.074-.274l.01-.006c.023.093.046.187.064.28z" fill="#fff" transform="translate(-74.736 -165.652)"/><path d="m185.64 48.349.2.516c-.022.687-.063 1.375-.059 2.062 0 .466-.082.62-.551.342-2.217-1.317-4.447-2.611-6.669-3.92q-6.086-3.589-12.167-7.186c-1.885-1.113-3.767-2.232-5.661-3.331a.641.641 0 0 1 -.374-.639c.013-1.11.005-2.221.005-3.493.778.46 1.466.849 2.136 1.265q6.877 4.28 13.747 8.57 2.851 1.779 5.7 3.568a19.557 19.557 0 0 0 3.037 1.817z" fill="none" stroke="#fff" stroke-miterlimit="10" transform="translate(-110.608 -19.715)"/><path d="m185.716 71.575c.013 1.628 0 1.653-1.215 1.014q-5.652-2.974-11.287-5.983c-3.97-2.112-7.927-4.248-11.91-6.335-.714-.374-1.123-.769-1.008-1.64a11.322 11.322 0 0 0 .01-2.071c-.034-.628.13-.74.685-.417 2.152 1.25 4.318 2.475 6.478 3.71q5.387 3.079 10.774 6.16c2.081 1.193 4.144 2.42 6.24 3.586.87.482 1.577.98 1.233 1.976z" fill="none" stroke="#fff" stroke-miterlimit="10" transform="translate(-110.554 -34.577)"/><path d="m132.627 12.679c0 1.635 0 1.634-1.533 2.06-2.513.7-5.031 1.382-7.533 2.115-.58.17-.666-.007-.646-.515.034-.84-.231-1.811.109-2.485s1.441-.541 2.2-.779c2.174-.682 4.374-1.281 6.541-1.984.78-.253.951-.033.867.687a7.808 7.808 0 0 0 -.005.901z" fill="none" stroke="#fff" stroke-miterlimit="10" transform="translate(-86.646 -5.847)"/><path d="m123 36.21c0-1.544 0-1.551 1.428-1.953 2.511-.705 5.032-1.378 7.534-2.115.643-.189.79-.041.752.583-.049.808.229 1.76-.112 2.392-.357.661-1.44.529-2.2.757-2.153.646-4.335 1.2-6.484 1.855-.772.237-1.037.1-.924-.708a5.778 5.778 0 0 0 .006-.811z" fill="none" stroke="#fff" stroke-miterlimit="10" transform="translate(-86.722 -19.309)"/><g fill="#fff"><path d="m213.925 55.854a1.137 1.137 0 0 1 .758.394 1.23 1.23 0 0 0 -.086 1.936c1.044 1.153 2.158 2.231 3.285 3.3.385.364.84.658.952 1.229a19.557 19.557 0 0 1 -3.037-1.817c-.344-1.015-1.291-1.516-1.947-2.264a2.081 2.081 0 0 1 .075-2.778z" transform="translate(-144.458 -34.505)"/><path d="m239.822 204.91-.081 1.463c-.75-.254-1.117-.953-1.665-1.442a.359.359 0 0 1 0-.56c.547-.487.891-1.21 1.66-1.44q.052.645.1 1.29c-.626.211-.29.451-.014.689z" transform="translate(-160.164 -128.451)"/><path d="m188.412 172.266c.024.347-.2.308-.275.408-.129.164.02.517-.343.526a.208.208 0 0 1 -.219-.227c.029-.307.132-.578.488-.647.106-.02.212-.037.349-.06z" transform="translate(-127.99 -108.864)"/><path d="m183.982 169.447c.282 0 .554.027.52.418-.014.164-.109.3-.279.258-.368-.1-.2-.432-.248-.669z" transform="translate(-125.691 -107.063)"/><path d="m183.02 168.819c-.26 0-.521 0-.54-.363.261 0 .521 0 .543.359z" transform="translate(-124.736 -106.428)"/><path d="m182.142 176.088c-.052.025-.1.065-.145.062s-.086-.049-.128-.077c.046-.022.093-.064.139-.062s.086.047.134.077z" transform="translate(-124.346 -111.256)"/><path d="m186.479 172.44.073.047-.083-.037z" transform="translate(-127.284 -108.975)"/><path d="m186.342 172.386-.072-.046.082.036z" transform="translate(-127.157 -108.911)"/><path d="m50.355 201.868a3.516 3.516 0 0 1 .043 1.315c-.482.028-.667.46-.965.727a44.233 44.233 0 0 1 -3.219 3.065l-.021-1.133c1.255-.823 2.049-2.126 3.19-3.069.341-.281.649-.602.972-.905z" transform="translate(-37.681 -127.772)"/><path d="m114.243 99.646c-.237-.21-.474-.421-.713-.629-.119-.1-.389-.145-.236-.371.1-.15.221-.374.479-.307.192.05.435.063.453.335.021.322.016.646.021.969z" transform="translate(-80.513 -61.634)"/><path d="m111.884 105.044c-.129.005-.232-.036-.258-.175a.219.219 0 0 1 .234-.287.209.209 0 0 1 .223.22.213.213 0 0 1 -.199.242z" transform="translate(-79.473 -65.63)"/><path d="m130.5 108.95c-.117-.031-.187-.087-.123-.173a.277.277 0 0 1 .205-.1c.038 0 .071.111.106.171z" transform="translate(-91.442 -68.248)"/><path d="m147.068 109.409c.051.045.108.071.111.1.008.083.026.2-.018.247-.128.135-.124-.031-.129-.088a1.164 1.164 0 0 1 .036-.259z" transform="translate(-102.092 -68.714)"/><path d="m110.294 105.516-.121-.1a.6.6 0 0 1 .105-.08c.011-.005.063.035.061.051a.6.6 0 0 1 -.045.129z" transform="translate(-78.549 -66.11)"/><path d="m127.4 99.38a.664.664 0 0 1 -.079.106c-.007.007-.066-.02-.068-.035a.753.753 0 0 1 .009-.147z" transform="translate(-89.459 -62.258)"/><path d="m114.162 96.838c.022.008.062.015.062.023a.227.227 0 0 1 -.023.076c-.022-.008-.062-.015-.062-.023a.227.227 0 0 1 .023-.076z" transform="translate(-81.082 -60.684)"/><path d="m137.369 112.841-.074-.041.033-.033z" transform="translate(-95.873 -70.858)"/><path d="m147.49 107.773-.1.118c-.113-.111.047-.1.068-.146z" transform="translate(-102.299 -67.651)"/><path d="m223.735 221.766c.108-.437.536-.729.546-1.212 0-.246 0-.489-.247-.631s-.457-.019-.638.16c-.277.275-.552.552-.829.826-.212.21-.4.477-.742.155-.377-.358-.093-.573.145-.808q.383-.38.763-.765a1.325 1.325 0 0 1 1.921-.253 1.308 1.308 0 0 1 .414 1.95 3.531 3.531 0 0 0 -.256.666l-.351.029z" transform="translate(-149.751 -138.67)"/><path d="m230.443 228.494q.063-.646.125-1.292c.609.1.762-.491 1.138-.744.29-.2.512-.759.94-.3.412.441-.113.685-.352.94-.567.6-1.164 1.18-1.749 1.768z" transform="translate(-155.373 -143.176)"/><path d="m216.21 243.836-.354.064-.906-.1a2.141 2.141 0 0 1 2.36-1.421c-.086.695-.857.878-1.1 1.457z" transform="translate(-145.476 -153.628)"/><path d="m220.505 239.242c.625-.845-.417-1.191-.541-1.812a1.526 1.526 0 0 1 1.174 1.138.588.588 0 0 1 -.633.674z" transform="translate(-148.679 -150.488)"/><path d="m110.442 266.75c.657-.327.959.095 1.194.592.119.252-.116.273-.286.308l-.526-.188.006.005a.184.184 0 0 0 -.187-.186l.006.006-.187-.187.005.006z" transform="translate(-78.721 -169.143)"/><path d="m184.5 267.036a1.489 1.489 0 0 1 .161 1.265.344.344 0 0 1 -.475.268.268.268 0 0 1 -.041-.493c.427-.225.105-.646.355-1.04z" transform="translate(-125.704 -169.399)"/><path d="m187.81 266c-.317.36-.282 1.055-1.058.783.258-.355.311-.883 1.058-.783z" transform="translate(-127.465 -168.731)"/><path d="m192.485 261.344a1.067 1.067 0 0 1 -.824.9c.055-.482.327-.677.824-.9z" transform="translate(-130.6 -165.763)"/><path d="m219.16 236.409c-.206-.108-.485-.167-.463-.47.011-.152.16-.135.277-.072.079.175.241.321.186.542z" transform="translate(-147.869 -149.46)"/><path d="m111.5 268.925.526.188c.007.12.014.24.021.36a1.214 1.214 0 0 1 -.547-.548z" transform="translate(-79.397 -170.606)"/><path d="m190.41 264.69c-.022.05-.033.127-.069.142s-.1-.036-.146-.057c.022-.05.033-.128.069-.142s.095.035.146.057z" transform="translate(-129.663 -167.862)"/><path d="m109.843 266.628.026.357a.558.558 0 0 1 -.363-.363c0-.059 0-.118 0-.177z" transform="translate(-78.122 -169.021)"/><path d="m106.369 263.284c-.256.008-.371-.126-.372-.373z" transform="translate(-75.882 -166.764)"/><path d="m105.372 262.607a.325.325 0 0 1 -.375-.188.368.368 0 0 1 .375.188z" transform="translate(-75.243 -166.448)"/><path d="m109.181 266.1v.177a.354.354 0 0 1 -.185-.369z" transform="translate(-77.798 -168.682)"/><path d="m243.473 260.266c.087-.1.141-.055.18.044z" transform="translate(-163.696 -165.04)"/><path d="m104.689 262.111-.189-.189a.189.189 0 0 1 .189.189z" transform="translate(-74.926 -166.132)"/><path d="m107.188 264.106-.19-.19z" transform="translate(-76.521 -167.406)"/><path d="m107.689 264.608a.181.181 0 0 1 -.189-.189z" transform="translate(-76.842 -167.727)"/><path d="m108.189 265.108-.189-.189z" transform="translate(-77.161 -168.047)"/><path d="m108.691 265.61a.19.19 0 0 1 -.191-.191z" transform="translate(-77.481 -168.366)"/><path d="m53.01 239.428a13.342 13.342 0 0 1 -2.571-2.654l.036-.04a.32.32 0 0 0 .355-.355l.039-.039a15 15 0 0 1 2.839 2.749.611.611 0 0 0 -.698.339z" transform="translate(-40.394 -149.791)"/><path d="m46.532 232.8a1.672 1.672 0 0 0 .19-.931 4.135 4.135 0 0 1 1.653 1.615l-.039.039a.32.32 0 0 0 -.355.355l-.036.04c-.624-.181-.73-1.018-1.413-1.118z" transform="translate(-37.898 -146.935)"/><path d="m57.556 244.282a.611.611 0 0 1 .7-.339l.729.234c.028.237-.069.513.207.674-.009.057-.016.113-.02.171a2.155 2.155 0 0 1 -1.616-.74z" transform="translate(-44.94 -154.645)"/><path d="m110.5 267.923.187.187z" transform="translate(-78.758 -169.966)"/><path d="m111 268.424a.184.184 0 0 1 .187.186z" transform="translate(-79.077 -170.286)"/><path d="m51.649 219.629-.729-.234a15 15 0 0 0 -2.839-2.749 4.13 4.13 0 0 0 -1.652-1.615l-.244.02a5 5 0 0 1 -.015-1.768c.668-.632.485-1.25-.031-1.862a8.694 8.694 0 0 1 0-2.12 44.233 44.233 0 0 0 3.219-3.065c.3-.267.483-.7.965-.727l.083 2.683a.159.159 0 0 0 0 .171c-.009.3-.243.466-.4.684a2.746 2.746 0 0 0 .266 3.506c.022 1.048.053 2.095.062 3.143.011 1.4 0 1.4 1.436 1.324.507-.027 1.013-.06 1.52-.09-.034 1.67-.43 2.319-1.641 2.699z" transform="translate(-37.604 -130.098)"/><path d="m56.32 216.7a2.746 2.746 0 0 1 -.266-3.506c.152-.218.387-.384.4-.684.295-.036.608.065.883-.118l3.263-.392a.624.624 0 0 0 .209.639 3.1 3.1 0 0 1 .853 3.165c-1.474.372-2.992.447-4.487.684a2.034 2.034 0 0 0 -.855.212z" transform="translate(-43.654 -134.247)"/><path d="m242.542 207.192c-.276-.238-.612-.478.021-.689a.531.531 0 0 1 -.021.689z" transform="translate(-162.884 -130.733)"/><path d="m210.983 240.85a1.247 1.247 0 0 1 -1.4-1.174 1.2 1.2 0 0 1 1.1-1.134 1.182 1.182 0 0 1 1.217 1.158 1.038 1.038 0 0 1 -.917 1.15z" transform="translate(-142.047 -151.195)"/><path d="m46.142 221.875c.516.612.7 1.23.031 1.862a5.538 5.538 0 0 1 -.031-1.862z" transform="translate(-37.609 -140.552)"/><path d="m50.54 236.8a.32.32 0 0 1 .355-.355.32.32 0 0 1 -.355.355z" transform="translate(-40.458 -149.86)"/></g></svg>