<svg height="61.826" viewBox="0 0 56.24 61.826" width="56.24" xmlns="http://www.w3.org/2000/svg"><g fill="#03a6a6"><path d="m139.039 45.455c-.007-.242-.02-.484-.021-.726 0-.917 0-.91-.931-1.031-3.422-.445-6.843-.9-10.268-1.329-.384-.048-.445-.186-.432-.515.022-.541.024-1.084 0-1.624-.016-.343.06-.445.431-.385 2.081.337 4.166.645 6.25.967 1.511.233 3.022.467 4.531.714.316.052.419-.019.428-.357.038-1.371.048-1.363-1.281-1.662q-3.027-.682-6.049-1.384c-.233-.054-.458-.144-.687-.218-.3-.292-.434-.728-.783-.987-.307.294.292.55 0 .823a6.053 6.053 0 0 1 -1.68-.369c-.137-.349-.419-.148-.643-.171l-.025.006c-.1-.208-.145-.469-.454-.481q0-.954-.005-1.907c.321.048.513.323.789.451.012.224.174.224.335.225.031.147-.075.353.154.416.106.029.165-.059.173-.16.021-.243-.148-.257-.323-.26-.014-.223-.175-.224-.337-.223-.021-.246.268-.189.338-.345 1.606.255 3.15.763 4.724 1.15 1.81.445 3.612.927 5.416 1.4.249.065.356 0 .331-.258a.366.366 0 0 1 0-.056c.071-1.417.077-1.436-1.324-1.884q-4.74-1.517-9.492-3c-.8-.253-.808-.24-.808-1.083 0-.43.02-.861-.008-1.289-.025-.393.1-.428.446-.308 2.4.829 4.8 1.64 7.2 2.456 1.2.408 2.406.8 3.6 1.225.3.105.423.084.39-.255-.007-.074 0-.149 0-.224 0-1.313-.01-1.283-1.225-1.759-2.031-.8-4.045-1.635-6.067-2.455-1.33-.539-2.66-1.08-3.995-1.608-.183-.072-.347-.107-.344-.358.009-.762 0-1.523 0-2.356l11.624 4.994c0-.615 0-1.152 0-1.689 0-.321-.295-.367-.494-.465-1.574-.77-3.159-1.517-4.735-2.284-2.011-.979-4.014-1.975-6.028-2.947a.541.541 0 0 1 -.373-.591c.027-.6.017-1.193 0-1.79-.006-.288.057-.373.343-.226q3.357 1.724 6.722 3.434c1.412.719 2.827 1.431 4.236 2.156.229.118.348.121.332-.177a.311.311 0 0 1 0-.056 1.711 1.711 0 0 0 -1.138-2.089c-3.529-1.6-6.992-3.343-10.479-5.037-2.013-.978-4.017-1.974-6.036-2.938a.751.751 0 0 1 -.477-.819c.026-1.308-.009-2.616.018-3.924.009-.434-.07-.542-.519-.419-2.427.664-4.863 1.3-7.3 1.942-.177.047-.357.081-.583.131v-.48q0-5.017 0-10.035a1.286 1.286 0 0 1 1.125-1.49c2.872-.867 5.746-1.726 8.611-2.614a1.755 1.755 0 0 1 1.665.286c2.135 1.466 4.31 2.873 6.463 4.312q2.789 1.864 5.561 3.753a5.567 5.567 0 0 1 1.013.694 7.629 7.629 0 0 1 -1.821 1.707c-.129-.073-.265-.138-.387-.221q-4.793-3.279-9.584-6.57c-.605-.415-1.216-.821-1.9-1.286 0 .723.024 1.334-.008 1.943a.823.823 0 0 0 .5.933 8.4 8.4 0 0 1 .988.626c2.319 1.489 4.647 2.963 6.953 4.471 1.273.832 2.6 1.585 3.807 2.515a1.292 1.292 0 0 0 -.047 1.723c.408.464 1 .775 1.209 1.406q-1.768-1.108-3.537-2.216-4.267-2.663-8.536-5.322c-.416-.259-.843-.5-1.326-.786v2.169a.4.4 0 0 0 .232.4c1.176.682 2.344 1.377 3.515 2.068q3.778 2.231 7.555 4.462c1.379.813 2.764 1.616 4.141 2.434.291.173.344.077.342-.212 0-.427.023-.854.036-1.281a1.162 1.162 0 0 0 .908-.443q.783-.734 1.563-1.47a.241.241 0 0 0 .238.126c.009.2.027.409.027.613q0 14.179 0 28.359c0 .168.009.336.014.5v.25l-.053.208c-.477.143-.691.592-1.03.894a.223.223 0 0 0 0 .348c.34.3.568.737 1.034.9l.079.33-.059.343a.917.917 0 0 1 -.753-.619.824.824 0 0 0 -1.354-.26c-.228.165-.357.447-.651.52zm-9.932-9.292-.051-.023.045.029.051.023zm9.915-16.434c.214-.619-.225-.928-.764-1.228-1.3-.724-2.583-1.486-3.875-2.227q-3.343-1.916-6.69-3.825c-1.342-.767-2.687-1.527-4.023-2.3-.345-.2-.446-.131-.426.259a7.031 7.031 0 0 1 -.006 1.286c-.072.541.183.786.626 1.019 2.473 1.3 4.93 2.622 7.4 3.934q3.5 1.863 7.008 3.715c.749.392.757.377.749-.634zm-18.122-18.729a4.85 4.85 0 0 1 0-.56c.052-.447-.054-.584-.539-.427-1.345.437-2.712.808-4.061 1.232-.472.148-1.154.063-1.366.484s-.047 1.022-.068 1.543c-.013.315.041.425.4.32 1.554-.456 3.117-.879 4.678-1.314.956-.268.956-.267.956-1.278zm-6.026 6.252a3.657 3.657 0 0 1 0 .5c-.07.5.094.587.574.44 1.334-.409 2.689-.751 4.026-1.152.471-.142 1.144-.06 1.365-.47.212-.392.039-.984.07-1.485.024-.387-.068-.479-.467-.362-1.554.457-3.119.875-4.678 1.313-.891.249-.89.253-.888 1.212zm14.993 28.875c-.085.015-.151.025-.216.037-.221.043-.285.211-.3.4a.129.129 0 0 0 .136.141c.225-.006.133-.225.213-.327.046-.063.183-.039.168-.255zm-1.63.888c-.03-.018-.056-.047-.084-.048s-.057.025-.086.039c.026.017.052.046.08.048s.059-.028.091-.043z" transform="translate(-92.35 3.246)"/><path d="m66.1 73.606a5.41 5.41 0 0 1 1.1.541.663.663 0 0 0 1.059.53c.2.078.43.084.545.3-.013.031-.112.022-.042.091l.06-.073c.617.02 1.06.454 1.591.679.628.266 1.228.6 1.841.9.133.6.051 1.061-.689 1.136-.174.018-.4.144-.292.311.271.439-.049.434-.312.5a16.083 16.083 0 0 1 -1.968-.931c-.275-.115-.276-.782-.8-.4a6.215 6.215 0 0 1 -1.443-.7c0-.164.007-.331-.224-.343l-.026-.046-.021.021.046.025-.033.227-.3-.131c-.025-.139-.056-.264-.221-.1-1.072-.467-2.126-.969-3.157-1.521.027-.331-.562-.622.058-1-.3 0-.492.241-.659.012-.206-.281-.34-.007-.5.052 0-.2 0-.4-.013-.6-.011-.169-.162-.177-.281-.208-.161-.042-.235.1-.3.191-.1.141.072.166.146.231.148.129.3.26.443.391.25.334-.124.592-.111.9-.92.349-1.838.7-2.76 1.047q-4.3 1.593-8.594 3.178c-.5.187-1.174.194-1.469.608-.31.434-.088 1.083-.1 1.637-.018 1.029 0 1.03.963.745q4.608-1.361 9.216-2.722c1.054-.31 2.112-.605 3.165-.915a.817.817 0 0 1 .594-.016q2.8 1.2 5.6 2.379c.129.42.211.934-.227 1.117a4.72 4.72 0 0 0 -1.113.887c-1.4-.57-2.795-1.13-4.183-1.717a1.313 1.313 0 0 0 -.963-.054q-3.311 1.02-6.629 2.013c-1.98.594-3.959 1.187-5.946 1.754a.552.552 0 0 0 -.488.657c.033.727.028 1.457 0 2.184-.012.363.134.4.427.321 2.165-.558 4.332-1.109 6.5-1.667q3.165-.815 6.329-1.637a1.185 1.185 0 0 1 .718 0c.663.243 1.324.493 1.985.741-.077.046-.181.073-.225.14a1.249 1.249 0 0 1 -.88.674.859.859 0 0 0 -.642 1.071 1.132 1.132 0 0 1 -.6-.151c-.015-.066-.04-.145-.117-.125-.045.012-.073.09-.108.139l-9.582 2.479c-1.137.294-2.272.6-3.413.873-.286.07-.393.187-.385.485.02.709.022 1.42 0 2.13-.011.365.05.467.459.382 3.43-.711 6.867-1.394 10.3-2.084.841-.169 1.683-.334 2.524-.5a1.576 1.576 0 0 1 .72.024q3.084.8 6.171 1.6c1.481.379 2.966.741 4.448 1.116a1.247 1.247 0 0 1 1.075 1.589 1.307 1.307 0 0 1 -1.7.839c-3.267-.845-6.537-1.678-9.793-2.563a3.861 3.861 0 0 0 -1.862.1c-2.906.584-5.808 1.192-8.711 1.792a.617.617 0 0 0 -.452.077 2.674 2.674 0 0 0 -1.113.259 2.22 2.22 0 0 0 -.922.158l-.206.038c-.352.077-.8-.059-.968.432-.2.188-.392.387-.6.562a24.594 24.594 0 0 1 -1.981 1.906l-.03-.007-.029.016c.01-.224.028-.447.028-.67q0-11.911-.008-23.821a2.259 2.259 0 0 1 1.517-2.291q5.6-2.4 11.2-4.812c1.061-.456 2.127-.9 3.182-1.373a1.033 1.033 0 0 1 1 .051q4.749 2.564 9.513 5.1c.411.22.838.409 1.245.637a1.2 1.2 0 0 1 .581 1.692 1.09 1.09 0 0 1 -1.633.4c-1.474-.758-2.93-1.551-4.395-2.328-1.845-.979-3.694-1.949-5.532-2.94a1.1 1.1 0 0 0 -1.053.048c-1.684.753-3.364 1.516-5.051 2.264q-3.524 1.561-7.059 3.104c-.862.375-.87.356-.87 1.281 0 .467.024.936-.007 1.4-.028.418.12.406.445.288q5.569-2.027 11.145-4.032a.455.455 0 0 1 .11-.012c.046.189.052.433.324.416.215-.013.256-.234.32-.4a.9.9 0 0 0 .02-.268l1.01-.333c.231.389.412.189.59-.049l.314.187c.025.147.058.275.226.1a11.686 11.686 0 0 1 1.9.9c.032.253.2.234.375.182l-.033.024.033-.026c-.024.161-.11.369.081.448s.447.129.582-.143zm-5.214.953a.133.133 0 0 0 .123-.151.13.13 0 0 0 -.138-.136.136.136 0 0 0 -.145.178c.014.086.074.111.158.108zm4.13.8.117-.061c-.022-.037-.042-.105-.066-.106a.172.172 0 0 0 -.127.06c-.04.048.001.086.074.106zm3.672 0a.722.722 0 0 0 -.023.162c0 .035 0 .138.08.055.028-.029.016-.1.011-.154-.003-.022-.038-.04-.07-.068zm-8.216-.8a.383.383 0 0 0 .028-.081c0-.009-.031-.035-.038-.031a.37.37 0 0 0 -.066.05zm3.848-1.418-.086-.047a.467.467 0 0 0 -.005.092c0 .009.038.026.042.022a.39.39 0 0 0 .047-.073zm-3.019-.6a.141.141 0 0 0 -.014.047c0 .005.025.01.039.015a.141.141 0 0 0 .014-.047c-.003-.013-.028-.017-.04-.022z" transform="translate(-40.758 -50.084)"/><path d="m104.349 222.8c.13-.2.33-.113.5-.113q9.606-.006 19.212-.005c2.65 0 5.3-.009 7.95.011.44 0 .569-.119.545-.555-.038-.689-.025-1.382 0-2.072.01-.323-.056-.48-.421-.458-.427.026-.857 0-1.286-.007a.342.342 0 0 0 -.344-.014 1.118 1.118 0 0 0 -.565-.026l.024-.028-.022-.03c.151-.36.63-.473.682-.907a.365.365 0 0 0 .393-.419.947.947 0 0 0 -.729-.707c.035-.137-.066-.228-.115-.337l.017-.016.986-.051a.727.727 0 0 0 .46.022 1.125 1.125 0 0 0 .665.014c.413.131.42-.127.4-.414.363-.365.734-.722 1.086-1.1.148-.158.474-.309.218-.583s-.4.065-.584.186c-.233.157-.328.527-.706.462a.731.731 0 0 0 -.054-.1.45.45 0 0 0 -.03-.427 2.191 2.191 0 0 1 .159-.414.812.812 0 0 0 -.257-1.211.822.822 0 0 0 -1.193.157q-.235.239-.474.475c-.148.146-.324.279-.09.5.211.2.329.034.461-.1.172-.17.343-.342.515-.513.112-.111.236-.191.4-.1s.156.239.153.392c-.006.3-.272.481-.339.753l-1.111-.059-.34-.009a2.52 2.52 0 0 0 -.9-.109c-2.656-.223-5.311-.458-7.969-.66-.438-.033-.631-.133-.589-.611a15.006 15.006 0 0 0 .007-1.566c0-.259.011-.4.359-.365 3.622.311 7.245.6 10.869.893.2.445.445.511.781.122.158-.183.341-.344.517-.511a.275.275 0 0 1 .4-.044.271.271 0 0 1 .046.4c-.119.165-.258.316-.385.475-.1.121-.3.226-.114.413a.326.326 0 0 0 .5-.019c.1-.087.187-.182.279-.274a.422.422 0 0 1 .68-.017c.216.227.07.405-.1.574l-.512.516c-.142.143-.254.3-.057.473.168.15.3.047.436-.072a3.563 3.563 0 0 1 .7-.635q.009 4.049.024 8.1c0 .171-.1.37.079.519l.111.027a1.023 1.023 0 0 0 .559 0c1.566.013 3.133.014 4.7.042a1.286 1.286 0 0 1 1.251 1.726 1.218 1.218 0 0 1 -1.159.893c-.373.011-.747.005-1.12.005h-32.544c-.2 0-.409-.019-.613-.029-.066-.236-.168-.43-.462-.408l-.013-.223c.106-.022.251-.035.177-.191-.146-.309-.334-.57-.741-.368l-.21-.114-.114-.119.007.008-.118-.118.005.005-.117-.117.005.005-.117-.117.006.005-.118-.118.007.006-.231-.231.008.008a.229.229 0 0 0 -.233-.117h.006a.118.118 0 0 0 -.118-.118v.005zm18.176 1.316c-.153.245.048.506-.22.646a.166.166 0 0 0 .025.306.213.213 0 0 0 .295-.166.925.925 0 0 0 -.1-.784zm.965-.226c-.464-.067-.5.263-.657.486.482.171.46-.26.657-.484zm.956-1.051c-.309.138-.478.259-.512.561a.663.663 0 0 0 .512-.559zm-.707.774c-.031-.013-.069-.044-.091-.036s-.029.057-.043.088c.031.013.069.044.091.036s.029-.054.043-.086z" transform="translate(-86.019 -163.49)"/><path d="m31.468 237.567c-.93.108-.93.108-.93 1.08a8.438 8.438 0 0 1 -.008 1.008c-.063.52.085.69.651.683 3.008-.033 6.016-.016 9.024-.012a1.134 1.134 0 0 1 .75.118.106.106 0 0 0 .046.17v-.005l.118.118h-.006a.2.2 0 0 0 .233.117l-.008-.008c0 .153.072.236.231.231l-.007-.006.118.118-.006-.005a.113.113 0 0 0 .117.117l-.005-.005.117.117-.005-.005a.118.118 0 0 0 .118.118l-.016-.016a.22.22 0 0 0 .115.229.346.346 0 0 0 .225.226l.116.116.116.116a.753.753 0 0 0 .34.34c.054.152.244.234.22.427q-9.583.005-19.165.007a1.31 1.31 0 1 1 -.013-2.62q1.765-.03 3.53 0c.347.006.438-.1.436-.441-.012-1.812 0-3.624 0-5.436h.041l.039-.014c.424.065.49.582.876.694a8.3 8.3 0 0 0 1.6 1.648 1.338 1.338 0 0 0 1 .459z" transform="translate(-22.631 -181.129)"/><path d="m62.026 236.7v-.319c0-.035.007-.071.013-.106a1.186 1.186 0 0 0 1.065-.6c.446-.553 1.148-.882 1.4-1.6 1.412-.118 2.824-.245 4.238-.353a57.756 57.756 0 0 1 7.991-.346c2.925.181 5.852.317 8.777.491.977.058 1.343.451 1.3 1.286a1.361 1.361 0 0 1 -1.539 1.206c-1.789-.1-3.578-.2-5.367-.3-1.435-.078-2.871-.147-4.306-.218a52.986 52.986 0 0 0 -5.643.286c-2.647.15-5.287.373-7.929.573z" transform="translate(-53.189 -180.261)"/><path d="m86.572 206.384q3.3-.455 6.594-.908a11.316 11.316 0 0 1 3.212.349c2.749.408 5.49.87 8.235 1.3.928.146 1.368.679 1.225 1.52a1.3 1.3 0 0 1 -1.623.972q-5.109-.833-10.216-1.672a6.49 6.49 0 0 0 -1.884.194c-1.536.192-3.068.415-4.6.626a1.552 1.552 0 0 0 -.573-1.993c-.136-.105-.329-.182-.37-.388z" transform="translate(-72.229 -158.628)"/><path d="m121.031 154.86a.859.859 0 0 1 .642-1.071 1.249 1.249 0 0 0 .88-.674c.044-.067.149-.095.225-.14 1.494.512 2.99 1.02 4.482 1.537q2.162.749 4.318 1.514a1.244 1.244 0 0 1 .916 1.636 1.227 1.227 0 0 1 -1.7.686q-4.791-1.676-9.574-3.376a1.169 1.169 0 0 1 -.189-.112z" transform="translate(-98.92 -117.933)"/><path d="m139.023 134.466a4.72 4.72 0 0 1 1.113-.887c.438-.182.356-.7.227-1.117 1.781.744 3.568 1.476 5.342 2.239a1.223 1.223 0 0 1 .751 1.671c-.291.666-.891.868-1.686.534-1.919-.806-3.832-1.626-5.747-2.44z" transform="translate(-112.915 -102.021)"/><path d="m184.7 237.2c-1.864-.036-3.728-.077-5.593-.1-.271 0-.3-.13-.294-.345.009-.578.024-1.158-.006-1.735-.019-.369.113-.417.451-.4 2.1.1 4.211.178 6.32.166l-.015.035c-.072.385-.421.55-.652.805-.161.178-.308.362-.229.592a2.851 2.851 0 0 1 .018.982z" transform="translate(-143.776 -181.262)"/><path d="m221.8 52.661-.066.33c-.526.214-.725.772-1.151 1.1a1.517 1.517 0 0 0 -.554 1.681.747.747 0 0 1 -.189.658c-.25.339-.677.417-.937.723l-.408-.266c-.069-.354-.352-.537-.591-.763-.7-.662-1.392-1.332-2.04-2.048a.764.764 0 0 1 .054-1.2l2.674 1.711c.1.067.207.212.333.112.063-.05.056-.2.059-.31.009-.353.009-.707.012-1.061 1.659.044 2.176-.289 2.532-1.631.251.188.209.477.255.735z" transform="translate(-172.311 -39.369)"/><path d="m228.736 44.515c-.356 1.342-.872 1.675-2.532 1.631a.046.046 0 0 1 -.06 0l.017-.22c-.021-.44-.462-.384-.688-.581a.723.723 0 0 0 -.524-.4l-.052-.1a2.345 2.345 0 0 1 .852-2.206c.046-.034.043-.135.062-.205l.315.171a28.887 28.887 0 0 0 2.455 1.643z" transform="translate(-179.521 -32.191)"/><path d="m71.286 212.725-1.131.087a1.923 1.923 0 0 0 -.53-1.965.387.387 0 0 1 -.13-.4l2.6-.4.2-.047.44.026a4.273 4.273 0 0 0 .917 1.034.648.648 0 0 1 .009.985c-.1.109-.232.193-.257.355-.688.232-1.433.086-2.118.325z" transform="translate(-58.973 -162.166)"/><path d="m157.269 116.812c.262-.065.582-.06.312-.5-.1-.168.118-.293.292-.311.74-.075.822-.538.689-1.136.459.2.928.383 1.375.609a1.251 1.251 0 0 1 .644 1.731 1.14 1.14 0 0 1 -1.723.4 11.241 11.241 0 0 1 -1.589-.793z" transform="translate(-127.068 -88.372)"/><path d="m209.144 235.522a.063.063 0 0 1 .024.08l-.017.016c-.073-.039-.165-.049-.172.045-.014.188.159.225.287.292.077.386.724.6.336 1.125a1.33 1.33 0 0 0 -1.465.882l-.214.055-.233-.008-1.457-.085a1.841 1.841 0 0 1 .777-2.137c.067-.043.091-.154.135-.233zm-1.341 2.113a.645.645 0 0 0 .57-.717.734.734 0 0 0 -.752-.716.745.745 0 0 0 -.685.7.775.775 0 0 0 .864.733z" transform="translate(-164.998 -181.964)"/><path d="m230.337 61.642c.26-.305.687-.384.937-.723a.747.747 0 0 0 .189-.658 1.517 1.517 0 0 1 .554-1.681c.425-.325.624-.882 1.151-1.1q.02 1 .039 2l.027.261a.106.106 0 0 1 -.053.083c-.128.022-.184.124-.247.218q-.781.735-1.563 1.47a1.162 1.162 0 0 1 -.908.443z" transform="translate(-183.746 -43.861)"/><path d="m218.441 39.719c-.02.07-.016.171-.062.205a2.345 2.345 0 0 0 -.852 2.206l-2.139-1.5a7.692 7.692 0 0 0 1.816-1.7z" transform="translate(-172.15 -29.472)"/><path d="m232.142 212.935-.074.113a3.561 3.561 0 0 0 -.7.635c-.135.12-.269.223-.436.072-.2-.177-.085-.33.057-.473l.512-.516c.167-.169.313-.347.1-.574a.422.422 0 0 0 -.68.017c-.093.092-.182.187-.279.274a.326.326 0 0 1 -.5.019c-.185-.188.018-.292.114-.413.127-.159.266-.31.385-.475a.271.271 0 0 0 -.046-.4.275.275 0 0 0 -.4.044c-.175.167-.359.328-.517.511-.335.389-.584.323-.781-.122.323.049.423-.13.42-.413.295-.073.424-.35.638-.521a.824.824 0 0 1 1.354.26.917.917 0 0 0 .753.619l.023.674a.382.382 0 0 0 0 .325z" transform="translate(-182.633 -162.535)"/><path d="m64.1 236.606c-.254.718-.956 1.047-1.4 1.6a1.185 1.185 0 0 1 -1.065.6c-.172-.1-.111-.271-.129-.419.752-.236 1-.642 1.018-1.677a.043.043 0 0 1 -.011-.068c.535.104 1.06-.101 1.587-.036z" transform="translate(-52.788 -182.794)"/><path d="m83.975 209.594.353-.13.105-.02.124.047c.041.206.234.284.369.391a1.552 1.552 0 0 1 .573 1.993.161.161 0 0 1 -.05.055h-.236l-.57.033c.025-.162.159-.247.257-.355a.648.648 0 0 0 -.009-.985 4.272 4.272 0 0 1 -.916-1.029z" transform="translate(-70.215 -161.735)"/><path d="m215.6 37.828a7.692 7.692 0 0 1 -1.816 1.7.911.911 0 0 1 -.465-.312 7.629 7.629 0 0 0 1.827-1.707.85.85 0 0 1 .454.319z" transform="translate(-170.544 -28.366)"/><path d="m115.621 101.359c.163-.059.3-.333.5-.052.168.229.357-.013.659-.012-.619.381-.03.671-.058 1a1.231 1.231 0 0 0 -1.219-.039c-.013-.305.361-.562.111-.9z" transform="translate(-94.674 -77.758)"/><path d="m205.81 235.524.358.022c-.044.079-.068.191-.135.233a1.841 1.841 0 0 0 -.777 2.137l.025.03-.016.036h-.233l-.085-.073a2.851 2.851 0 0 0 -.018-.986c-.079-.229.068-.414.229-.592.231-.257.58-.422.652-.807z" transform="translate(-164.021 -181.965)"/><path d="m191.178 176.63c.3-.273-.3-.53 0-.823.349.259.479.7.783.987a2.022 2.022 0 0 1 -.783-.164z" transform="translate(-153.305 -135.643)"/><path d="m141.559 104.555a.663.663 0 0 1 -1.059-.53 3.534 3.534 0 0 1 1.059.53z" transform="translate(-114.061 -79.963)"/><path d="m110.679 95.878a.9.9 0 0 1 -.02.268c-.064.164-.105.385-.32.4-.272.017-.278-.227-.324-.416a1.708 1.708 0 0 1 .664-.252z" transform="translate(-90.414 -73.643)"/><path d="m179.725 166.268c-.276-.127-.468-.4-.789-.451-.027-.143.015-.216.174-.171l.956.274c-.071.156-.359.1-.338.345z" transform="translate(-143.869 -127.751)"/><path d="m133.2 100.577c-.133.273-.378.23-.574.148s-.1-.287-.081-.448z" transform="translate(-107.855 -77.056)"/><path d="m144.935 117.215c.523-.386.524.282.8.4a1.891 1.891 0 0 1 -.8-.4z" transform="translate(-117.501 -90.102)"/><path d="m118.064 93.853c-.178.238-.36.438-.59.049a.433.433 0 0 1 .59-.049z" transform="translate(-96.2 -72)"/><path d="m178.868 174.956c.309.011.353.273.454.481-.322-.001-.585-.055-.454-.481z" transform="translate(-143.795 -134.983)"/><path d="m113.219 270.845c.024-.193-.165-.275-.22-.427.294-.022.4.173.462.408z" transform="translate(-92.728 -209.031)"/><path d="m45.961 232.334.009-.227.085-.227.151-.013a1.039 1.039 0 0 1 -.118.578l-.039.014h-.041z" transform="translate(-40.728 -179.128)"/><path d="m181.119 176.944c.223.022.506-.178.643.171a1.441 1.441 0 0 1 -.643-.171z" transform="translate(-145.568 -136.496)"/><path d="m137.354 113.2.033-.227c.231.012.225.179.224.343z" transform="translate(-111.62 -86.903)"/><path d="m220.946 246.709a.343.343 0 0 1 .344.014c-.121.153-.236.149-.344-.014z" transform="translate(-176.462 -190.611)"/><path d="m131.379 99.653c-.18.052-.344.071-.376-.182a.524.524 0 0 1 .376.182z" transform="translate(-106.694 -76.43)"/><path d="m241.912 68.166c.063-.095.119-.2.247-.218l-.009.345a.241.241 0 0 1 -.238-.127z" transform="translate(-192.725 -51.978)"/><path d="m121.733 95.11c-.168.174-.2.046-.226-.1z" transform="translate(-99.328 -72.97)"/><path d="m117.506 160.279c.035-.049.063-.127.108-.139.077-.02.1.059.117.125z" transform="translate(-96.224 -123.488)"/><path d="m135.015 112.676c.165-.16.2-.035.221.1a.223.223 0 0 1 -.221-.1z" transform="translate(-109.806 -86.615)"/><path d="m217.46 246.69v-.178l.22-.04.022.03-.024.028c-.009.141-.112.153-.218.16z" transform="translate(-173.756 -190.458)"/><path d="m89.088 221.44-.117.085c-.036-.134.079-.055.118-.084z" transform="translate(-74.085 -171.04)"/><path d="m104.274 261.344a.106.106 0 0 1 -.046-.17h.007c.014.054.026.112.039.17z" transform="translate(-85.905 -201.858)"/><g stroke="#fff" stroke-miterlimit="10"><path d="m176.059 42.417.125.32c-.013.427-.039.854-.036 1.281 0 .289-.051.385-.342.212-1.376-.818-2.762-1.621-4.141-2.434q-3.779-2.228-7.555-4.462c-1.17-.691-2.339-1.386-3.515-2.068a.4.4 0 0 1 -.232-.4c.008-.69 0-1.379 0-2.169.483.286.91.527 1.326.786q4.27 2.657 8.536 5.322 1.77 1.1 3.537 2.216a12.142 12.142 0 0 0 1.886 1.128z" transform="translate(-129.468 -24.637)"/><path d="m176.073 65.659c.008 1.011 0 1.026-.754.629q-3.51-1.847-7.008-3.715c-2.465-1.312-4.922-2.638-7.4-3.934-.443-.232-.7-.478-.626-1.019a7.032 7.032 0 0 0 .006-1.286c-.021-.39.081-.46.426-.259 1.336.776 2.681 1.537 4.023 2.3q3.345 1.912 6.69 3.825c1.292.741 2.573 1.5 3.875 2.227.543.304.982.613.768 1.232z" transform="translate(-129.402 -42.684)"/><path d="m128.92 12.038c0 1.015 0 1.014-.952 1.279-1.56.434-3.124.858-4.678 1.314-.36.105-.414 0-.4-.32.021-.522-.143-1.124.068-1.543s.895-.336 1.366-.484c1.35-.424 2.716-.8 4.061-1.232.485-.157.59-.02.539.427a4.847 4.847 0 0 0 -.004.559z" transform="translate(-100.369 -7.796)"/><path d="m122.987 34.639c0-.959 0-.963.887-1.213 1.559-.438 3.124-.856 4.678-1.313.4-.117.491-.025.467.362-.031.5.142 1.093-.07 1.485-.222.41-.894.329-1.365.47-1.337.4-2.692.743-4.026 1.152-.48.147-.644.061-.574-.44a3.591 3.591 0 0 0 .003-.503z" transform="translate(-100.462 -24.144)"/></g><path d="m213.71 55.854a.706.706 0 0 1 .471.245.764.764 0 0 0 -.054 1.2c.648.716 1.34 1.385 2.04 2.048.239.226.522.409.591.763a12.144 12.144 0 0 1 -1.886-1.128c-.214-.631-.8-.942-1.209-1.406a1.292 1.292 0 0 1 .047-1.722z" transform="translate(-170.574 -42.597)"/><path d="m239.11 204.16-.05.909c-.465-.158-.694-.592-1.034-.9a.223.223 0 0 1 0-.348c.339-.3.553-.751 1.031-.894q.032.4.065.8c-.392.136-.183.285-.012.433z" transform="translate(-189.647 -156.683)"/><path d="m188.095 172.266c.015.216-.122.192-.17.253-.08.1.012.321-.213.327a.129.129 0 0 1 -.136-.141c.018-.191.082-.359.3-.4.068-.014.134-.024.219-.039z" transform="translate(-150.576 -132.897)"/><path d="m183.979 169.447c.175 0 .344.017.323.26-.009.1-.068.189-.173.16-.229-.062-.122-.269-.154-.416z" transform="translate(-147.784 -130.71)"/><path d="m182.815 168.68c-.161 0-.323 0-.335-.225.162 0 .323 0 .337.223z" transform="translate(-146.624 -129.938)"/><path d="m182.039 176.059c-.033.015-.062.041-.09.039s-.053-.031-.08-.048c.029-.014.058-.04.086-.039s.054.029.084.048z" transform="translate(-146.15 -135.801)"/><path d="m186.475 172.44.045.029-.051-.023z" transform="translate(-149.718 -133.032)"/><path d="m186.315 172.369-.045-.029.051.022z" transform="translate(-149.564 -132.954)"/><path d="m48.777 201.868a2.184 2.184 0 0 1 .026.816c-.3.017-.414.286-.6.452a27.469 27.469 0 0 1 -2 1.9l-.013-.7a24.6 24.6 0 0 0 1.981-1.906c.215-.175.406-.374.606-.562z" transform="translate(-40.908 -155.859)"/><path d="m113.866 99.146c-.147-.13-.294-.262-.443-.391-.074-.064-.242-.09-.146-.231.063-.093.137-.232.3-.191.119.031.27.039.281.208.013.2.01.4.013.6z" transform="translate(-92.922 -75.542)"/><path d="m111.784 104.869c-.08 0-.144-.022-.16-.109a.136.136 0 0 1 .145-.178.13.13 0 0 1 .138.136.132.132 0 0 1 -.123.151z" transform="translate(-91.658 -80.395)"/><path d="m130.449 108.848c-.073-.02-.116-.054-.076-.107a.172.172 0 0 1 .127-.06c.024 0 .044.069.066.106z" transform="translate(-106.193 -83.574)"/><path d="m147.053 109.409c.032.028.067.044.069.063 0 .052.016.124-.011.154-.079.084-.077-.019-.08-.055a.721.721 0 0 1 .022-.162z" transform="translate(-119.126 -84.139)"/><path d="m110.248 105.447-.075-.063a.371.371 0 0 1 .065-.05c.007 0 .039.022.038.031a.372.372 0 0 1 -.028.082z" transform="translate(-90.536 -80.978)"/><path d="m127.345 99.351a.412.412 0 0 1 -.049.066s-.041-.012-.042-.022a.468.468 0 0 1 .005-.092z" transform="translate(-103.785 -76.3)"/><path d="m114.153 96.838c.014 0 .039.009.039.015a.141.141 0 0 1 -.014.047c-.014 0-.039-.009-.039-.015a.14.14 0 0 1 .014-.047z" transform="translate(-93.613 -74.388)"/><path d="m137.341 112.813-.046-.025.021-.021z" transform="translate(-111.574 -86.743)"/><path d="m147.438 107.762-.06.073c-.07-.069.029-.06.042-.091z" transform="translate(-119.377 -82.848)"/><path d="m222.941 220.69c.067-.271.333-.453.339-.753 0-.153 0-.3-.153-.392s-.284-.012-.4.1c-.172.171-.343.343-.515.513-.132.131-.25.3-.461.1-.234-.223-.058-.356.09-.5s.317-.315.474-.475a.822.822 0 0 1 1.193-.157.812.812 0 0 1 .257 1.211 2.191 2.191 0 0 0 -.159.414l-.218.018z" transform="translate(-177.001 -169.092)"/><path d="m230.443 227.542.078-.8c.378.065.473-.305.706-.462.18-.121.318-.471.584-.186s-.07.425-.218.583c-.352.375-.723.733-1.086 1.1z" transform="translate(-183.828 -174.564)"/><path d="m215.732 243.271-.22.04-.563-.064a1.33 1.33 0 0 1 1.465-.882c-.053.435-.531.546-.682.906z" transform="translate(-171.81 -187.256)"/><path d="m220.3 238.555c.388-.525-.259-.74-.336-1.125a.947.947 0 0 1 .729.707.365.365 0 0 1 -.393.418z" transform="translate(-175.7 -183.444)"/><path d="m110.442 266.707c.408-.2.6.059.741.368.074.157-.072.169-.177.191l-.327-.117a.114.114 0 0 0 -.116-.116l-.116-.116z" transform="translate(-90.745 -206.097)"/><path d="m184.306 267.036a.925.925 0 0 1 .1.786.213.213 0 0 1 -.295.166.166.166 0 0 1 -.025-.306c.268-.14.067-.401.22-.646z" transform="translate(-147.8 -206.409)"/><path d="m187.409 266c-.2.224-.175.655-.657.486.16-.224.193-.553.657-.486z" transform="translate(-149.938 -205.598)"/><path d="m192.173 261.344a.663.663 0 0 1 -.512.561c.039-.305.203-.423.512-.561z" transform="translate(-153.746 -201.993)"/><path d="m218.984 236.186c-.128-.067-.3-.1-.287-.292.007-.094.1-.084.172-.045.049.109.149.2.115.337z" transform="translate(-174.716 -182.195)"/><path d="m111.5 268.925.327.117c0 .074.009.149.013.223a.753.753 0 0 1 -.34-.34z" transform="translate(-91.566 -207.874)"/><path d="m190.328 264.667c-.014.031-.021.079-.043.088s-.06-.022-.091-.036c.014-.031.02-.079.043-.088s.063.023.091.036z" transform="translate(-152.608 -204.542)"/><path d="m109.715 266.558.016.221a.346.346 0 0 1 -.225-.226c0-.037 0-.073 0-.11z" transform="translate(-90.018 -205.949)"/><path d="m106.228 263.143c-.159 0-.23-.078-.231-.232z" transform="translate(-87.297 -203.209)"/><path d="m105.23 262.534a.2.2 0 0 1 -.233-.117.229.229 0 0 1 .233.117z" transform="translate(-86.521 -202.824)"/><path d="m109.111 266.032v.11a.22.22 0 0 1 -.115-.229z" transform="translate(-89.624 -205.537)"/><path d="m243.473 260.245c.054-.06.087-.034.111.027z" transform="translate(-193.936 -201.115)"/><path d="m104.618 262.04-.118-.118a.118.118 0 0 1 .118.118z" transform="translate(-86.136 -202.442)"/><path d="m107.116 264.034-.118-.118z" transform="translate(-88.074 -203.988)"/><path d="m107.617 264.536a.113.113 0 0 1 -.117-.117z" transform="translate(-88.463 -204.379)"/><path d="m108.117 265.036-.117-.117z" transform="translate(-88.851 -204.766)"/><path d="m108.618 265.537a.118.118 0 0 1 -.118-.118z" transform="translate(-89.239 -205.154)"/><path d="m52.035 238.257a8.285 8.285 0 0 1 -1.6-1.648l.023-.025a.2.2 0 0 0 .22-.22l.024-.024a9.313 9.313 0 0 1 1.763 1.707.379.379 0 0 0 -.43.21z" transform="translate(-44.201 -182.597)"/><path d="m46.532 232.446a1.038 1.038 0 0 0 .118-.578 2.567 2.567 0 0 1 1.026 1l-.024.024a.2.2 0 0 0 -.221.221l-.023.025c-.386-.11-.452-.627-.876-.692z" transform="translate(-41.171 -179.129)"/><path d="m57.556 244.152a.379.379 0 0 1 .434-.211l.453.145c.017.147-.043.319.129.419-.006.035-.01.07-.013.106a1.338 1.338 0 0 1 -1.003-.459z" transform="translate(-49.722 -188.492)"/><path d="m110.5 267.923.116.116z" transform="translate(-90.79 -207.097)"/><path d="m111 268.424a.114.114 0 0 1 .116.116z" transform="translate(-91.178 -207.485)"/><path d="m49.535 214.276-.453-.145a9.313 9.313 0 0 0 -1.763-1.707 2.565 2.565 0 0 0 -1.026-1l-.151.013a3.107 3.107 0 0 1 -.009-1.1c.415-.393.3-.776-.02-1.156a5.4 5.4 0 0 1 0-1.317 27.467 27.467 0 0 0 2-1.9c.185-.166.3-.434.6-.452l.052 1.666a.1.1 0 0 0 0 .106c-.005.186-.151.289-.245.425a1.705 1.705 0 0 0 .165 2.177c.013.65.033 1.3.039 1.952.007.868 0 .869.891.822.315-.017.629-.037.944-.056-.026 1.031-.272 1.436-1.024 1.672z" transform="translate(-40.814 -158.682)"/><path d="m56.025 214.92a1.705 1.705 0 0 1 -.165-2.177c.095-.135.24-.238.245-.425.183-.023.377.041.548-.073l2.03-.242a.387.387 0 0 0 .13.4 1.923 1.923 0 0 1 .53 1.965c-.915.231-1.858.278-2.786.425a1.263 1.263 0 0 0 -.532.127z" transform="translate(-48.161 -163.721)"/><path d="m242.414 206.931c-.171-.148-.38-.3.013-.428a.33.33 0 0 1 -.013.428z" transform="translate(-192.95 -159.454)"/><path d="m210.452 239.973a.775.775 0 0 1 -.867-.729.745.745 0 0 1 .685-.7.734.734 0 0 1 .752.716.645.645 0 0 1 -.57.713z" transform="translate(-167.647 -184.302)"/><path d="m46.118 221.875c.321.38.434.764.02 1.156a3.439 3.439 0 0 1 -.02-1.156z" transform="translate(-40.819 -171.378)"/><path d="m50.54 236.668a.2.2 0 0 1 .22-.22.2.2 0 0 1 -.22.22z" transform="translate(-44.28 -182.681)"/></g></svg>