<svg height="144.985" viewBox="0 0 131.884 144.985" width="131.884" xmlns="http://www.w3.org/2000/svg"><path d="m174.72 110.959c-.017-.568-.046-1.135-.048-1.7-.011-2.151-.009-2.135-2.183-2.418-8.025-1.043-16.047-2.12-24.079-3.117-.9-.112-1.044-.436-1.012-1.208.052-1.268.056-2.542 0-3.809-.037-.8.141-1.044 1.011-.9 4.879.791 9.77 1.512 14.656 2.267 3.544.547 7.088 1.095 10.626 1.675.74.121.983-.044 1-.837.089-3.215.113-3.2-3-3.9q-7.1-1.6-14.186-3.246c-.547-.126-1.075-.338-1.611-.51-.713-.685-1.018-1.708-1.835-2.315-.719.689.684 1.29-.011 1.931a14.194 14.194 0 0 1 -3.939-.864c-.32-.819-.984-.348-1.508-.4l-.058.014c-.237-.487-.34-1.1-1.064-1.127q-.006-2.236-.012-4.472c.753.114 1.2.758 1.85 1.057.028.525.408.526.786.528.074.345-.176.828.361.975.248.068.386-.138.407-.376.049-.57-.347-.6-.757-.609-.033-.523-.411-.524-.791-.523-.048-.577.628-.443.793-.809 3.766.6 7.388 1.79 11.078 2.7 4.245 1.044 8.47 2.173 12.7 3.283.584.153.834.006.777-.6a.848.848 0 0 1 0-.132c.166-3.323.18-3.367-3.106-4.419q-11.117-3.557-22.258-7.032c-1.887-.592-1.9-.563-1.9-2.541 0-1.008.046-2.019-.018-3.023-.059-.922.233-1 1.046-.722 5.619 1.944 11.252 3.846 16.882 5.759 2.815.956 5.641 1.881 8.443 2.874.7.247.992.2.914-.6-.017-.174 0-.35 0-.525 0-3.079-.024-3.008-2.874-4.125-4.763-1.867-9.485-3.835-14.226-5.757-3.12-1.265-6.239-2.532-9.368-3.772-.43-.17-.813-.25-.806-.84.021-1.786.007-3.572.007-5.524l27.259 11.711c0-1.441.005-2.7 0-3.96 0-.754-.691-.861-1.159-1.089-3.691-1.805-7.408-3.557-11.1-5.355-4.716-2.3-9.412-4.632-14.136-6.912a1.269 1.269 0 0 1 -.875-1.385c.064-1.4.039-2.8.008-4.2-.015-.676.133-.875.8-.531q7.873 4.043 15.763 8.053c3.31 1.686 6.629 3.356 9.933 5.055.536.276.815.284.779-.415a.731.731 0 0 1 0-.132c.316-2.29-.2-3.78-2.67-4.9-8.276-3.751-16.4-7.84-24.573-11.812-4.72-2.292-9.419-4.63-14.155-6.89a1.76 1.76 0 0 1 -1.119-1.921c.061-3.066-.021-6.135.042-9.2.021-1.019-.163-1.271-1.216-.983-5.693 1.558-11.4 3.046-17.109 4.554-.415.11-.838.189-1.368.308v-1.128q0-11.766 0-23.532c0-2.1.611-2.883 2.639-3.495 6.735-2.033 13.475-4.047 20.194-6.131a4.115 4.115 0 0 1 3.9.67c5.007 3.437 10.107 6.737 15.156 10.112q6.539 4.372 13.041 8.8a13.056 13.056 0 0 1 2.374 1.628c-1.346 1.423-2.5 3.052-4.284 4-.3-.172-.621-.323-.907-.519q-11.24-7.7-22.476-15.412c-1.419-.973-2.851-1.926-4.464-3.015 0 1.694.057 3.129-.019 4.557a1.931 1.931 0 0 0 1.165 2.187 19.7 19.7 0 0 1 2.318 1.469c5.437 3.491 10.9 6.948 16.306 10.484 2.985 1.951 6.093 3.717 8.927 5.9a3.031 3.031 0 0 0 -.11 4.041c.956 1.089 2.334 1.818 2.836 3.3q-4.147-2.6-8.295-5.2-10.001-6.242-20.012-12.482c-.975-.607-1.976-1.172-3.11-1.843 0 1.852.012 3.47-.008 5.087a.933.933 0 0 0 .545.93c2.758 1.6 5.5 3.229 8.243 4.85q8.858 5.232 17.716 10.464c3.235 1.907 6.483 3.79 9.71 5.708.683.406.807.181.8-.5-.007-1 .054-2 .085-3a2.725 2.725 0 0 0 2.129-1.039q1.835-1.721 3.666-3.446a.566.566 0 0 0 .558.3c.022.48.063.959.063 1.439q0 33.25 0 66.5c0 .393.022.787.033 1.18l-.008.587-.124.487c-1.119.336-1.621 1.388-2.417 2.1a.523.523 0 0 0 0 .816c.8.712 1.332 1.729 2.424 2.1l.186.774q-.069.4-.138.8a2.15 2.15 0 0 1 -1.766-1.452c-.478-1.325-2.031-1.523-3.175-.609-.499.406-.801 1.055-1.492 1.226zm-23.292-21.79-.119-.053.1.067.12.054zm23.251-38.539c.5-1.451-.528-2.175-1.793-2.879-3.053-1.7-6.056-3.485-9.087-5.222q-7.84-4.494-15.689-8.97c-3.146-1.8-6.3-3.582-9.433-5.4-.809-.47-1.047-.307-1 .608a16.486 16.486 0 0 1 -.015 3.015c-.168 1.269.428 1.844 1.468 2.389 5.8 3.04 11.562 6.15 17.342 9.225q8.211 4.369 16.435 8.712c1.772.928 1.793.892 1.772-1.479zm-42.492-43.93a11.369 11.369 0 0 1 .008-1.312c.122-1.048-.127-1.369-1.263-1-3.155 1.025-6.359 1.9-9.524 2.889-1.106.347-2.707.149-3.2 1.135s-.11 2.4-.159 3.619c-.03.74.1 1 .941.75 3.644-1.068 7.311-2.062 10.97-3.08 2.227-.62 2.227-.618 2.227-3.001zm-14.13 14.662a8.574 8.574 0 0 1 -.008 1.18c-.165 1.174.22 1.376 1.345 1.032 3.129-.959 6.306-1.761 9.442-2.7 1.1-.332 2.682-.14 3.2-1.1.5-.92.092-2.307.164-3.483.055-.908-.159-1.124-1.1-.848-3.643 1.073-7.313 2.053-10.97 3.08-2.079.577-2.076.592-2.073 2.841zm35.158 67.713c-.2.034-.354.058-.507.087-.519.1-.668.495-.711.943a.3.3 0 0 0 .318.331c.528-.013.311-.527.5-.766.113-.144.435-.088.4-.594zm-3.822 2.082c-.07-.043-.132-.11-.2-.112s-.135.058-.2.091c.062.04.123.108.187.112s.136-.054.213-.09z" fill="#505050" transform="translate(-65.232 3.246)"/><path d="m93.131 84.5a12.685 12.685 0 0 1 2.578 1.268 1.554 1.554 0 0 0 2.484 1.242c.458.182 1.008.2 1.278.715-.031.072-.264.051-.1.213l.14-.171c1.447.047 2.486 1.065 3.732 1.592 1.473.623 2.88 1.4 4.317 2.112.312 1.4.12 2.489-1.615 2.664-.408.042-.928.337-.685.73.635 1.029-.116 1.019-.731 1.17a37.711 37.711 0 0 1 -4.614-2.183c-.645-.269-.646-1.834-1.874-.93a14.576 14.576 0 0 1 -3.385-1.643c0-.384.016-.775-.525-.8l-.06-.108-.048.049.108.059-.077.531-.712-.307c-.058-.326-.132-.619-.519-.244-2.513-1.1-4.986-2.273-7.4-3.568.064-.777-1.317-1.458.135-2.35-.709 0-1.153.565-1.546.029-.483-.659-.8-.017-1.18.121-.008-.47 0-.942-.031-1.411-.026-.4-.379-.414-.659-.488-.377-.1-.55.229-.7.447-.224.33.169.39.343.541.348.3.693.611 1.038.916.587.784-.29 1.387-.259 2.1-2.157.819-4.309 1.652-6.473 2.454q-10.074 3.734-20.153 7.45c-1.183.438-2.752.454-3.445 1.427-.726 1.018-.206 2.54-.229 3.838-.043 2.414-.011 2.417 2.259 1.746q10.807-3.192 21.613-6.384c2.471-.727 4.952-1.419 7.423-2.146a1.916 1.916 0 0 1 1.392-.037q6.558 2.8 13.127 5.579c.3.984.494 2.191-.533 2.619a11.069 11.069 0 0 0 -2.611 2.08c-3.272-1.337-6.554-2.651-9.809-4.027a3.078 3.078 0 0 0 -2.259-.127q-7.763 2.392-15.546 4.719c-4.642 1.393-9.285 2.784-13.945 4.114a1.3 1.3 0 0 0 -1.144 1.542c.076 1.7.067 3.416.009 5.122-.028.852.315.931 1 .754 5.077-1.309 10.159-2.6 15.237-3.908q7.423-1.911 14.843-3.84a2.78 2.78 0 0 1 1.683.005c1.555.57 3.1 1.157 4.655 1.737-.18.107-.424.171-.529.329a2.929 2.929 0 0 1 -2.065 1.581 2.015 2.015 0 0 0 -1.507 2.511 2.654 2.654 0 0 1 -1.417-.353c-.035-.155-.094-.34-.274-.294-.106.027-.171.212-.254.326l-22.47 5.813c-2.666.689-5.328 1.4-8 2.048-.671.163-.922.438-.9 1.137.046 1.664.051 3.331 0 4.994-.026.855.117 1.1 1.077.9 8.044-1.668 16.1-3.269 24.157-4.888 1.972-.4 3.946-.784 5.919-1.176a3.7 3.7 0 0 1 1.689.057q7.232 1.887 14.472 3.748c3.473.888 6.955 1.737 10.43 2.616 2.05.519 3 1.937 2.522 3.725-.434 1.622-2.089 2.461-4 1.968-7.66-1.982-15.329-3.936-22.964-6.011a9.054 9.054 0 0 0 -4.366.229c-6.816 1.369-13.62 2.8-20.428 4.2a1.447 1.447 0 0 0 -1.059.18 6.27 6.27 0 0 0 -2.611.608 5.206 5.206 0 0 0 -2.162.37l-.483.09c-.826.18-1.875-.137-2.269 1.013-.47.441-.918.908-1.414 1.318-1.662 1.373-2.818 3.27-4.646 4.469l-.07-.017-.036.066c.023-.524.066-1.048.066-1.572q.007-27.931-.018-55.861a5.3 5.3 0 0 1 3.552-5.378q13.14-5.623 26.263-11.284c2.489-1.07 4.988-2.117 7.461-3.221a2.422 2.422 0 0 1 2.351.12q11.136 6.013 22.307 11.962c.964.515 1.966.959 2.919 1.493a2.808 2.808 0 0 1 1.362 3.967c-.761 1.424-2.114 1.818-3.829.937-3.457-1.777-6.872-3.636-10.306-5.459-4.325-2.3-8.661-4.571-12.972-6.894a2.568 2.568 0 0 0 -2.469.113c-3.944 1.767-7.887 3.555-11.839 5.307q-8.269 3.667-16.558 7.286c-2.02.879-2.04.834-2.04 3 0 1.1.057 2.195-.016 3.284-.066.979.282.953 1.045.676q13.058-4.746 26.136-9.446a1.068 1.068 0 0 1 .258-.029c.108.442.122 1.016.76.976.5-.031.6-.55.751-.934a2.111 2.111 0 0 0 .046-.629l2.37-.784c.541.912.966.443 1.384-.115l.737.439c.058.345.136.644.529.236a27.4 27.4 0 0 1 4.466 2.111c.075.593.459.548.881.427l-.077.057.077-.06c-.056.378-.257.864.189 1.05s1.033.294 1.345-.345zm-12.231 2.234a.311.311 0 0 0 .288-.353.3.3 0 0 0 -.324-.32.318.318 0 0 0 -.34.418c.041.201.191.262.376.255zm9.685 1.875.274-.143c-.051-.088-.1-.247-.155-.249a.4.4 0 0 0 -.3.14c-.088.126.014.206.184.252zm8.615-.009a1.694 1.694 0 0 0 -.054.38c.008.083 0 .325.188.128.065-.069.038-.239.027-.36-.005-.048-.087-.082-.161-.148zm-19.267-1.879a.9.9 0 0 0 .066-.19c0-.022-.073-.081-.089-.074a.868.868 0 0 0 -.154.116zm9.023-3.326-.2-.111a1.1 1.1 0 0 0 -.013.215c0 .022.089.061.1.051a.917.917 0 0 0 .113-.155zm-7.08-1.408a.33.33 0 0 0 -.034.11c0 .012.059.023.091.034a.33.33 0 0 0 .034-.11c0-.012-.059-.021-.091-.034z" fill="#505050" transform="translate(-33.707 -29.341)"/><path d="m104.349 237.725c.306-.463.775-.266 1.175-.266q22.526-.015 45.052-.013c6.214 0 12.429-.022 18.642.027 1.031.008 1.333-.28 1.278-1.3-.088-1.615-.059-3.24-.007-4.858.024-.759-.13-1.125-.986-1.073-1 .06-2.01-.005-3.016-.016a.8.8 0 0 0 -.806-.034 2.623 2.623 0 0 0 -1.324-.061l.056-.065-.051-.069c.354-.844 1.477-1.11 1.6-2.127l-.01.009a.856.856 0 0 0 .922-.982 2.222 2.222 0 0 0 -1.71-1.657l.009.01c.081-.322-.155-.535-.27-.79l.039-.037 2.312-.12a1.7 1.7 0 0 0 1.079.05 2.639 2.639 0 0 0 1.56.033c.969.308.984-.3.932-.971.852-.855 1.721-1.694 2.546-2.574.348-.371 1.112-.725.512-1.368-.624-.669-.946.152-1.369.437-.547.368-.77 1.235-1.656 1.084a1.712 1.712 0 0 0 -.126-.227 1.055 1.055 0 0 0 -.071-1 5.141 5.141 0 0 1 .372-.97 1.9 1.9 0 0 0 -.6-2.839 1.929 1.929 0 0 0 -2.8.369q-.551.561-1.11 1.114c-.347.343-.76.655-.211 1.177.494.469.771.08 1.08-.226.4-.4.8-.8 1.207-1.2.263-.26.552-.448.929-.232.36.206.367.56.36.919-.014.7-.638 1.129-.795 1.765l-2.606-.137-.8-.021a5.91 5.91 0 0 0 -2.1-.255c-6.229-.524-12.456-1.074-18.688-1.547-1.028-.078-1.48-.311-1.382-1.432a35.188 35.188 0 0 0 .017-3.673c-.012-.606.025-.926.842-.856 8.493.729 16.991 1.4 25.487 2.094.461 1.044 1.045 1.2 1.831.287.37-.429.8-.806 1.212-1.2a.644.644 0 0 1 .936-.1.636.636 0 0 1 .108.935c-.278.388-.6.741-.9 1.115-.226.284-.7.53-.268.969a.765.765 0 0 0 1.164-.045c.227-.2.438-.428.655-.643a.991.991 0 0 1 1.595-.04c.507.532.164.951-.228 1.346l-1.2 1.21c-.332.336-.6.693-.133 1.109.393.352.706.111 1.023-.17a8.351 8.351 0 0 1 1.633-1.49q.022 9.494.056 18.989c0 .4-.226.868.185 1.218l.261.064a2.4 2.4 0 0 0 1.311 0c3.673.03 7.347.033 11.021.1a3.015 3.015 0 0 1 2.935 4.047 2.856 2.856 0 0 1 -2.719 2.093c-.875.026-1.751.012-2.626.012q-38.146 0-76.294 0c-.479 0-.958-.044-1.438-.068-.154-.553-.394-1.009-1.083-.958l.008.009-.031-.524c.248-.051.589-.081.416-.448-.341-.724-.782-1.338-1.739-.862l-.492-.268-.267-.279.016.018-.278-.278.012.012-.275-.275.012.012-.275-.275.013.013-.277-.277.016.014-.542-.543.019.018a.537.537 0 0 0 -.545-.274l.014.012a.276.276 0 0 0 -.276-.276l.012.013zm42.623 3.086c-.358.574.112 1.186-.516 1.515a.39.39 0 0 0 .059.718.5.5 0 0 0 .691-.39 2.168 2.168 0 0 0 -.234-1.843zm2.263-.529c-1.089-.157-1.166.616-1.541 1.14 1.131.396 1.08-.616 1.542-1.14zm2.241-2.465c-.724.324-1.12.608-1.2 1.315a1.554 1.554 0 0 0 1.201-1.315zm-1.658 1.816c-.073-.032-.162-.1-.214-.084s-.068.134-.1.207c.073.032.161.1.213.084s.07-.134.102-.207z" fill="#505050" transform="translate(-61.364 -98.637)"/><path d="m43.354 241.765c-2.181.252-2.181.252-2.181 2.533a19.785 19.785 0 0 1 -.018 2.364c-.148 1.22.2 1.617 1.525 1.6 7.053-.077 14.108-.038 21.162-.029a2.659 2.659 0 0 1 1.758.276.248.248 0 0 0 .108.4l-.008-.009.276.276-.014-.012a.473.473 0 0 0 .545.274l-.019-.018c0 .359.169.554.542.543l-.016-.014.277.277-.013-.013a.264.264 0 0 0 .275.275l-.012-.012.275.275-.012-.012a.277.277 0 0 0 .278.278l-.02-.017a.515.515 0 0 0 .269.538.812.812 0 0 0 .529.529l-.008-.009.272.272-.009-.008.272.271-.009-.008a1.767 1.767 0 0 0 .8.8l-.008-.009c.127.357.572.549.515 1q-22.472.013-44.943.016a3.072 3.072 0 1 1 -.03-6.143q4.138-.069 8.279 0c.814.014 1.028-.237 1.023-1.035-.029-4.249 0-8.5.007-12.746l.1.012.09-.033c.995.152 1.148 1.365 2.055 1.629a19.454 19.454 0 0 0 3.734 3.863 3.138 3.138 0 0 0 2.352 1.077z" fill="#505050" transform="translate(-22.631 -109.415)"/><path d="m62.026 241.235v-.749c.006-.083.016-.166.029-.248a2.78 2.78 0 0 0 2.5-1.41c1.046-1.3 2.692-2.068 3.288-3.753 3.312-.277 6.623-.574 9.938-.827 6.237-.477 12.46-1.2 18.739-.811 6.858.426 13.723.743 20.582 1.152 2.29.137 3.149 1.058 3.041 3.017a3.191 3.191 0 0 1 -3.608 2.829c-4.2-.225-8.39-.478-12.586-.7-3.366-.182-6.732-.346-10.1-.512-4.433-.219-8.825.419-13.234.671-6.203.35-12.394.884-18.589 1.341z" fill="#505050" transform="translate(-41.303 -108.885)"/><path d="m86.572 207.655q7.731-1.067 15.463-2.13c2.573-.35 5.038.447 7.533.818 6.446.957 12.873 2.041 19.311 3.057 2.176.343 3.208 1.591 2.874 3.564-.277 1.641-1.852 2.6-3.805 2.28q-11.98-1.953-23.956-3.922c-1.515-.249-2.951.273-4.419.456-3.6.45-7.194.974-10.791 1.468a3.641 3.641 0 0 0 -1.343-4.675c-.319-.25-.772-.432-.867-.916z" fill="#505050" transform="translate(-52.938 -95.666)"/><path d="m121.1 157.4a2.015 2.015 0 0 1 1.507-2.511 2.929 2.929 0 0 0 2.065-1.581c.1-.158.349-.222.529-.329 3.5 1.2 7.011 2.392 10.511 3.6q5.07 1.757 10.127 3.551c1.908.675 2.734 2.172 2.149 3.836-.557 1.583-2.122 2.259-3.983 1.609q-11.235-3.929-22.45-7.916a2.745 2.745 0 0 1 -.455-.259z" fill="#505050" transform="translate(-69.247 -70.8)"/><path d="m139.023 137.161a11.069 11.069 0 0 1 2.611-2.08c1.027-.428.834-1.634.533-2.619 4.178 1.745 8.367 3.462 12.527 5.25a2.868 2.868 0 0 1 1.761 3.919c-.683 1.561-2.088 2.036-3.954 1.253-4.501-1.89-8.986-3.814-13.478-5.723z" fill="#505050" transform="translate(-77.799 -61.077)"/><path d="m192.631 240.681c-4.372-.084-8.743-.18-13.115-.24-.634-.008-.7-.3-.689-.81.021-1.356.057-2.716-.014-4.069-.045-.865.264-.978 1.057-.939 4.936.241 9.876.417 14.821.388l-.036.082c-.169.9-.987 1.29-1.529 1.888-.378.417-.722.85-.537 1.387a6.686 6.686 0 0 1 .042 2.313z" fill="#505050" transform="translate(-96.656 -109.497)"/><path d="m230.142 53.964-.155.775c-1.235.5-1.7 1.81-2.7 2.571a3.556 3.556 0 0 0 -1.3 3.941 1.752 1.752 0 0 1 -.443 1.544c-.587.8-1.588.979-2.2 1.695l-.956-.624c-.162-.831-.825-1.258-1.386-1.789-1.641-1.553-3.263-3.122-4.784-4.8-.967-1.068-.735-1.917.126-2.819l6.272 4.013c.245.156.486.5.78.264.147-.117.131-.477.138-.727.022-.828.02-1.658.027-2.487 3.891.1 5.1-.678 5.937-3.825.589.44.491 1.118.6 1.724z" fill="#505050" transform="translate(-114.092 -22.793)"/><path d="m233.91 47.306c-.835 3.148-2.046 3.928-5.937 3.825a.108.108 0 0 1 -.14.008l.039-.515c-.05-1.032-1.083-.9-1.613-1.362a1.7 1.7 0 0 0 -1.228-.943l-.122-.226c-.108-2.023.238-3.866 2-5.173.108-.08.1-.317.146-.481l.738.4a67.733 67.733 0 0 0 5.758 3.853z" fill="#505050" transform="translate(-118.498 -18.408)"/><path d="m73.713 216.39-2.651.2a4.509 4.509 0 0 0 -1.242-4.608.909.909 0 0 1 -.3-.931l6.092-.943.467-.111 1.032.06a10.019 10.019 0 0 0 2.151 2.424 1.519 1.519 0 0 1 .021 2.31c-.23.255-.545.452-.6.833-1.618.549-3.364.205-4.97.766z" fill="#505050" transform="translate(-44.838 -97.828)"/><path d="m157.269 119.43c.615-.151 1.366-.141.731-1.17-.242-.393.278-.688.685-.73 1.735-.176 1.927-1.261 1.615-2.664 1.077.473 2.177.9 3.225 1.429a2.933 2.933 0 0 1 1.509 4.059c-.825 1.517-2.254 1.879-4.041.931a26.352 26.352 0 0 1 -3.724-1.855z" fill="#505050" transform="translate(-86.447 -52.737)"/><path d="m213.148 235.522a.147.147 0 0 1 .055.187l-.039.037c-.171-.092-.388-.116-.4.105-.033.442.374.527.674.684l-.008-.01c.181.9 1.7 1.409.788 2.639l.01-.009c-1.718-.261-2.723.662-3.436 2.069l-.5.129-.545-.019-3.416-.2c-.406-2.039-.084-3.806 1.823-5.012.158-.1.214-.361.317-.547zm-3.148 4.955a1.511 1.511 0 0 0 1.336-1.681 1.721 1.721 0 0 0 -1.763-1.679 1.747 1.747 0 0 0 -1.606 1.651 1.816 1.816 0 0 0 2.033 1.709z" fill="#505050" transform="translate(-109.624 -109.925)"/><path d="m230.337 67.235c.61-.716 1.611-.9 2.2-1.695a1.752 1.752 0 0 0 .441-1.54 3.556 3.556 0 0 1 1.3-3.941c1-.761 1.464-2.068 2.7-2.571q.047 2.349.093 4.7l.063.612a.249.249 0 0 1 -.125.194c-.3.05-.432.29-.579.512q-1.832 1.724-3.666 3.446a2.725 2.725 0 0 1 -2.129 1.039z" fill="#505050" transform="translate(-121.08 -25.539)"/><path d="m222.548 40.777c-.046.164-.038.4-.146.481-1.76 1.307-2.106 3.15-2 5.173l-5.016-3.513c1.777-.946 2.914-2.577 4.258-3.985z" fill="#505050" transform="translate(-113.994 -16.746)"/><path d="m236.5 216.245-.174.265a8.352 8.352 0 0 0 -1.633 1.49c-.317.281-.63.522-1.023.17-.463-.416-.2-.774.133-1.109l1.2-1.21c.392-.4.735-.814.228-1.346a.991.991 0 0 0 -1.595.04c-.217.216-.428.439-.655.643a.765.765 0 0 1 -1.164.045c-.433-.44.042-.685.268-.969.3-.374.624-.727.9-1.115a.636.636 0 0 0 -.108-.935.644.644 0 0 0 -.936.1c-.411.392-.842.769-1.212 1.2-.786.912-1.37.757-1.831-.287.757.114.991-.3.985-.967.691-.171.993-.82 1.5-1.222 1.144-.914 2.7-.716 3.175.609a2.15 2.15 0 0 0 1.766 1.452l.053 1.581a.9.9 0 0 0 .007.762z" fill="#505050" transform="translate(-120.399 -98.053)"/><path d="m67.6 236.624c-.6 1.685-2.242 2.455-3.288 3.753a2.78 2.78 0 0 1 -2.5 1.41c-.4-.235-.261-.636-.3-.982 1.763-.553 2.341-1.5 2.387-3.933a.1.1 0 0 1 -.025-.159c1.245.24 2.475-.242 3.726-.089z" fill="#505050" transform="translate(-41.058 -110.433)"/><path d="m83.975 209.8.828-.305.247-.047.291.11c.1.484.548.665.865.916a3.641 3.641 0 0 1 1.343 4.675.378.378 0 0 1 -.118.129l-.552.012-1.336.078c.058-.381.373-.579.6-.833a1.519 1.519 0 0 0 -.021-2.31 10.019 10.019 0 0 1 -2.147-2.425z" fill="#505050" transform="translate(-51.707 -97.565)"/><path d="m218.665 38.258c-1.345 1.408-2.481 3.039-4.258 3.985a2.136 2.136 0 0 1 -1.089-.731c1.786-.952 2.939-2.581 4.284-4a2 2 0 0 1 1.063.746z" fill="#505050" transform="translate(-113.013 -16.07)"/><path d="m115.774 101.6c.382-.138.7-.78 1.18-.121.393.537.837-.031 1.546-.029-1.452.893-.071 1.573-.135 2.35a2.886 2.886 0 0 0 -2.858-.092c-.031-.715.846-1.319.259-2.1z" fill="#505050" transform="translate(-66.653 -46.251)"/><path d="m207.025 235.524.84.053c-.1.186-.159.447-.317.547-1.906 1.206-2.229 2.973-1.823 5.012l.058.071-.037.084-.547-.008-.2-.172a6.686 6.686 0 0 0 -.042-2.311c-.186-.537.159-.971.537-1.387.544-.599 1.362-.987 1.531-1.889z" fill="#505050" transform="translate(-109.027 -109.926)"/><path d="m191.293 177.738c.695-.641-.708-1.242.011-1.931.817.607 1.123 1.63 1.835 2.315a4.741 4.741 0 0 1 -1.846-.384z" fill="#505050" transform="translate(-102.479 -81.622)"/><path d="m142.984 105.267a1.554 1.554 0 0 1 -2.484-1.242 8.288 8.288 0 0 1 2.484 1.242z" fill="#505050" transform="translate(-78.499 -47.598)"/><path d="m111.571 95.878a2.11 2.11 0 0 1 -.046.629c-.15.385-.247.9-.751.934-.638.04-.651-.533-.76-.976a4.006 4.006 0 0 1 1.557-.587z" fill="#505050" transform="translate(-64.049 -43.737)"/><path d="m180.8 167.122c-.647-.3-1.1-.943-1.85-1.057-.064-.336.035-.507.408-.4l2.241.642c-.166.366-.842.233-.793.809z" fill="#505050" transform="translate(-96.713 -76.799)"/><path d="m134.13 100.98c-.311.64-.886.539-1.347.347s-.245-.672-.189-1.05z" fill="#505050" transform="translate(-74.707 -45.822)"/><path d="m144.935 117.374c1.227-.9 1.229.661 1.874.93a4.435 4.435 0 0 1 -1.874-.93z" fill="#505050" transform="translate(-80.601 -53.794)"/><path d="m118.858 93.978c-.418.559-.844 1.027-1.384.115a1.017 1.017 0 0 1 1.384-.115z" fill="#505050" transform="translate(-67.585 -42.733)"/><path d="m178.914 174.956c.724.027.827.64 1.064 1.127-.752-.001-1.371-.127-1.064-1.127z" fill="#505050" transform="translate(-96.668 -81.218)"/><path d="m113.514 271.421c.057-.452-.388-.644-.515-1 .689-.052.929.4 1.083.958z" fill="#505050" transform="translate(-65.464 -126.465)"/><path d="m45.961 232.962.022-.532.2-.533.355-.03a2.436 2.436 0 0 1 -.276 1.357l-.09.033-.1-.012z" fill="#505050" transform="translate(-33.689 -108.193)"/><path d="m181.119 176.994c.524.053 1.187-.418 1.508.4a3.379 3.379 0 0 1 -1.508-.4z" fill="#505050" transform="translate(-97.751 -82.143)"/><path d="m137.354 113.5.077-.531c.541.029.528.42.525.8z" fill="#505050" transform="translate(-77.007 -51.839)"/><path d="m220.946 246.762a.8.8 0 0 1 .806.034c-.284.357-.552.347-.806-.034z" fill="#505050" transform="translate(-116.629 -115.209)"/><path d="m131.884 99.9c-.421.121-.806.167-.881-.427a1.229 1.229 0 0 1 .881.427z" fill="#505050" transform="translate(-73.997 -45.44)"/><path d="m241.912 68.46c.147-.223.28-.462.579-.512l-.021.809a.566.566 0 0 1 -.558-.297z" fill="#505050" transform="translate(-126.566 -30.498)"/><path d="m122.036 95.246c-.393.408-.471.109-.529-.236z" fill="#505050" transform="translate(-69.496 -43.325)"/><path d="m117.506 160.47c.083-.114.148-.3.254-.326.18-.046.239.139.274.294z" fill="#505050" transform="translate(-67.6 -74.194)"/><path d="m135.015 112.777c.387-.375.46-.082.519.244a.524.524 0 0 1 -.519-.244z" fill="#505050" transform="translate(-75.899 -51.663)"/><path d="m217.463 246.983-.005-.417.516-.093.051.069-.056.065c-.017.33-.257.358-.506.376z" fill="#505050" transform="translate(-114.975 -115.116)"/><path d="m89.255 221.44-.274.2c-.085-.314.185-.129.276-.2z" fill="#505050" transform="translate(-54.072 -103.251)"/><path d="m104.371 261.578a.248.248 0 0 1 -.108-.4l.015-.009c.032.137.062.273.093.409z" fill="#505050" transform="translate(-61.294 -122.082)"/><path d="m197.32 78.695c.018 2.371 0 2.407-1.769 1.476q-8.23-4.331-16.435-8.712c-5.78-3.076-11.543-6.185-17.342-9.225-1.039-.544-1.635-1.12-1.468-2.389a16.485 16.485 0 0 0 .015-3.015c-.049-.914.189-1.078 1-.608 3.133 1.82 6.287 3.6 9.433 5.4q7.845 4.483 15.689 8.97c3.031 1.737 6.034 3.524 9.087 5.222 1.261.706 2.29 1.43 1.79 2.881z" fill="none" transform="translate(-87.873 -24.819)"/><g fill="#505050"><path d="m214.185 55.854a1.655 1.655 0 0 1 1.1.574c-.861.9-1.093 1.752-.126 2.819 1.52 1.679 3.143 3.248 4.784 4.8.561.531 1.224.958 1.386 1.789a28.478 28.478 0 0 1 -4.422-2.645c-.5-1.479-1.879-2.208-2.836-3.3a3.031 3.031 0 0 1 .114-4.037z" transform="translate(-113.031 -24.766)"/><path d="m240.679 205.813-.117 2.131c-1.092-.37-1.627-1.387-2.424-2.1a.523.523 0 0 1 0-.816c.8-.71 1.3-1.762 2.417-2.1q.076.94.152 1.879c-.919.309-.43.659-.028 1.006z" transform="translate(-124.685 -94.478)"/><path d="m188.794 172.266c.035.505-.287.449-.4.594-.188.239.029.753-.5.766a.3.3 0 0 1 -.318-.331c.043-.448.192-.842.711-.943.153-.028.308-.052.507-.086z" transform="translate(-100.811 -79.943)"/><path d="m183.985 169.447c.411.007.806.039.757.609-.021.238-.159.444-.407.376-.537-.146-.287-.63-.361-.975z" transform="translate(-99.105 -78.607)"/><path d="m183.266 168.986c-.379 0-.759 0-.786-.528l.006-.006c.38 0 .758 0 .791.523z" transform="translate(-98.396 -78.135)"/><path d="m182.267 176.123c-.076.036-.146.1-.211.091s-.125-.072-.187-.112c.067-.033.136-.093.2-.091s.131.069.198.112z" transform="translate(-98.107 -81.718)"/><path d="m186.483 172.44.106.068-.12-.054z" transform="translate(-100.287 -80.026)"/><path d="m186.375 172.407-.1-.067.119.053z" transform="translate(-100.193 -79.978)"/><path d="m52.253 201.868a5.12 5.12 0 0 1 .062 1.915c-.7.041-.971.67-1.4 1.059-1.608 1.439-2.929 3.18-4.687 4.463l-.03-1.649c1.828-1.2 2.984-3.1 4.646-4.469.491-.411.939-.878 1.409-1.319z" transform="translate(-33.799 -93.974)"/><path d="m114.7 100.248c-.346-.306-.69-.613-1.038-.916-.174-.15-.567-.21-.343-.541.148-.218.321-.545.7-.447.28.073.633.092.659.488.031.469.023.941.031 1.411z" transform="translate(-65.582 -44.897)"/><path d="m112.005 105.254c-.188.008-.338-.053-.376-.255a.318.318 0 0 1 .34-.418.3.3 0 0 1 .324.32.311.311 0 0 1 -.288.353z" transform="translate(-64.81 -47.862)"/><path d="m130.572 109.073c-.17-.046-.272-.126-.179-.252a.4.4 0 0 1 .3-.14c.055 0 .1.161.155.249z" transform="translate(-73.691 -49.805)"/><path d="m147.085 109.409c.075.066.157.1.161.148.012.122.038.291-.027.36-.186.2-.18-.045-.188-.128a1.693 1.693 0 0 1 .054-.38z" transform="translate(-81.594 -50.15)"/><path d="m110.349 105.6-.176-.148a.869.869 0 0 1 .154-.116c.016-.007.092.052.089.074a.873.873 0 0 1 -.067.19z" transform="translate(-64.124 -48.219)"/><path d="m127.469 99.415a.967.967 0 0 1 -.116.154c-.009.009-.1-.029-.1-.051a1.1 1.1 0 0 1 .013-.215z" transform="translate(-72.219 -45.36)"/><path d="m114.173 96.838c.032.011.09.022.091.034a.33.33 0 0 1 -.034.11c-.032-.012-.09-.022-.091-.034a.33.33 0 0 1 .034-.11z" transform="translate(-66.004 -44.192)"/><path d="m137.4 112.875-.108-.06.049-.049z" transform="translate(-76.979 -51.741)"/><path d="m147.552 107.786-.14.171c-.165-.162.068-.14.1-.213z" transform="translate(-81.747 -49.361)"/><path d="m224.689 223.06c.157-.636.781-1.062.795-1.765.007-.359 0-.713-.36-.919-.377-.216-.666-.028-.929.232-.4.4-.8.8-1.207 1.2-.309.306-.586.695-1.08.226-.549-.522-.136-.834.211-1.177q.558-.554 1.11-1.114a1.929 1.929 0 0 1 2.8-.369 1.9 1.9 0 0 1 .6 2.839 5.142 5.142 0 0 0 -.372.97l-.511.042z" transform="translate(-116.958 -102.06)"/><path d="m230.443 229.64q.092-.941.183-1.881c.886.151 1.109-.715 1.656-1.084.423-.285.745-1.105 1.369-.437.6.643-.164 1-.512 1.368-.825.88-1.695 1.719-2.546 2.574z" transform="translate(-121.13 -105.404)"/><path d="m216.785 244.516-.516.093-1.32-.151c.713-1.408 1.718-2.33 3.436-2.069-.124 1.018-1.246 1.284-1.6 2.127z" transform="translate(-113.786 -113.159)"/><path d="m220.752 240.069c.909-1.23-.607-1.735-.788-2.639a2.222 2.222 0 0 1 1.71 1.657.856.856 0 0 1 -.922.982z" transform="translate(-116.163 -110.83)"/><path d="m110.442 266.8c.956-.476 1.4.138 1.738.862.173.367-.168.4-.416.448l-.764-.27.009.008a.268.268 0 0 0 -.272-.271l.009.008-.272-.272.008.009z" transform="translate(-64.252 -124.672)"/><path d="m184.723 267.036a2.168 2.168 0 0 1 .235 1.843.5.5 0 0 1 -.691.39.39.39 0 0 1 -.059-.718c.627-.329.158-.941.515-1.515z" transform="translate(-99.115 -124.862)"/><path d="m188.293 266.011c-.461.524-.411 1.537-1.541 1.14.376-.524.448-1.296 1.541-1.14z" transform="translate(-100.421 -124.367)"/><path d="m192.861 261.344a1.554 1.554 0 0 1 -1.2 1.315c.08-.707.476-.991 1.2-1.315z" transform="translate(-102.748 -122.164)"/><path d="m219.371 236.677c-.3-.157-.706-.242-.674-.684.016-.221.233-.2.4-.105.12.254.355.467.274.789z" transform="translate(-115.562 -110.067)"/><path d="m111.5 268.925.766.274c.011.175.021.349.031.524a1.767 1.767 0 0 1 -.797-.798z" transform="translate(-64.753 -125.758)"/><path d="m190.508 264.717c-.032.073-.048.185-.1.207s-.14-.052-.213-.084c.032-.073.048-.186.1-.207s.14.053.213.084z" transform="translate(-102.053 -123.722)"/><path d="m110 266.712.038.519a.812.812 0 0 1 -.529-.529c0-.086 0-.172 0-.258z" transform="translate(-63.807 -124.582)"/><path d="m106.539 263.454c-.373.012-.54-.184-.542-.543z" transform="translate(-62.145 -122.907)"/><path d="m105.542 262.694a.473.473 0 0 1 -.545-.274.537.537 0 0 1 .545.274z" transform="translate(-61.671 -122.672)"/><path d="m109.265 266.192v.258a.515.515 0 0 1 -.269-.538z" transform="translate(-63.567 -124.33)"/><path d="m243.473 260.291c.127-.14.2-.079.261.064z" transform="translate(-127.306 -121.628)"/><path d="m104.776 262.2-.276-.276a.276.276 0 0 1 .276.276z" transform="translate(-61.435 -122.438)"/><path d="m107.275 264.193-.277-.277z" transform="translate(-62.619 -123.384)"/><path d="m107.775 264.694a.264.264 0 0 1 -.275-.275z" transform="translate(-62.857 -123.622)"/><path d="m108.275 265.194-.275-.275z" transform="translate(-63.094 -123.859)"/><path d="m108.778 265.7a.277.277 0 0 1 -.278-.278z" transform="translate(-63.331 -124.096)"/><path d="m54.183 240.836a19.427 19.427 0 0 1 -3.744-3.865l.053-.058a.466.466 0 0 0 .517-.517l.057-.057a21.838 21.838 0 0 1 4.135 4 .89.89 0 0 0 -1.018.497z" transform="translate(-35.811 -110.313)"/><path d="m46.532 233.224a2.435 2.435 0 0 0 .276-1.356 6.021 6.021 0 0 1 2.407 2.351l-.057.057a.467.467 0 0 0 -.517.517l-.053.058c-.908-.262-1.061-1.475-2.056-1.627z" transform="translate(-33.96 -108.193)"/><path d="m57.556 244.439a.89.89 0 0 1 1.018-.494l1.062.341c.041.346-.1.747.3.982-.014.083-.023.165-.029.248a3.138 3.138 0 0 1 -2.351-1.077z" transform="translate(-39.185 -113.915)"/><path d="m110.5 267.923.272.272z" transform="translate(-64.279 -125.283)"/><path d="m111 268.424a.268.268 0 0 1 .272.271z" transform="translate(-64.516 -125.52)"/><path d="m54.192 226.07-1.062-.341a21.839 21.839 0 0 0 -4.135-4 6.014 6.014 0 0 0 -2.406-2.352l-.355.029a7.286 7.286 0 0 1 -.022-2.574c.972-.921.706-1.821-.046-2.712a12.66 12.66 0 0 1 0-3.088c1.758-1.282 3.079-3.024 4.687-4.463.434-.389.7-1.018 1.4-1.059l.121 3.907a.232.232 0 0 0 -.005.248c-.013.437-.353.678-.575 1a4 4 0 0 0 .387 5.105c.032 1.525.078 3.05.09 4.576.016 2.036.005 2.037 2.09 1.928.738-.039 1.475-.087 2.213-.131-.041 2.422-.618 3.374-2.382 3.927z" transform="translate(-33.742 -95.699)"/><path d="m56.674 218.843a4 4 0 0 1 -.387-5.105c.222-.318.563-.559.575-1 .429-.053.885.1 1.286-.171l4.76-.567a.909.909 0 0 0 .3.931 4.509 4.509 0 0 1 1.242 4.608c-2.146.542-4.357.651-6.533 1a2.962 2.962 0 0 0 -1.243.304z" transform="translate(-38.231 -98.778)"/><path d="m242.7 207.506c-.4-.347-.891-.7.031-1a.774.774 0 0 1 -.031 1z" transform="translate(-126.704 -96.171)"/><path d="m211.621 241.906a1.816 1.816 0 0 1 -2.034-1.709 1.747 1.747 0 0 1 1.606-1.651 1.721 1.721 0 0 1 1.763 1.679 1.512 1.512 0 0 1 -1.335 1.681z" transform="translate(-111.242 -111.354)"/><path d="m46.171 221.875c.752.891 1.018 1.791.046 2.712a8.065 8.065 0 0 1 -.046-2.712z" transform="translate(-33.745 -103.457)"/><path d="m50.54 236.964a.467.467 0 0 1 .517-.517.467.467 0 0 1 -.517.517z" transform="translate(-35.859 -110.364)"/></g></svg>